<?xml version='1.0' encoding='utf-8'?>
<mlt LC_NUMERIC="en_US.UTF-8" producer="main_bin" root="/Users/thomasnield/git/3mds/p_values/kdenlive" version="7.23.0">
 <profile colorspace="709" description="4K UHD 2160p 60 fps" display_aspect_den="9" display_aspect_num="16" frame_rate_den="1" frame_rate_num="60" height="2160" progressive="1" sample_aspect_den="1" sample_aspect_num="1" width="3840"/>
 <chain id="chain2" out="00:00:59.983">
  <property name="length">3600</property>
  <property name="eof">pause</property>
  <property name="resource">/Users/thomasnield/git/3mds/p_values/media/videos/p_values/2160p60/ColdTestScene.mp4</property>
  <property name="mlt_service">avformat-novalidate</property>
  <property name="meta.media.nb_streams">1</property>
  <property name="meta.media.0.stream.type">video</property>
  <property name="meta.media.0.stream.frame_rate">60</property>
  <property name="meta.media.0.stream.sample_aspect_ratio">0</property>
  <property name="meta.media.0.codec.width">3840</property>
  <property name="meta.media.0.codec.height">2160</property>
  <property name="meta.media.0.codec.rotate">0</property>
  <property name="meta.media.0.codec.pix_fmt">yuv420p</property>
  <property name="meta.media.0.codec.sample_aspect_ratio">0</property>
  <property name="meta.media.0.codec.colorspace">709</property>
  <property name="meta.media.0.codec.name">h264</property>
  <property name="meta.media.0.codec.long_name">H.264 / AVC / MPEG-4 AVC / MPEG-4 part 10</property>
  <property name="meta.media.0.codec.bit_rate">756412</property>
  <property name="meta.attr.0.stream.handler_name.markup">VideoHandler</property>
  <property name="meta.attr.0.stream.vendor_id.markup">[0][0][0][0]</property>
  <property name="meta.attr.0.stream.encoder.markup">Lavc61.4.100 libx264</property>
  <property name="meta.attr.major_brand.markup">isom</property>
  <property name="meta.attr.minor_version.markup">512</property>
  <property name="meta.attr.compatible_brands.markup">isomiso2avc1mp41</property>
  <property name="meta.attr.encoder.markup">Lavf61.2.100</property>
  <property name="meta.attr.comment.markup">Rendered with Manim Community v0.18.1</property>
  <property name="seekable">1</property>
  <property name="meta.media.sample_aspect_num">1</property>
  <property name="meta.media.sample_aspect_den">1</property>
  <property name="audio_index">-1</property>
  <property name="video_index">0</property>
  <property name="vstream">0</property>
  <property name="meta.media.frame_rate_num">60</property>
  <property name="meta.media.frame_rate_den">1</property>
  <property name="meta.media.colorspace">709</property>
  <property name="meta.media.color_trc">2</property>
  <property name="meta.media.has_b_frames">2</property>
  <property name="meta.media.width">3840</property>
  <property name="meta.media.height">2160</property>
  <property name="meta.media.aspect_ratio">1</property>
  <property name="meta.media.color_range">mpeg</property>
  <property name="meta.media.top_field_first">0</property>
  <property name="meta.media.progressive">1</property>
  <property name="kdenlive:id">5</property>
  <property name="kdenlive:clip_type">2</property>
  <property name="kdenlive:file_size">5716154</property>
  <property name="kdenlive:file_hash">0479c1dedbc87dc8ce5113f89995029d</property>
  <property name="kdenlive:folderid">-1</property>
  <property name="kdenlive:monitorPosition">240</property>
  <property name="mute_on_pause">0</property>
  <property name="kdenlive:zone_in">0</property>
  <property name="kdenlive:zone_out">241</property>
 </chain>
 <chain id="chain4" out="00:00:15.383">
  <property name="length">924</property>
  <property name="eof">pause</property>
  <property name="resource">/Users/thomasnield/git/3mds/p_values/media/videos/p_values/2160p60/LogoScene.mp4</property>
  <property name="mlt_service">avformat-novalidate</property>
  <property name="meta.media.nb_streams">1</property>
  <property name="meta.media.0.stream.type">video</property>
  <property name="meta.media.0.stream.frame_rate">60</property>
  <property name="meta.media.0.stream.sample_aspect_ratio">0</property>
  <property name="meta.media.0.codec.width">3840</property>
  <property name="meta.media.0.codec.height">2160</property>
  <property name="meta.media.0.codec.rotate">0</property>
  <property name="meta.media.0.codec.pix_fmt">yuv420p</property>
  <property name="meta.media.0.codec.sample_aspect_ratio">0</property>
  <property name="meta.media.0.codec.colorspace">709</property>
  <property name="meta.media.0.codec.name">h264</property>
  <property name="meta.media.0.codec.long_name">H.264 / AVC / MPEG-4 AVC / MPEG-4 part 10</property>
  <property name="meta.media.0.codec.bit_rate">670823</property>
  <property name="meta.attr.0.stream.handler_name.markup">VideoHandler</property>
  <property name="meta.attr.0.stream.vendor_id.markup">[0][0][0][0]</property>
  <property name="meta.attr.0.stream.encoder.markup">Lavc61.4.100 libx264</property>
  <property name="meta.attr.major_brand.markup">isom</property>
  <property name="meta.attr.minor_version.markup">512</property>
  <property name="meta.attr.compatible_brands.markup">isomiso2avc1mp41</property>
  <property name="meta.attr.encoder.markup">Lavf61.2.100</property>
  <property name="meta.attr.comment.markup">Rendered with Manim Community v0.18.1</property>
  <property name="seekable">1</property>
  <property name="meta.media.sample_aspect_num">1</property>
  <property name="meta.media.sample_aspect_den">1</property>
  <property name="audio_index">-1</property>
  <property name="video_index">0</property>
  <property name="vstream">0</property>
  <property name="meta.media.frame_rate_num">60</property>
  <property name="meta.media.frame_rate_den">1</property>
  <property name="meta.media.colorspace">709</property>
  <property name="meta.media.color_trc">2</property>
  <property name="meta.media.has_b_frames">2</property>
  <property name="meta.media.width">3840</property>
  <property name="meta.media.height">2160</property>
  <property name="meta.media.aspect_ratio">1</property>
  <property name="meta.media.color_range">mpeg</property>
  <property name="meta.media.top_field_first">0</property>
  <property name="meta.media.progressive">1</property>
  <property name="kdenlive:id">6</property>
  <property name="kdenlive:clip_type">2</property>
  <property name="kdenlive:file_size">1302807</property>
  <property name="kdenlive:file_hash">3e05cc55c3c5e7d5b867c742bcd0c32f</property>
  <property name="kdenlive:folderid">-1</property>
  <property name="kdenlive:monitorPosition">0</property>
  <property name="mute_on_pause">0</property>
 </chain>
 <chain id="chain5" out="00:00:40.983">
  <property name="length">2460</property>
  <property name="eof">pause</property>
  <property name="resource">/Users/thomasnield/git/3mds/p_values/media/videos/p_values/2160p60/TeacupScene.mp4</property>
  <property name="mlt_service">avformat-novalidate</property>
  <property name="meta.media.nb_streams">1</property>
  <property name="meta.media.0.stream.type">video</property>
  <property name="meta.media.0.stream.frame_rate">60</property>
  <property name="meta.media.0.stream.sample_aspect_ratio">0</property>
  <property name="meta.media.0.codec.width">3840</property>
  <property name="meta.media.0.codec.height">2160</property>
  <property name="meta.media.0.codec.rotate">0</property>
  <property name="meta.media.0.codec.pix_fmt">yuv420p</property>
  <property name="meta.media.0.codec.sample_aspect_ratio">0</property>
  <property name="meta.media.0.codec.colorspace">709</property>
  <property name="meta.media.0.codec.name">h264</property>
  <property name="meta.media.0.codec.long_name">H.264 / AVC / MPEG-4 AVC / MPEG-4 part 10</property>
  <property name="meta.media.0.codec.bit_rate">804836</property>
  <property name="meta.attr.0.stream.handler_name.markup">VideoHandler</property>
  <property name="meta.attr.0.stream.vendor_id.markup">[0][0][0][0]</property>
  <property name="meta.attr.0.stream.encoder.markup">Lavc61.4.100 libx264</property>
  <property name="meta.attr.major_brand.markup">isom</property>
  <property name="meta.attr.minor_version.markup">512</property>
  <property name="meta.attr.compatible_brands.markup">isomiso2avc1mp41</property>
  <property name="meta.attr.encoder.markup">Lavf61.2.100</property>
  <property name="meta.attr.comment.markup">Rendered with Manim Community v0.18.1</property>
  <property name="seekable">1</property>
  <property name="meta.media.sample_aspect_num">1</property>
  <property name="meta.media.sample_aspect_den">1</property>
  <property name="audio_index">-1</property>
  <property name="video_index">0</property>
  <property name="vstream">0</property>
  <property name="meta.media.frame_rate_num">60</property>
  <property name="meta.media.frame_rate_den">1</property>
  <property name="meta.media.colorspace">709</property>
  <property name="meta.media.color_trc">2</property>
  <property name="meta.media.has_b_frames">2</property>
  <property name="meta.media.width">3840</property>
  <property name="meta.media.height">2160</property>
  <property name="meta.media.aspect_ratio">1</property>
  <property name="meta.media.color_range">mpeg</property>
  <property name="meta.media.top_field_first">0</property>
  <property name="meta.media.progressive">1</property>
  <property name="kdenlive:id">7</property>
  <property name="kdenlive:clip_type">2</property>
  <property name="kdenlive:file_size">4154834</property>
  <property name="kdenlive:file_hash">85411200a58c78420e7e8435b649f58c</property>
  <property name="kdenlive:folderid">-1</property>
  <property name="kdenlive:monitorPosition">2459</property>
  <property name="kdenlive:markers">[
]
</property>
  <property name="kdenlive:zone_in">1480</property>
  <property name="kdenlive:zone_out">2460</property>
  <property name="mute_on_pause">0</property>
 </chain>
 <chain id="chain37" out="00:04:24.950">
  <property name="length">15898</property>
  <property name="eof">pause</property>
  <property name="resource">other_assets/Piano Music - Falling - Royalty Free.mp3</property>
  <property name="mlt_service">avformat</property>
  <property name="meta.media.nb_streams">1</property>
  <property name="meta.media.0.stream.type">audio</property>
  <property name="meta.media.0.codec.sample_fmt">fltp</property>
  <property name="meta.media.0.codec.sample_rate">48000</property>
  <property name="meta.media.0.codec.channels">2</property>
  <property name="meta.media.0.codec.layout">stereo</property>
  <property name="meta.media.0.codec.name">mp3float</property>
  <property name="meta.media.0.codec.long_name">MP3 (MPEG audio layer 3)</property>
  <property name="meta.media.0.codec.bit_rate">320000</property>
  <property name="meta.attr.0.stream.encoder.markup">Lavc58.13</property>
  <property name="meta.attr.encoder.markup">Lavf58.76.100</property>
  <property name="seekable">1</property>
  <property name="audio_index">0</property>
  <property name="video_index">-1</property>
  <property name="astream">0</property>
  <property name="kdenlive:folderid">-1</property>
  <property name="kdenlive:id">9</property>
  <property name="kdenlive:clip_type">1</property>
  <property name="kdenlive:file_size">10599405</property>
  <property name="kdenlive:file_hash">9bc5d12ce4fb5cdf3813f4a65f5b8a5a</property>
  <property name="kdenlive:audio_max0">222</property>
  <property name="kdenlive:monitorPosition">0</property>
 </chain>
 <chain id="chain38" out="00:00:06.250">
  <property name="length">376</property>
  <property name="eof">pause</property>
  <property name="resource">other_assets/j5Sfjve2.m4a</property>
  <property name="mlt_service">avformat</property>
  <property name="meta.media.nb_streams">1</property>
  <property name="meta.media.0.stream.type">audio</property>
  <property name="meta.media.0.codec.sample_fmt">fltp</property>
  <property name="meta.media.0.codec.sample_rate">48000</property>
  <property name="meta.media.0.codec.channels">1</property>
  <property name="meta.media.0.codec.layout">mono</property>
  <property name="meta.media.0.codec.name">aac</property>
  <property name="meta.media.0.codec.long_name">AAC (Advanced Audio Coding)</property>
  <property name="meta.media.0.codec.bit_rate">237362</property>
  <property name="meta.attr.0.stream.creation_time.markup">2024-06-03T17:59:07.000000Z</property>
  <property name="meta.attr.0.stream.handler_name.markup">Core Media Audio</property>
  <property name="meta.attr.0.stream.vendor_id.markup">[0][0][0][0]</property>
  <property name="meta.attr.major_brand.markup">M4A </property>
  <property name="meta.attr.minor_version.markup">0</property>
  <property name="meta.attr.compatible_brands.markup">M4A isommp42</property>
  <property name="meta.attr.creation_time.markup">2024-06-03T17:59:07.000000Z</property>
  <property name="meta.attr.iTunSMPB.markup"> 00000000 00000840 00000000 0000000000048FC0 00000000 00000000 00000000 00000000 00000000 00000000 00000000 00000000</property>
  <property name="seekable">1</property>
  <property name="audio_index">0</property>
  <property name="video_index">-1</property>
  <property name="astream">0</property>
  <property name="kdenlive:folderid">-1</property>
  <property name="kdenlive:id">10</property>
  <property name="kdenlive:clip_type">1</property>
  <property name="kdenlive:file_size">188166</property>
  <property name="kdenlive:file_hash">8d0c764137f9a9bdbacffa0757c98c25</property>
  <property name="kdenlive:audio_max0">163</property>
  <property name="kdenlive:monitorPosition">0</property>
 </chain>
 <chain id="chain45" out="00:00:10.217">
  <property name="length">614</property>
  <property name="eof">pause</property>
  <property name="resource">other_assets/RS839Ge9.m4a</property>
  <property name="mlt_service">avformat</property>
  <property name="meta.media.nb_streams">1</property>
  <property name="meta.media.0.stream.type">audio</property>
  <property name="meta.media.0.codec.sample_fmt">fltp</property>
  <property name="meta.media.0.codec.sample_rate">48000</property>
  <property name="meta.media.0.codec.channels">1</property>
  <property name="meta.media.0.codec.layout">mono</property>
  <property name="meta.media.0.codec.name">aac</property>
  <property name="meta.media.0.codec.long_name">AAC (Advanced Audio Coding)</property>
  <property name="meta.media.0.codec.bit_rate">247073</property>
  <property name="meta.attr.0.stream.creation_time.markup">2024-06-03T18:27:06.000000Z</property>
  <property name="meta.attr.0.stream.handler_name.markup">Core Media Audio</property>
  <property name="meta.attr.0.stream.vendor_id.markup">[0][0][0][0]</property>
  <property name="meta.attr.major_brand.markup">M4A </property>
  <property name="meta.attr.minor_version.markup">0</property>
  <property name="meta.attr.compatible_brands.markup">M4A isommp42</property>
  <property name="meta.attr.creation_time.markup">2024-06-03T18:27:06.000000Z</property>
  <property name="meta.attr.iTunSMPB.markup"> 00000000 00000840 00000000 00000000000777C0 00000000 00000000 00000000 00000000 00000000 00000000 00000000 00000000</property>
  <property name="seekable">1</property>
  <property name="audio_index">0</property>
  <property name="video_index">-1</property>
  <property name="astream">0</property>
  <property name="kdenlive:folderid">-1</property>
  <property name="kdenlive:id">18</property>
  <property name="kdenlive:clip_type">1</property>
  <property name="kdenlive:file_size">319088</property>
  <property name="kdenlive:file_hash">32282cfec2dad65dac036f934907a085</property>
  <property name="kdenlive:audio_max0">126</property>
  <property name="kdenlive:monitorPosition">0</property>
 </chain>
 <chain id="chain46" out="00:00:32.183">
  <property name="length">1932</property>
  <property name="eof">pause</property>
  <property name="resource">other_assets/1fx79syU.m4a</property>
  <property name="mlt_service">avformat</property>
  <property name="meta.media.nb_streams">1</property>
  <property name="meta.media.0.stream.type">audio</property>
  <property name="meta.media.0.codec.sample_fmt">fltp</property>
  <property name="meta.media.0.codec.sample_rate">48000</property>
  <property name="meta.media.0.codec.channels">1</property>
  <property name="meta.media.0.codec.layout">mono</property>
  <property name="meta.media.0.codec.name">aac</property>
  <property name="meta.media.0.codec.long_name">AAC (Advanced Audio Coding)</property>
  <property name="meta.media.0.codec.bit_rate">242079</property>
  <property name="meta.attr.0.stream.creation_time.markup">2024-06-03T18:30:16.000000Z</property>
  <property name="meta.attr.0.stream.handler_name.markup">Core Media Audio</property>
  <property name="meta.attr.0.stream.vendor_id.markup">[0][0][0][0]</property>
  <property name="meta.attr.major_brand.markup">M4A </property>
  <property name="meta.attr.minor_version.markup">0</property>
  <property name="meta.attr.compatible_brands.markup">M4A isommp42</property>
  <property name="meta.attr.creation_time.markup">2024-06-03T18:30:16.000000Z</property>
  <property name="meta.attr.iTunSMPB.markup"> 00000000 00000840 00000000 0000000000178BC0 00000000 00000000 00000000 00000000 00000000 00000000 00000000 00000000</property>
  <property name="seekable">1</property>
  <property name="audio_index">0</property>
  <property name="video_index">-1</property>
  <property name="astream">0</property>
  <property name="kdenlive:folderid">-1</property>
  <property name="kdenlive:id">19</property>
  <property name="kdenlive:clip_type">1</property>
  <property name="kdenlive:file_size">981167</property>
  <property name="kdenlive:file_hash">a866c7ecdd1fe379e62c2b1f4fb177a3</property>
  <property name="kdenlive:audio_max0">116</property>
  <property name="kdenlive:monitorPosition">107</property>
 </chain>
 <chain id="chain47" out="00:00:17.683">
  <property name="length">1062</property>
  <property name="eof">pause</property>
  <property name="resource">other_assets/tj0qITRf.m4a</property>
  <property name="mlt_service">avformat</property>
  <property name="meta.media.nb_streams">1</property>
  <property name="meta.media.0.stream.type">audio</property>
  <property name="meta.media.0.codec.sample_fmt">fltp</property>
  <property name="meta.media.0.codec.sample_rate">48000</property>
  <property name="meta.media.0.codec.channels">1</property>
  <property name="meta.media.0.codec.layout">mono</property>
  <property name="meta.media.0.codec.name">aac</property>
  <property name="meta.media.0.codec.long_name">AAC (Advanced Audio Coding)</property>
  <property name="meta.media.0.codec.bit_rate">240682</property>
  <property name="meta.attr.0.stream.creation_time.markup">2024-06-03T18:42:14.000000Z</property>
  <property name="meta.attr.0.stream.handler_name.markup">Core Media Audio</property>
  <property name="meta.attr.0.stream.vendor_id.markup">[0][0][0][0]</property>
  <property name="meta.attr.major_brand.markup">M4A </property>
  <property name="meta.attr.minor_version.markup">0</property>
  <property name="meta.attr.compatible_brands.markup">M4A isommp42</property>
  <property name="meta.attr.creation_time.markup">2024-06-03T18:42:14.000000Z</property>
  <property name="meta.attr.iTunSMPB.markup"> 00000000 00000840 00000000 00000000000CEFC0 00000000 00000000 00000000 00000000 00000000 00000000 00000000 00000000</property>
  <property name="seekable">1</property>
  <property name="audio_index">0</property>
  <property name="video_index">-1</property>
  <property name="astream">0</property>
  <property name="kdenlive:folderid">-1</property>
  <property name="kdenlive:id">20</property>
  <property name="kdenlive:clip_type">1</property>
  <property name="kdenlive:file_size">536977</property>
  <property name="kdenlive:file_hash">7ad76bb27683e7a82f682caa5e0aa64a</property>
  <property name="kdenlive:audio_max0">144</property>
  <property name="kdenlive:monitorPosition">0</property>
 </chain>
 <chain id="chain48" out="00:00:11.167">
  <property name="length">671</property>
  <property name="eof">pause</property>
  <property name="resource">other_assets/0byv72cG.m4a</property>
  <property name="mlt_service">avformat</property>
  <property name="meta.media.nb_streams">1</property>
  <property name="meta.media.0.stream.type">audio</property>
  <property name="meta.media.0.codec.sample_fmt">fltp</property>
  <property name="meta.media.0.codec.sample_rate">48000</property>
  <property name="meta.media.0.codec.channels">1</property>
  <property name="meta.media.0.codec.layout">mono</property>
  <property name="meta.media.0.codec.name">aac</property>
  <property name="meta.media.0.codec.long_name">AAC (Advanced Audio Coding)</property>
  <property name="meta.media.0.codec.bit_rate">237990</property>
  <property name="meta.attr.0.stream.creation_time.markup">2024-06-03T18:45:22.000000Z</property>
  <property name="meta.attr.0.stream.handler_name.markup">Core Media Audio</property>
  <property name="meta.attr.0.stream.vendor_id.markup">[0][0][0][0]</property>
  <property name="meta.attr.major_brand.markup">M4A </property>
  <property name="meta.attr.minor_version.markup">0</property>
  <property name="meta.attr.compatible_brands.markup">M4A isommp42</property>
  <property name="meta.attr.creation_time.markup">2024-06-03T18:45:22.000000Z</property>
  <property name="meta.attr.iTunSMPB.markup"> 00000000 00000840 00000000 00000000000827C0 00000000 00000000 00000000 00000000 00000000 00000000 00000000 00000000</property>
  <property name="seekable">1</property>
  <property name="audio_index">0</property>
  <property name="video_index">-1</property>
  <property name="astream">0</property>
  <property name="kdenlive:folderid">-1</property>
  <property name="kdenlive:id">21</property>
  <property name="kdenlive:clip_type">1</property>
  <property name="kdenlive:file_size">335566</property>
  <property name="kdenlive:file_hash">59fb4bf979391e272761e56774cc7536</property>
  <property name="kdenlive:audio_max0">118</property>
  <property name="kdenlive:monitorPosition">0</property>
 </chain>
 <chain id="chain56" out="00:00:13.400">
  <property name="length">805</property>
  <property name="eof">pause</property>
  <property name="resource">other_assets/GkB1r2oS.m4a</property>
  <property name="mlt_service">avformat</property>
  <property name="meta.media.nb_streams">1</property>
  <property name="meta.media.0.stream.type">audio</property>
  <property name="meta.media.0.codec.sample_fmt">fltp</property>
  <property name="meta.media.0.codec.sample_rate">48000</property>
  <property name="meta.media.0.codec.channels">1</property>
  <property name="meta.media.0.codec.layout">mono</property>
  <property name="meta.media.0.codec.name">aac</property>
  <property name="meta.media.0.codec.long_name">AAC (Advanced Audio Coding)</property>
  <property name="meta.media.0.codec.bit_rate">242113</property>
  <property name="meta.attr.0.stream.creation_time.markup">2024-06-03T19:07:28.000000Z</property>
  <property name="meta.attr.0.stream.handler_name.markup">Core Media Audio</property>
  <property name="meta.attr.0.stream.vendor_id.markup">[0][0][0][0]</property>
  <property name="meta.attr.major_brand.markup">M4A </property>
  <property name="meta.attr.minor_version.markup">0</property>
  <property name="meta.attr.compatible_brands.markup">M4A isommp42</property>
  <property name="meta.attr.creation_time.markup">2024-06-03T19:07:28.000000Z</property>
  <property name="meta.attr.iTunSMPB.markup"> 00000000 00000840 00000000 000000000009CBC0 00000000 00000000 00000000 00000000 00000000 00000000 00000000 00000000</property>
  <property name="seekable">1</property>
  <property name="audio_index">0</property>
  <property name="video_index">-1</property>
  <property name="astream">0</property>
  <property name="kdenlive:folderid">-1</property>
  <property name="kdenlive:id">29</property>
  <property name="kdenlive:clip_type">1</property>
  <property name="kdenlive:file_size">409547</property>
  <property name="kdenlive:file_hash">10207cc7cc2f837a546b7033780f9da8</property>
  <property name="kdenlive:audio_max0">124</property>
  <property name="kdenlive:monitorPosition">0</property>
 </chain>
 <chain id="chain57" out="00:00:10.950">
  <property name="length">658</property>
  <property name="eof">pause</property>
  <property name="resource">other_assets/4fBwa5AV.m4a</property>
  <property name="mlt_service">avformat</property>
  <property name="meta.media.nb_streams">1</property>
  <property name="meta.media.0.stream.type">audio</property>
  <property name="meta.media.0.codec.sample_fmt">fltp</property>
  <property name="meta.media.0.codec.sample_rate">48000</property>
  <property name="meta.media.0.codec.channels">1</property>
  <property name="meta.media.0.codec.layout">mono</property>
  <property name="meta.media.0.codec.name">aac</property>
  <property name="meta.media.0.codec.long_name">AAC (Advanced Audio Coding)</property>
  <property name="meta.media.0.codec.bit_rate">239182</property>
  <property name="meta.attr.0.stream.creation_time.markup">2024-06-03T19:09:02.000000Z</property>
  <property name="meta.attr.0.stream.handler_name.markup">Core Media Audio</property>
  <property name="meta.attr.0.stream.vendor_id.markup">[0][0][0][0]</property>
  <property name="meta.attr.major_brand.markup">M4A </property>
  <property name="meta.attr.minor_version.markup">0</property>
  <property name="meta.attr.compatible_brands.markup">M4A isommp42</property>
  <property name="meta.attr.creation_time.markup">2024-06-03T19:09:02.000000Z</property>
  <property name="meta.attr.iTunSMPB.markup"> 00000000 00000840 00000000 000000000007FFC0 00000000 00000000 00000000 00000000 00000000 00000000 00000000 00000000</property>
  <property name="seekable">1</property>
  <property name="audio_index">0</property>
  <property name="video_index">-1</property>
  <property name="astream">0</property>
  <property name="kdenlive:folderid">-1</property>
  <property name="kdenlive:id">30</property>
  <property name="kdenlive:clip_type">1</property>
  <property name="kdenlive:file_size">330814</property>
  <property name="kdenlive:file_hash">442486d7fe9f9505e8dfe31022227919</property>
  <property name="kdenlive:audio_max0">136</property>
  <property name="kdenlive:monitorPosition">0</property>
 </chain>
 <chain id="chain58" out="00:00:12.950">
  <property name="length">778</property>
  <property name="eof">pause</property>
  <property name="resource">other_assets/xiUPier1.m4a</property>
  <property name="mlt_service">avformat</property>
  <property name="meta.media.nb_streams">1</property>
  <property name="meta.media.0.stream.type">audio</property>
  <property name="meta.media.0.codec.sample_fmt">fltp</property>
  <property name="meta.media.0.codec.sample_rate">48000</property>
  <property name="meta.media.0.codec.channels">1</property>
  <property name="meta.media.0.codec.layout">mono</property>
  <property name="meta.media.0.codec.name">aac</property>
  <property name="meta.media.0.codec.long_name">AAC (Advanced Audio Coding)</property>
  <property name="meta.media.0.codec.bit_rate">244810</property>
  <property name="meta.attr.0.stream.creation_time.markup">2024-06-03T19:11:09.000000Z</property>
  <property name="meta.attr.0.stream.handler_name.markup">Core Media Audio</property>
  <property name="meta.attr.0.stream.vendor_id.markup">[0][0][0][0]</property>
  <property name="meta.attr.major_brand.markup">M4A </property>
  <property name="meta.attr.minor_version.markup">0</property>
  <property name="meta.attr.compatible_brands.markup">M4A isommp42</property>
  <property name="meta.attr.creation_time.markup">2024-06-03T19:11:09.000000Z</property>
  <property name="meta.attr.iTunSMPB.markup"> 00000000 00000840 00000000 00000000000977C0 00000000 00000000 00000000 00000000 00000000 00000000 00000000 00000000</property>
  <property name="seekable">1</property>
  <property name="audio_index">0</property>
  <property name="video_index">-1</property>
  <property name="astream">0</property>
  <property name="kdenlive:folderid">-1</property>
  <property name="kdenlive:id">31</property>
  <property name="kdenlive:clip_type">1</property>
  <property name="kdenlive:file_size">400277</property>
  <property name="kdenlive:file_hash">9b202f2da8c6ab4286b3e38eda26e28e</property>
  <property name="kdenlive:audio_max0">129</property>
  <property name="kdenlive:monitorPosition">53</property>
 </chain>
 <chain id="chain59" out="00:00:26.183">
  <property name="length">1572</property>
  <property name="eof">pause</property>
  <property name="resource">other_assets/YWc9HoKF.m4a</property>
  <property name="mlt_service">avformat</property>
  <property name="meta.media.nb_streams">1</property>
  <property name="meta.media.0.stream.type">audio</property>
  <property name="meta.media.0.codec.sample_fmt">fltp</property>
  <property name="meta.media.0.codec.sample_rate">48000</property>
  <property name="meta.media.0.codec.channels">1</property>
  <property name="meta.media.0.codec.layout">mono</property>
  <property name="meta.media.0.codec.name">aac</property>
  <property name="meta.media.0.codec.long_name">AAC (Advanced Audio Coding)</property>
  <property name="meta.media.0.codec.bit_rate">244022</property>
  <property name="meta.attr.0.stream.creation_time.markup">2024-06-03T19:16:35.000000Z</property>
  <property name="meta.attr.0.stream.handler_name.markup">Core Media Audio</property>
  <property name="meta.attr.0.stream.vendor_id.markup">[0][0][0][0]</property>
  <property name="meta.attr.major_brand.markup">M4A </property>
  <property name="meta.attr.minor_version.markup">0</property>
  <property name="meta.attr.compatible_brands.markup">M4A isommp42</property>
  <property name="meta.attr.creation_time.markup">2024-06-03T19:16:35.000000Z</property>
  <property name="meta.attr.iTunSMPB.markup"> 00000000 00000840 00000000 00000000001327C0 00000000 00000000 00000000 00000000 00000000 00000000 00000000 00000000</property>
  <property name="seekable">1</property>
  <property name="audio_index">0</property>
  <property name="video_index">-1</property>
  <property name="astream">0</property>
  <property name="kdenlive:folderid">-1</property>
  <property name="kdenlive:id">32</property>
  <property name="kdenlive:clip_type">1</property>
  <property name="kdenlive:file_size">804982</property>
  <property name="kdenlive:file_hash">3829f6f5916b3c8ad755f2b2c195532f</property>
  <property name="kdenlive:audio_max0">117</property>
  <property name="kdenlive:monitorPosition">0</property>
 </chain>
 <chain id="chain60" out="00:00:11.567">
  <property name="length">695</property>
  <property name="eof">pause</property>
  <property name="resource">other_assets/ixi4mPPT.m4a</property>
  <property name="mlt_service">avformat</property>
  <property name="meta.media.nb_streams">1</property>
  <property name="meta.media.0.stream.type">audio</property>
  <property name="meta.media.0.codec.sample_fmt">fltp</property>
  <property name="meta.media.0.codec.sample_rate">48000</property>
  <property name="meta.media.0.codec.channels">1</property>
  <property name="meta.media.0.codec.layout">mono</property>
  <property name="meta.media.0.codec.name">aac</property>
  <property name="meta.media.0.codec.long_name">AAC (Advanced Audio Coding)</property>
  <property name="meta.media.0.codec.bit_rate">242769</property>
  <property name="meta.attr.0.stream.creation_time.markup">2024-06-03T19:18:55.000000Z</property>
  <property name="meta.attr.0.stream.handler_name.markup">Core Media Audio</property>
  <property name="meta.attr.0.stream.vendor_id.markup">[0][0][0][0]</property>
  <property name="meta.attr.major_brand.markup">M4A </property>
  <property name="meta.attr.minor_version.markup">0</property>
  <property name="meta.attr.compatible_brands.markup">M4A isommp42</property>
  <property name="meta.attr.creation_time.markup">2024-06-03T19:18:55.000000Z</property>
  <property name="meta.attr.iTunSMPB.markup"> 00000000 00000840 00000000 00000000000873C0 00000000 00000000 00000000 00000000 00000000 00000000 00000000 00000000</property>
  <property name="seekable">1</property>
  <property name="audio_index">0</property>
  <property name="video_index">-1</property>
  <property name="astream">0</property>
  <property name="kdenlive:folderid">-1</property>
  <property name="kdenlive:id">33</property>
  <property name="kdenlive:clip_type">1</property>
  <property name="kdenlive:file_size">354620</property>
  <property name="kdenlive:file_hash">0142cfa5339e3053dbe3ef42d124c0ac</property>
  <property name="kdenlive:audio_max0">129</property>
  <property name="kdenlive:monitorPosition">0</property>
 </chain>
 <chain id="chain61" out="00:00:19.517">
  <property name="length">1172</property>
  <property name="eof">pause</property>
  <property name="resource">other_assets/UxthtROW.m4a</property>
  <property name="mlt_service">avformat</property>
  <property name="meta.media.nb_streams">1</property>
  <property name="meta.media.0.stream.type">audio</property>
  <property name="meta.media.0.codec.sample_fmt">fltp</property>
  <property name="meta.media.0.codec.sample_rate">48000</property>
  <property name="meta.media.0.codec.channels">1</property>
  <property name="meta.media.0.codec.layout">mono</property>
  <property name="meta.media.0.codec.name">aac</property>
  <property name="meta.media.0.codec.long_name">AAC (Advanced Audio Coding)</property>
  <property name="meta.media.0.codec.bit_rate">239704</property>
  <property name="meta.attr.0.stream.creation_time.markup">2024-06-03T19:20:59.000000Z</property>
  <property name="meta.attr.0.stream.handler_name.markup">Core Media Audio</property>
  <property name="meta.attr.0.stream.vendor_id.markup">[0][0][0][0]</property>
  <property name="meta.attr.major_brand.markup">M4A </property>
  <property name="meta.attr.minor_version.markup">0</property>
  <property name="meta.attr.compatible_brands.markup">M4A isommp42</property>
  <property name="meta.attr.creation_time.markup">2024-06-03T19:20:59.000000Z</property>
  <property name="meta.attr.iTunSMPB.markup"> 00000000 00000840 00000000 00000000000E47C0 00000000 00000000 00000000 00000000 00000000 00000000 00000000 00000000</property>
  <property name="seekable">1</property>
  <property name="audio_index">0</property>
  <property name="video_index">-1</property>
  <property name="astream">0</property>
  <property name="kdenlive:folderid">-1</property>
  <property name="kdenlive:id">34</property>
  <property name="kdenlive:clip_type">1</property>
  <property name="kdenlive:file_size">590133</property>
  <property name="kdenlive:file_hash">7d90975b0a1dcaae0aaaf065aabf6d35</property>
  <property name="kdenlive:audio_max0">137</property>
  <property name="kdenlive:monitorPosition">0</property>
 </chain>
 <chain id="chain62" out="00:00:09.833">
  <property name="length">591</property>
  <property name="eof">pause</property>
  <property name="resource">other_assets/ORsSDbGt.m4a</property>
  <property name="mlt_service">avformat</property>
  <property name="meta.media.nb_streams">1</property>
  <property name="meta.media.0.stream.type">audio</property>
  <property name="meta.media.0.codec.sample_fmt">fltp</property>
  <property name="meta.media.0.codec.sample_rate">48000</property>
  <property name="meta.media.0.codec.channels">1</property>
  <property name="meta.media.0.codec.layout">mono</property>
  <property name="meta.media.0.codec.name">aac</property>
  <property name="meta.media.0.codec.long_name">AAC (Advanced Audio Coding)</property>
  <property name="meta.media.0.codec.bit_rate">246625</property>
  <property name="meta.attr.0.stream.creation_time.markup">2024-06-03T19:23:10.000000Z</property>
  <property name="meta.attr.0.stream.handler_name.markup">Core Media Audio</property>
  <property name="meta.attr.0.stream.vendor_id.markup">[0][0][0][0]</property>
  <property name="meta.attr.major_brand.markup">M4A </property>
  <property name="meta.attr.minor_version.markup">0</property>
  <property name="meta.attr.compatible_brands.markup">M4A isommp42</property>
  <property name="meta.attr.creation_time.markup">2024-06-03T19:23:10.000000Z</property>
  <property name="meta.attr.iTunSMPB.markup"> 00000000 00000840 00000000 0000000000072FC0 00000000 00000000 00000000 00000000 00000000 00000000 00000000 00000000</property>
  <property name="seekable">1</property>
  <property name="audio_index">0</property>
  <property name="video_index">-1</property>
  <property name="astream">0</property>
  <property name="kdenlive:folderid">-1</property>
  <property name="kdenlive:id">35</property>
  <property name="kdenlive:clip_type">1</property>
  <property name="kdenlive:file_size">306605</property>
  <property name="kdenlive:file_hash">934ef30ea847212c8eab786d02468fe5</property>
  <property name="kdenlive:audio_max0">144</property>
  <property name="kdenlive:monitorPosition">0</property>
 </chain>
 <chain id="chain63" out="00:00:12.200">
  <property name="length">733</property>
  <property name="eof">pause</property>
  <property name="resource">other_assets/5bOMd1WG.m4a</property>
  <property name="mlt_service">avformat</property>
  <property name="meta.media.nb_streams">1</property>
  <property name="meta.media.0.stream.type">audio</property>
  <property name="meta.media.0.codec.sample_fmt">fltp</property>
  <property name="meta.media.0.codec.sample_rate">48000</property>
  <property name="meta.media.0.codec.channels">1</property>
  <property name="meta.media.0.codec.layout">mono</property>
  <property name="meta.media.0.codec.name">aac</property>
  <property name="meta.media.0.codec.long_name">AAC (Advanced Audio Coding)</property>
  <property name="meta.media.0.codec.bit_rate">234161</property>
  <property name="meta.attr.0.stream.creation_time.markup">2024-06-03T19:24:47.000000Z</property>
  <property name="meta.attr.0.stream.handler_name.markup">Core Media Audio</property>
  <property name="meta.attr.0.stream.vendor_id.markup">[0][0][0][0]</property>
  <property name="meta.attr.major_brand.markup">M4A </property>
  <property name="meta.attr.minor_version.markup">0</property>
  <property name="meta.attr.compatible_brands.markup">M4A isommp42</property>
  <property name="meta.attr.creation_time.markup">2024-06-03T19:24:47.000000Z</property>
  <property name="meta.attr.iTunSMPB.markup"> 00000000 00000840 00000000 000000000008EBC0 00000000 00000000 00000000 00000000 00000000 00000000 00000000 00000000</property>
  <property name="seekable">1</property>
  <property name="audio_index">0</property>
  <property name="video_index">-1</property>
  <property name="astream">0</property>
  <property name="kdenlive:folderid">-1</property>
  <property name="kdenlive:id">36</property>
  <property name="kdenlive:clip_type">1</property>
  <property name="kdenlive:file_size">361013</property>
  <property name="kdenlive:file_hash">5e99b950c618a1d321b81f130653fd56</property>
  <property name="kdenlive:audio_max0">157</property>
  <property name="kdenlive:monitorPosition">0</property>
 </chain>
 <chain id="chain64" out="00:00:04.583">
  <property name="length">276</property>
  <property name="eof">pause</property>
  <property name="resource">other_assets/zYAhM6v8.m4a</property>
  <property name="mlt_service">avformat</property>
  <property name="meta.media.nb_streams">1</property>
  <property name="meta.media.0.stream.type">audio</property>
  <property name="meta.media.0.codec.sample_fmt">fltp</property>
  <property name="meta.media.0.codec.sample_rate">48000</property>
  <property name="meta.media.0.codec.channels">1</property>
  <property name="meta.media.0.codec.layout">mono</property>
  <property name="meta.media.0.codec.name">aac</property>
  <property name="meta.media.0.codec.long_name">AAC (Advanced Audio Coding)</property>
  <property name="meta.media.0.codec.bit_rate">241786</property>
  <property name="meta.attr.0.stream.creation_time.markup">2024-06-03T19:26:10.000000Z</property>
  <property name="meta.attr.0.stream.handler_name.markup">Core Media Audio</property>
  <property name="meta.attr.0.stream.vendor_id.markup">[0][0][0][0]</property>
  <property name="meta.attr.major_brand.markup">M4A </property>
  <property name="meta.attr.minor_version.markup">0</property>
  <property name="meta.attr.compatible_brands.markup">M4A isommp42</property>
  <property name="meta.attr.creation_time.markup">2024-06-03T19:26:10.000000Z</property>
  <property name="meta.attr.iTunSMPB.markup"> 00000000 00000840 00000000 00000000000357C0 00000000 00000000 00000000 00000000 00000000 00000000 00000000 00000000</property>
  <property name="seekable">1</property>
  <property name="audio_index">0</property>
  <property name="video_index">-1</property>
  <property name="astream">0</property>
  <property name="kdenlive:folderid">-1</property>
  <property name="kdenlive:id">37</property>
  <property name="kdenlive:clip_type">1</property>
  <property name="kdenlive:file_size">141023</property>
  <property name="kdenlive:file_hash">6fa8e3b1cc942ee819d74402bbfe79e0</property>
  <property name="kdenlive:audio_max0">125</property>
  <property name="kdenlive:monitorPosition">0</property>
 </chain>
 <chain id="chain65" out="00:00:10.600">
  <property name="length">637</property>
  <property name="eof">pause</property>
  <property name="resource">other_assets/qfWZrG7j.m4a</property>
  <property name="mlt_service">avformat</property>
  <property name="meta.media.nb_streams">1</property>
  <property name="meta.media.0.stream.type">audio</property>
  <property name="meta.media.0.codec.sample_fmt">fltp</property>
  <property name="meta.media.0.codec.sample_rate">48000</property>
  <property name="meta.media.0.codec.channels">1</property>
  <property name="meta.media.0.codec.layout">mono</property>
  <property name="meta.media.0.codec.name">aac</property>
  <property name="meta.media.0.codec.long_name">AAC (Advanced Audio Coding)</property>
  <property name="meta.media.0.codec.bit_rate">237905</property>
  <property name="meta.attr.0.stream.creation_time.markup">2024-06-03T19:27:11.000000Z</property>
  <property name="meta.attr.0.stream.handler_name.markup">Core Media Audio</property>
  <property name="meta.attr.0.stream.vendor_id.markup">[0][0][0][0]</property>
  <property name="meta.attr.major_brand.markup">M4A </property>
  <property name="meta.attr.minor_version.markup">0</property>
  <property name="meta.attr.compatible_brands.markup">M4A isommp42</property>
  <property name="meta.attr.creation_time.markup">2024-06-03T19:27:11.000000Z</property>
  <property name="meta.attr.iTunSMPB.markup"> 00000000 00000840 00000000 000000000007BFC0 00000000 00000000 00000000 00000000 00000000 00000000 00000000 00000000</property>
  <property name="seekable">1</property>
  <property name="audio_index">0</property>
  <property name="video_index">-1</property>
  <property name="astream">0</property>
  <property name="kdenlive:folderid">-1</property>
  <property name="kdenlive:id">38</property>
  <property name="kdenlive:clip_type">1</property>
  <property name="kdenlive:file_size">318844</property>
  <property name="kdenlive:file_hash">63070135a0de376557f76def5eaaad52</property>
  <property name="kdenlive:audio_max0">114</property>
  <property name="kdenlive:monitorPosition">0</property>
 </chain>
 <chain id="chain66" out="00:00:17.433">
  <property name="length">1047</property>
  <property name="eof">pause</property>
  <property name="resource">other_assets/tf8mgaSw.m4a</property>
  <property name="mlt_service">avformat</property>
  <property name="meta.media.nb_streams">1</property>
  <property name="meta.media.0.stream.type">audio</property>
  <property name="meta.media.0.codec.sample_fmt">fltp</property>
  <property name="meta.media.0.codec.sample_rate">48000</property>
  <property name="meta.media.0.codec.channels">1</property>
  <property name="meta.media.0.codec.layout">mono</property>
  <property name="meta.media.0.codec.name">aac</property>
  <property name="meta.media.0.codec.long_name">AAC (Advanced Audio Coding)</property>
  <property name="meta.media.0.codec.bit_rate">238610</property>
  <property name="meta.attr.0.stream.creation_time.markup">2024-06-03T19:28:12.000000Z</property>
  <property name="meta.attr.0.stream.handler_name.markup">Core Media Audio</property>
  <property name="meta.attr.0.stream.vendor_id.markup">[0][0][0][0]</property>
  <property name="meta.attr.major_brand.markup">M4A </property>
  <property name="meta.attr.minor_version.markup">0</property>
  <property name="meta.attr.compatible_brands.markup">M4A isommp42</property>
  <property name="meta.attr.creation_time.markup">2024-06-03T19:28:12.000000Z</property>
  <property name="meta.attr.iTunSMPB.markup"> 00000000 00000840 00000000 00000000000CBFC0 00000000 00000000 00000000 00000000 00000000 00000000 00000000 00000000</property>
  <property name="seekable">1</property>
  <property name="audio_index">0</property>
  <property name="video_index">-1</property>
  <property name="astream">0</property>
  <property name="kdenlive:folderid">-1</property>
  <property name="kdenlive:id">39</property>
  <property name="kdenlive:clip_type">1</property>
  <property name="kdenlive:file_size">524702</property>
  <property name="kdenlive:file_hash">81807fd52b3aff66e8af1b9690e82e50</property>
  <property name="kdenlive:audio_max0">142</property>
  <property name="kdenlive:monitorPosition">0</property>
 </chain>
 <chain id="chain67" out="00:00:08.767">
  <property name="length">527</property>
  <property name="eof">pause</property>
  <property name="resource">other_assets/xKLMy4PN.m4a</property>
  <property name="mlt_service">avformat</property>
  <property name="meta.media.nb_streams">1</property>
  <property name="meta.media.0.stream.type">audio</property>
  <property name="meta.media.0.codec.sample_fmt">fltp</property>
  <property name="meta.media.0.codec.sample_rate">48000</property>
  <property name="meta.media.0.codec.channels">1</property>
  <property name="meta.media.0.codec.layout">mono</property>
  <property name="meta.media.0.codec.name">aac</property>
  <property name="meta.media.0.codec.long_name">AAC (Advanced Audio Coding)</property>
  <property name="meta.media.0.codec.bit_rate">244807</property>
  <property name="meta.attr.0.stream.creation_time.markup">2024-06-03T19:32:18.000000Z</property>
  <property name="meta.attr.0.stream.handler_name.markup">Core Media Audio</property>
  <property name="meta.attr.0.stream.vendor_id.markup">[0][0][0][0]</property>
  <property name="meta.attr.major_brand.markup">M4A </property>
  <property name="meta.attr.minor_version.markup">0</property>
  <property name="meta.attr.compatible_brands.markup">M4A isommp42</property>
  <property name="meta.attr.creation_time.markup">2024-06-03T19:32:18.000000Z</property>
  <property name="meta.attr.iTunSMPB.markup"> 00000000 00000840 00000000 00000000000667C0 00000000 00000000 00000000 00000000 00000000 00000000 00000000 00000000</property>
  <property name="seekable">1</property>
  <property name="audio_index">0</property>
  <property name="video_index">-1</property>
  <property name="astream">0</property>
  <property name="kdenlive:folderid">-1</property>
  <property name="kdenlive:id">40</property>
  <property name="kdenlive:clip_type">1</property>
  <property name="kdenlive:file_size">271516</property>
  <property name="kdenlive:file_hash">56bc43af759267e303f854ed679ce6c8</property>
  <property name="kdenlive:audio_max0">115</property>
  <property name="kdenlive:monitorPosition">0</property>
 </chain>
 <chain id="chain68" out="00:00:15.250">
  <property name="length">916</property>
  <property name="eof">pause</property>
  <property name="resource">other_assets/Clt0LlOn.m4a</property>
  <property name="mlt_service">avformat</property>
  <property name="meta.media.nb_streams">1</property>
  <property name="meta.media.0.stream.type">audio</property>
  <property name="meta.media.0.codec.sample_fmt">fltp</property>
  <property name="meta.media.0.codec.sample_rate">48000</property>
  <property name="meta.media.0.codec.channels">1</property>
  <property name="meta.media.0.codec.layout">mono</property>
  <property name="meta.media.0.codec.name">aac</property>
  <property name="meta.media.0.codec.long_name">AAC (Advanced Audio Coding)</property>
  <property name="meta.media.0.codec.bit_rate">237774</property>
  <property name="meta.attr.0.stream.creation_time.markup">2024-06-03T19:33:37.000000Z</property>
  <property name="meta.attr.0.stream.handler_name.markup">Core Media Audio</property>
  <property name="meta.attr.0.stream.vendor_id.markup">[0][0][0][0]</property>
  <property name="meta.attr.major_brand.markup">M4A </property>
  <property name="meta.attr.minor_version.markup">0</property>
  <property name="meta.attr.compatible_brands.markup">M4A isommp42</property>
  <property name="meta.attr.creation_time.markup">2024-06-03T19:33:37.000000Z</property>
  <property name="meta.attr.iTunSMPB.markup"> 00000000 00000840 00000000 00000000000B27C0 00000000 00000000 00000000 00000000 00000000 00000000 00000000 00000000</property>
  <property name="seekable">1</property>
  <property name="audio_index">0</property>
  <property name="video_index">-1</property>
  <property name="astream">0</property>
  <property name="kdenlive:folderid">-1</property>
  <property name="kdenlive:id">41</property>
  <property name="kdenlive:clip_type">1</property>
  <property name="kdenlive:file_size">457789</property>
  <property name="kdenlive:file_hash">ed8ba379993823cf936f7552bff075ea</property>
  <property name="kdenlive:audio_max0">134</property>
  <property name="kdenlive:monitorPosition">0</property>
 </chain>
 <chain id="chain71" out="00:00:12.700">
  <property name="length">763</property>
  <property name="eof">pause</property>
  <property name="resource">other_assets/u3JsqnE5.m4a</property>
  <property name="mlt_service">avformat</property>
  <property name="meta.media.nb_streams">1</property>
  <property name="meta.media.0.stream.type">audio</property>
  <property name="meta.media.0.codec.sample_fmt">fltp</property>
  <property name="meta.media.0.codec.sample_rate">48000</property>
  <property name="meta.media.0.codec.channels">1</property>
  <property name="meta.media.0.codec.layout">mono</property>
  <property name="meta.media.0.codec.name">aac</property>
  <property name="meta.media.0.codec.long_name">AAC (Advanced Audio Coding)</property>
  <property name="meta.media.0.codec.bit_rate">246880</property>
  <property name="meta.attr.0.stream.creation_time.markup">2024-06-04T01:29:13.000000Z</property>
  <property name="meta.attr.0.stream.handler_name.markup">Core Media Audio</property>
  <property name="meta.attr.0.stream.vendor_id.markup">[0][0][0][0]</property>
  <property name="meta.attr.major_brand.markup">M4A </property>
  <property name="meta.attr.minor_version.markup">0</property>
  <property name="meta.attr.compatible_brands.markup">M4A isommp42</property>
  <property name="meta.attr.creation_time.markup">2024-06-04T01:29:13.000000Z</property>
  <property name="meta.attr.iTunSMPB.markup"> 00000000 00000840 00000000 00000000000947C0 00000000 00000000 00000000 00000000 00000000 00000000 00000000 00000000</property>
  <property name="seekable">1</property>
  <property name="audio_index">0</property>
  <property name="video_index">-1</property>
  <property name="astream">0</property>
  <property name="kdenlive:folderid">-1</property>
  <property name="kdenlive:id">45</property>
  <property name="kdenlive:clip_type">1</property>
  <property name="kdenlive:file_size">395682</property>
  <property name="kdenlive:file_hash">fc63b0634dfb24f0ada8ab63424339eb</property>
  <property name="kdenlive:audio_max0">129</property>
  <property name="kdenlive:monitorPosition">71</property>
 </chain>
 <chain id="chain72" out="00:00:08.233">
  <property name="length">495</property>
  <property name="eof">pause</property>
  <property name="resource">other_assets/XP0qkJPd.m4a</property>
  <property name="mlt_service">avformat</property>
  <property name="meta.media.nb_streams">1</property>
  <property name="meta.media.0.stream.type">audio</property>
  <property name="meta.media.0.codec.sample_fmt">fltp</property>
  <property name="meta.media.0.codec.sample_rate">48000</property>
  <property name="meta.media.0.codec.channels">1</property>
  <property name="meta.media.0.codec.layout">mono</property>
  <property name="meta.media.0.codec.name">aac</property>
  <property name="meta.media.0.codec.long_name">AAC (Advanced Audio Coding)</property>
  <property name="meta.media.0.codec.bit_rate">234918</property>
  <property name="meta.attr.0.stream.creation_time.markup">2024-06-04T01:37:00.000000Z</property>
  <property name="meta.attr.0.stream.handler_name.markup">Core Media Audio</property>
  <property name="meta.attr.0.stream.vendor_id.markup">[0][0][0][0]</property>
  <property name="meta.attr.major_brand.markup">M4A </property>
  <property name="meta.attr.minor_version.markup">0</property>
  <property name="meta.attr.compatible_brands.markup">M4A isommp42</property>
  <property name="meta.attr.creation_time.markup">2024-06-04T01:37:00.000000Z</property>
  <property name="meta.attr.iTunSMPB.markup"> 00000000 00000840 00000000 00000000000603C0 00000000 00000000 00000000 00000000 00000000 00000000 00000000 00000000</property>
  <property name="seekable">1</property>
  <property name="audio_index">0</property>
  <property name="video_index">-1</property>
  <property name="astream">0</property>
  <property name="kdenlive:folderid">-1</property>
  <property name="kdenlive:id">46</property>
  <property name="kdenlive:clip_type">1</property>
  <property name="kdenlive:file_size">244890</property>
  <property name="kdenlive:file_hash">8fdc1b3992157419d4be4875a1f0433a</property>
  <property name="kdenlive:audio_max0">114</property>
  <property name="kdenlive:monitorPosition">0</property>
 </chain>
 <chain id="chain73" out="00:00:08.617">
  <property name="length">518</property>
  <property name="eof">pause</property>
  <property name="resource">other_assets/ES1Hmikl.m4a</property>
  <property name="mlt_service">avformat</property>
  <property name="meta.media.nb_streams">1</property>
  <property name="meta.media.0.stream.type">audio</property>
  <property name="meta.media.0.codec.sample_fmt">fltp</property>
  <property name="meta.media.0.codec.sample_rate">48000</property>
  <property name="meta.media.0.codec.channels">1</property>
  <property name="meta.media.0.codec.layout">mono</property>
  <property name="meta.media.0.codec.name">aac</property>
  <property name="meta.media.0.codec.long_name">AAC (Advanced Audio Coding)</property>
  <property name="meta.media.0.codec.bit_rate">217475</property>
  <property name="meta.attr.0.stream.creation_time.markup">2024-06-04T01:39:23.000000Z</property>
  <property name="meta.attr.0.stream.handler_name.markup">Core Media Audio</property>
  <property name="meta.attr.0.stream.vendor_id.markup">[0][0][0][0]</property>
  <property name="meta.attr.major_brand.markup">M4A </property>
  <property name="meta.attr.minor_version.markup">0</property>
  <property name="meta.attr.compatible_brands.markup">M4A isommp42</property>
  <property name="meta.attr.creation_time.markup">2024-06-04T01:39:23.000000Z</property>
  <property name="meta.attr.iTunSMPB.markup"> 00000000 00000840 00000000 0000000000064BC0 00000000 00000000 00000000 00000000 00000000 00000000 00000000 00000000</property>
  <property name="seekable">1</property>
  <property name="audio_index">0</property>
  <property name="video_index">-1</property>
  <property name="astream">0</property>
  <property name="kdenlive:folderid">-1</property>
  <property name="kdenlive:id">47</property>
  <property name="kdenlive:clip_type">1</property>
  <property name="kdenlive:file_size">237400</property>
  <property name="kdenlive:file_hash">d00d4c4ebaa62d7a5c61d8671ce48da8</property>
  <property name="kdenlive:audio_max0">108</property>
  <property name="kdenlive:monitorPosition">0</property>
 </chain>
 <chain id="chain74" out="00:00:02.500">
  <property name="length">151</property>
  <property name="eof">pause</property>
  <property name="resource">other_assets/7VyhG2hY.m4a</property>
  <property name="mlt_service">avformat</property>
  <property name="meta.media.nb_streams">1</property>
  <property name="meta.media.0.stream.type">audio</property>
  <property name="meta.media.0.codec.sample_fmt">fltp</property>
  <property name="meta.media.0.codec.sample_rate">48000</property>
  <property name="meta.media.0.codec.channels">1</property>
  <property name="meta.media.0.codec.layout">mono</property>
  <property name="meta.media.0.codec.name">aac</property>
  <property name="meta.media.0.codec.long_name">AAC (Advanced Audio Coding)</property>
  <property name="meta.media.0.codec.bit_rate">233046</property>
  <property name="meta.attr.0.stream.creation_time.markup">2024-06-04T01:40:36.000000Z</property>
  <property name="meta.attr.0.stream.handler_name.markup">Core Media Audio</property>
  <property name="meta.attr.0.stream.vendor_id.markup">[0][0][0][0]</property>
  <property name="meta.attr.major_brand.markup">M4A </property>
  <property name="meta.attr.minor_version.markup">0</property>
  <property name="meta.attr.compatible_brands.markup">M4A isommp42</property>
  <property name="meta.attr.creation_time.markup">2024-06-04T01:40:36.000000Z</property>
  <property name="meta.attr.iTunSMPB.markup"> 00000000 00000840 00000000 000000000001CFC0 00000000 00000000 00000000 00000000 00000000 00000000 00000000 00000000</property>
  <property name="seekable">1</property>
  <property name="audio_index">0</property>
  <property name="video_index">-1</property>
  <property name="astream">0</property>
  <property name="kdenlive:folderid">-1</property>
  <property name="kdenlive:id">48</property>
  <property name="kdenlive:clip_type">1</property>
  <property name="kdenlive:file_size">74686</property>
  <property name="kdenlive:file_hash">9de9c9f863deba95254ab1ef65e1e7d7</property>
  <property name="kdenlive:audio_max0">138</property>
  <property name="kdenlive:monitorPosition">0</property>
 </chain>
 <chain id="chain75" out="00:00:04.867">
  <property name="length">293</property>
  <property name="eof">pause</property>
  <property name="resource">other_assets/c3YLsuIS.m4a</property>
  <property name="mlt_service">avformat</property>
  <property name="meta.media.nb_streams">1</property>
  <property name="meta.media.0.stream.type">audio</property>
  <property name="meta.media.0.codec.sample_fmt">fltp</property>
  <property name="meta.media.0.codec.sample_rate">48000</property>
  <property name="meta.media.0.codec.channels">1</property>
  <property name="meta.media.0.codec.layout">mono</property>
  <property name="meta.media.0.codec.name">aac</property>
  <property name="meta.media.0.codec.long_name">AAC (Advanced Audio Coding)</property>
  <property name="meta.media.0.codec.bit_rate">219070</property>
  <property name="meta.attr.0.stream.creation_time.markup">2024-06-04T01:41:52.000000Z</property>
  <property name="meta.attr.0.stream.handler_name.markup">Core Media Audio</property>
  <property name="meta.attr.0.stream.vendor_id.markup">[0][0][0][0]</property>
  <property name="meta.attr.major_brand.markup">M4A </property>
  <property name="meta.attr.minor_version.markup">0</property>
  <property name="meta.attr.compatible_brands.markup">M4A isommp42</property>
  <property name="meta.attr.creation_time.markup">2024-06-04T01:41:52.000000Z</property>
  <property name="meta.attr.iTunSMPB.markup"> 00000000 00000840 00000000 0000000000038BC0 00000000 00000000 00000000 00000000 00000000 00000000 00000000 00000000</property>
  <property name="seekable">1</property>
  <property name="audio_index">0</property>
  <property name="video_index">-1</property>
  <property name="astream">0</property>
  <property name="kdenlive:folderid">-1</property>
  <property name="kdenlive:id">49</property>
  <property name="kdenlive:clip_type">1</property>
  <property name="kdenlive:file_size">135585</property>
  <property name="kdenlive:file_hash">52f8dd286d91f42f9f2637080c222fdc</property>
  <property name="kdenlive:audio_max0">108</property>
  <property name="kdenlive:monitorPosition">87</property>
 </chain>
 <chain id="chain76" out="00:00:07.300">
  <property name="length">439</property>
  <property name="eof">pause</property>
  <property name="resource">other_assets/wJVZHHRz.m4a</property>
  <property name="mlt_service">avformat</property>
  <property name="meta.media.nb_streams">1</property>
  <property name="meta.media.0.stream.type">audio</property>
  <property name="meta.media.0.codec.sample_fmt">fltp</property>
  <property name="meta.media.0.codec.sample_rate">48000</property>
  <property name="meta.media.0.codec.channels">1</property>
  <property name="meta.media.0.codec.layout">mono</property>
  <property name="meta.media.0.codec.name">aac</property>
  <property name="meta.media.0.codec.long_name">AAC (Advanced Audio Coding)</property>
  <property name="meta.media.0.codec.bit_rate">232702</property>
  <property name="meta.attr.0.stream.creation_time.markup">2024-06-04T01:53:01.000000Z</property>
  <property name="meta.attr.0.stream.handler_name.markup">Core Media Audio</property>
  <property name="meta.attr.0.stream.vendor_id.markup">[0][0][0][0]</property>
  <property name="meta.attr.major_brand.markup">M4A </property>
  <property name="meta.attr.minor_version.markup">0</property>
  <property name="meta.attr.compatible_brands.markup">M4A isommp42</property>
  <property name="meta.attr.creation_time.markup">2024-06-04T01:53:01.000000Z</property>
  <property name="meta.attr.iTunSMPB.markup"> 00000000 00000840 00000000 00000000000553C0 00000000 00000000 00000000 00000000 00000000 00000000 00000000 00000000</property>
  <property name="seekable">1</property>
  <property name="audio_index">0</property>
  <property name="video_index">-1</property>
  <property name="astream">0</property>
  <property name="kdenlive:folderid">-1</property>
  <property name="kdenlive:id">50</property>
  <property name="kdenlive:clip_type">1</property>
  <property name="kdenlive:file_size">215119</property>
  <property name="kdenlive:file_hash">e8f8d00e307e62aec4f4f7614b2da91d</property>
  <property name="kdenlive:audio_max0">121</property>
  <property name="kdenlive:monitorPosition">0</property>
 </chain>
 <producer id="producer0" in="00:00:00.000" out="00:12:31.767">
  <property name="length">2147483647</property>
  <property name="eof">continue</property>
  <property name="resource">black</property>
  <property name="aspect_ratio">1</property>
  <property name="mlt_service">color</property>
  <property name="kdenlive:playlistid">black_track</property>
  <property name="mlt_image_format">rgba</property>
  <property name="set.test_audio">0</property>
 </producer>
 <chain id="chain0" out="00:00:06.250">
  <property name="length">376</property>
  <property name="eof">pause</property>
  <property name="resource">other_assets/j5Sfjve2.m4a</property>
  <property name="mlt_service">avformat-novalidate</property>
  <property name="seekable">1</property>
  <property name="audio_index">0</property>
  <property name="video_index">-1</property>
  <property name="astream">0</property>
  <property name="kdenlive:folderid">-1</property>
  <property name="kdenlive:id">10</property>
  <property name="kdenlive:clip_type">1</property>
  <property name="kdenlive:file_size">188166</property>
  <property name="kdenlive:file_hash">8d0c764137f9a9bdbacffa0757c98c25</property>
  <property name="kdenlive:audio_max0">163</property>
  <property name="meta.media.nb_streams">1</property>
  <property name="meta.media.0.stream.type">audio</property>
  <property name="meta.media.0.codec.sample_fmt">fltp</property>
  <property name="meta.media.0.codec.sample_rate">48000</property>
  <property name="meta.media.0.codec.channels">1</property>
  <property name="meta.media.0.codec.layout">mono</property>
  <property name="meta.media.0.codec.name">aac</property>
  <property name="meta.media.0.codec.long_name">AAC (Advanced Audio Coding)</property>
  <property name="meta.media.0.codec.bit_rate">237362</property>
  <property name="meta.attr.0.stream.creation_time.markup">2024-06-03T17:59:07.000000Z</property>
  <property name="meta.attr.0.stream.handler_name.markup">Core Media Audio</property>
  <property name="meta.attr.0.stream.vendor_id.markup">[0][0][0][0]</property>
  <property name="meta.attr.major_brand.markup">M4A </property>
  <property name="meta.attr.minor_version.markup">0</property>
  <property name="meta.attr.compatible_brands.markup">M4A isommp42</property>
  <property name="meta.attr.creation_time.markup">2024-06-03T17:59:07.000000Z</property>
  <property name="meta.attr.iTunSMPB.markup"> 00000000 00000840 00000000 0000000000048FC0 00000000 00000000 00000000 00000000 00000000 00000000 00000000 00000000</property>
  <property name="xml">was here</property>
  <property name="mute_on_pause">0</property>
  <property name="set.test_audio">0</property>
  <property name="set.test_image">1</property>
 </chain>
 <chain id="chain1" out="00:00:12.700">
  <property name="length">763</property>
  <property name="eof">pause</property>
  <property name="resource">other_assets/u3JsqnE5.m4a</property>
  <property name="mlt_service">avformat-novalidate</property>
  <property name="seekable">1</property>
  <property name="audio_index">0</property>
  <property name="video_index">-1</property>
  <property name="astream">0</property>
  <property name="kdenlive:folderid">-1</property>
  <property name="kdenlive:id">45</property>
  <property name="kdenlive:clip_type">1</property>
  <property name="kdenlive:file_size">395682</property>
  <property name="kdenlive:file_hash">fc63b0634dfb24f0ada8ab63424339eb</property>
  <property name="kdenlive:audio_max0">129</property>
  <property name="meta.media.nb_streams">1</property>
  <property name="meta.media.0.stream.type">audio</property>
  <property name="meta.media.0.codec.sample_fmt">fltp</property>
  <property name="meta.media.0.codec.sample_rate">48000</property>
  <property name="meta.media.0.codec.channels">1</property>
  <property name="meta.media.0.codec.layout">mono</property>
  <property name="meta.media.0.codec.name">aac</property>
  <property name="meta.media.0.codec.long_name">AAC (Advanced Audio Coding)</property>
  <property name="meta.media.0.codec.bit_rate">246880</property>
  <property name="meta.attr.0.stream.creation_time.markup">2024-06-04T01:29:13.000000Z</property>
  <property name="meta.attr.0.stream.handler_name.markup">Core Media Audio</property>
  <property name="meta.attr.0.stream.vendor_id.markup">[0][0][0][0]</property>
  <property name="meta.attr.major_brand.markup">M4A </property>
  <property name="meta.attr.minor_version.markup">0</property>
  <property name="meta.attr.compatible_brands.markup">M4A isommp42</property>
  <property name="meta.attr.creation_time.markup">2024-06-04T01:29:13.000000Z</property>
  <property name="meta.attr.iTunSMPB.markup"> 00000000 00000840 00000000 00000000000947C0 00000000 00000000 00000000 00000000 00000000 00000000 00000000 00000000</property>
  <property name="xml">was here</property>
  <property name="mute_on_pause">0</property>
  <property name="set.test_audio">0</property>
  <property name="set.test_image">1</property>
 </chain>
 <chain id="chain7" out="00:00:08.233">
  <property name="length">495</property>
  <property name="eof">pause</property>
  <property name="resource">other_assets/XP0qkJPd.m4a</property>
  <property name="mlt_service">avformat-novalidate</property>
  <property name="seekable">1</property>
  <property name="audio_index">0</property>
  <property name="video_index">-1</property>
  <property name="astream">0</property>
  <property name="kdenlive:folderid">-1</property>
  <property name="kdenlive:id">46</property>
  <property name="kdenlive:clip_type">1</property>
  <property name="kdenlive:file_size">244890</property>
  <property name="kdenlive:file_hash">8fdc1b3992157419d4be4875a1f0433a</property>
  <property name="kdenlive:audio_max0">114</property>
  <property name="meta.media.nb_streams">1</property>
  <property name="meta.media.0.stream.type">audio</property>
  <property name="meta.media.0.codec.sample_fmt">fltp</property>
  <property name="meta.media.0.codec.sample_rate">48000</property>
  <property name="meta.media.0.codec.channels">1</property>
  <property name="meta.media.0.codec.layout">mono</property>
  <property name="meta.media.0.codec.name">aac</property>
  <property name="meta.media.0.codec.long_name">AAC (Advanced Audio Coding)</property>
  <property name="meta.media.0.codec.bit_rate">234918</property>
  <property name="meta.attr.0.stream.creation_time.markup">2024-06-04T01:37:00.000000Z</property>
  <property name="meta.attr.0.stream.handler_name.markup">Core Media Audio</property>
  <property name="meta.attr.0.stream.vendor_id.markup">[0][0][0][0]</property>
  <property name="meta.attr.major_brand.markup">M4A </property>
  <property name="meta.attr.minor_version.markup">0</property>
  <property name="meta.attr.compatible_brands.markup">M4A isommp42</property>
  <property name="meta.attr.creation_time.markup">2024-06-04T01:37:00.000000Z</property>
  <property name="meta.attr.iTunSMPB.markup"> 00000000 00000840 00000000 00000000000603C0 00000000 00000000 00000000 00000000 00000000 00000000 00000000 00000000</property>
  <property name="xml">was here</property>
  <property name="mute_on_pause">0</property>
  <property name="set.test_audio">0</property>
  <property name="set.test_image">1</property>
 </chain>
 <chain id="chain8" out="00:00:08.617">
  <property name="length">518</property>
  <property name="eof">pause</property>
  <property name="resource">other_assets/ES1Hmikl.m4a</property>
  <property name="mlt_service">avformat-novalidate</property>
  <property name="seekable">1</property>
  <property name="audio_index">0</property>
  <property name="video_index">-1</property>
  <property name="astream">0</property>
  <property name="kdenlive:folderid">-1</property>
  <property name="kdenlive:id">47</property>
  <property name="kdenlive:clip_type">1</property>
  <property name="kdenlive:file_size">237400</property>
  <property name="kdenlive:file_hash">d00d4c4ebaa62d7a5c61d8671ce48da8</property>
  <property name="kdenlive:audio_max0">108</property>
  <property name="meta.media.nb_streams">1</property>
  <property name="meta.media.0.stream.type">audio</property>
  <property name="meta.media.0.codec.sample_fmt">fltp</property>
  <property name="meta.media.0.codec.sample_rate">48000</property>
  <property name="meta.media.0.codec.channels">1</property>
  <property name="meta.media.0.codec.layout">mono</property>
  <property name="meta.media.0.codec.name">aac</property>
  <property name="meta.media.0.codec.long_name">AAC (Advanced Audio Coding)</property>
  <property name="meta.media.0.codec.bit_rate">217475</property>
  <property name="meta.attr.0.stream.creation_time.markup">2024-06-04T01:39:23.000000Z</property>
  <property name="meta.attr.0.stream.handler_name.markup">Core Media Audio</property>
  <property name="meta.attr.0.stream.vendor_id.markup">[0][0][0][0]</property>
  <property name="meta.attr.major_brand.markup">M4A </property>
  <property name="meta.attr.minor_version.markup">0</property>
  <property name="meta.attr.compatible_brands.markup">M4A isommp42</property>
  <property name="meta.attr.creation_time.markup">2024-06-04T01:39:23.000000Z</property>
  <property name="meta.attr.iTunSMPB.markup"> 00000000 00000840 00000000 0000000000064BC0 00000000 00000000 00000000 00000000 00000000 00000000 00000000 00000000</property>
  <property name="xml">was here</property>
  <property name="mute_on_pause">0</property>
  <property name="set.test_audio">0</property>
  <property name="set.test_image">1</property>
 </chain>
 <chain id="chain9" out="00:00:02.500">
  <property name="length">151</property>
  <property name="eof">pause</property>
  <property name="resource">other_assets/7VyhG2hY.m4a</property>
  <property name="mlt_service">avformat-novalidate</property>
  <property name="seekable">1</property>
  <property name="audio_index">0</property>
  <property name="video_index">-1</property>
  <property name="astream">0</property>
  <property name="kdenlive:folderid">-1</property>
  <property name="kdenlive:id">48</property>
  <property name="kdenlive:clip_type">1</property>
  <property name="kdenlive:file_size">74686</property>
  <property name="kdenlive:file_hash">9de9c9f863deba95254ab1ef65e1e7d7</property>
  <property name="kdenlive:audio_max0">138</property>
  <property name="meta.media.nb_streams">1</property>
  <property name="meta.media.0.stream.type">audio</property>
  <property name="meta.media.0.codec.sample_fmt">fltp</property>
  <property name="meta.media.0.codec.sample_rate">48000</property>
  <property name="meta.media.0.codec.channels">1</property>
  <property name="meta.media.0.codec.layout">mono</property>
  <property name="meta.media.0.codec.name">aac</property>
  <property name="meta.media.0.codec.long_name">AAC (Advanced Audio Coding)</property>
  <property name="meta.media.0.codec.bit_rate">233046</property>
  <property name="meta.attr.0.stream.creation_time.markup">2024-06-04T01:40:36.000000Z</property>
  <property name="meta.attr.0.stream.handler_name.markup">Core Media Audio</property>
  <property name="meta.attr.0.stream.vendor_id.markup">[0][0][0][0]</property>
  <property name="meta.attr.major_brand.markup">M4A </property>
  <property name="meta.attr.minor_version.markup">0</property>
  <property name="meta.attr.compatible_brands.markup">M4A isommp42</property>
  <property name="meta.attr.creation_time.markup">2024-06-04T01:40:36.000000Z</property>
  <property name="meta.attr.iTunSMPB.markup"> 00000000 00000840 00000000 000000000001CFC0 00000000 00000000 00000000 00000000 00000000 00000000 00000000 00000000</property>
  <property name="xml">was here</property>
  <property name="mute_on_pause">0</property>
  <property name="set.test_audio">0</property>
  <property name="set.test_image">1</property>
 </chain>
 <chain id="chain10" out="00:00:04.867">
  <property name="length">293</property>
  <property name="eof">pause</property>
  <property name="resource">other_assets/c3YLsuIS.m4a</property>
  <property name="mlt_service">avformat-novalidate</property>
  <property name="seekable">1</property>
  <property name="audio_index">0</property>
  <property name="video_index">-1</property>
  <property name="astream">0</property>
  <property name="kdenlive:folderid">-1</property>
  <property name="kdenlive:id">49</property>
  <property name="kdenlive:clip_type">1</property>
  <property name="kdenlive:file_size">135585</property>
  <property name="kdenlive:file_hash">52f8dd286d91f42f9f2637080c222fdc</property>
  <property name="kdenlive:audio_max0">108</property>
  <property name="meta.media.nb_streams">1</property>
  <property name="meta.media.0.stream.type">audio</property>
  <property name="meta.media.0.codec.sample_fmt">fltp</property>
  <property name="meta.media.0.codec.sample_rate">48000</property>
  <property name="meta.media.0.codec.channels">1</property>
  <property name="meta.media.0.codec.layout">mono</property>
  <property name="meta.media.0.codec.name">aac</property>
  <property name="meta.media.0.codec.long_name">AAC (Advanced Audio Coding)</property>
  <property name="meta.media.0.codec.bit_rate">219070</property>
  <property name="meta.attr.0.stream.creation_time.markup">2024-06-04T01:41:52.000000Z</property>
  <property name="meta.attr.0.stream.handler_name.markup">Core Media Audio</property>
  <property name="meta.attr.0.stream.vendor_id.markup">[0][0][0][0]</property>
  <property name="meta.attr.major_brand.markup">M4A </property>
  <property name="meta.attr.minor_version.markup">0</property>
  <property name="meta.attr.compatible_brands.markup">M4A isommp42</property>
  <property name="meta.attr.creation_time.markup">2024-06-04T01:41:52.000000Z</property>
  <property name="meta.attr.iTunSMPB.markup"> 00000000 00000840 00000000 0000000000038BC0 00000000 00000000 00000000 00000000 00000000 00000000 00000000 00000000</property>
  <property name="xml">was here</property>
  <property name="mute_on_pause">0</property>
  <property name="set.test_audio">0</property>
  <property name="set.test_image">1</property>
 </chain>
 <chain id="chain3" out="00:00:04.917">
  <property name="length">296</property>
  <property name="eof">pause</property>
  <property name="resource">other_assets/CXGemnSN.m4a</property>
  <property name="mlt_service">avformat-novalidate</property>
  <property name="seekable">1</property>
  <property name="audio_index">0</property>
  <property name="video_index">-1</property>
  <property name="astream">0</property>
  <property name="kdenlive:folderid">-1</property>
  <property name="kdenlive:id">57</property>
  <property name="kdenlive:clip_type">1</property>
  <property name="kdenlive:file_size">131746</property>
  <property name="kdenlive:file_hash">1c3255a69aa28ac723acbc7489a2769a</property>
  <property name="kdenlive:audio_max0">98</property>
  <property name="meta.media.nb_streams">1</property>
  <property name="meta.media.0.stream.type">audio</property>
  <property name="meta.media.0.codec.sample_fmt">fltp</property>
  <property name="meta.media.0.codec.sample_rate">48000</property>
  <property name="meta.media.0.codec.channels">1</property>
  <property name="meta.media.0.codec.layout">mono</property>
  <property name="meta.media.0.codec.name">aac</property>
  <property name="meta.media.0.codec.long_name">AAC (Advanced Audio Coding)</property>
  <property name="meta.media.0.codec.bit_rate">210922</property>
  <property name="meta.attr.0.stream.creation_time.markup">2024-06-04T02:21:00.000000Z</property>
  <property name="meta.attr.0.stream.handler_name.markup">Core Media Audio</property>
  <property name="meta.attr.0.stream.vendor_id.markup">[0][0][0][0]</property>
  <property name="meta.attr.major_brand.markup">M4A </property>
  <property name="meta.attr.minor_version.markup">0</property>
  <property name="meta.attr.compatible_brands.markup">M4A isommp42</property>
  <property name="meta.attr.creation_time.markup">2024-06-04T02:21:00.000000Z</property>
  <property name="meta.attr.iTunSMPB.markup"> 00000000 00000840 00000000 00000000000393C0 00000000 00000000 00000000 00000000 00000000 00000000 00000000 00000000</property>
  <property name="xml">was here</property>
  <property name="mute_on_pause">0</property>
  <property name="set.test_audio">0</property>
  <property name="set.test_image">1</property>
 </chain>
 <chain id="chain6" out="00:00:07.600">
  <property name="length">457</property>
  <property name="eof">pause</property>
  <property name="resource">other_assets/kcR57Ma6.m4a</property>
  <property name="mlt_service">avformat-novalidate</property>
  <property name="seekable">1</property>
  <property name="audio_index">0</property>
  <property name="video_index">-1</property>
  <property name="astream">0</property>
  <property name="kdenlive:folderid">-1</property>
  <property name="kdenlive:id">55</property>
  <property name="kdenlive:clip_type">1</property>
  <property name="kdenlive:file_size">231646</property>
  <property name="kdenlive:file_hash">c4fbde0566e7f83dac995e76e027f9f0</property>
  <property name="kdenlive:audio_max0">130</property>
  <property name="kdenlive:zone_in">39</property>
  <property name="kdenlive:zone_out">391</property>
  <property name="meta.media.nb_streams">1</property>
  <property name="meta.media.0.stream.type">audio</property>
  <property name="meta.media.0.codec.sample_fmt">fltp</property>
  <property name="meta.media.0.codec.sample_rate">48000</property>
  <property name="meta.media.0.codec.channels">1</property>
  <property name="meta.media.0.codec.layout">mono</property>
  <property name="meta.media.0.codec.name">aac</property>
  <property name="meta.media.0.codec.long_name">AAC (Advanced Audio Coding)</property>
  <property name="meta.media.0.codec.bit_rate">240878</property>
  <property name="meta.attr.0.stream.creation_time.markup">2024-06-04T02:15:05.000000Z</property>
  <property name="meta.attr.0.stream.handler_name.markup">Core Media Audio</property>
  <property name="meta.attr.0.stream.vendor_id.markup">[0][0][0][0]</property>
  <property name="meta.attr.major_brand.markup">M4A </property>
  <property name="meta.attr.minor_version.markup">0</property>
  <property name="meta.attr.compatible_brands.markup">M4A isommp42</property>
  <property name="meta.attr.creation_time.markup">2024-06-04T02:15:05.000000Z</property>
  <property name="meta.attr.iTunSMPB.markup"> 00000000 00000840 00000000 0000000000058BC0 00000000 00000000 00000000 00000000 00000000 00000000 00000000 00000000</property>
  <property name="xml">was here</property>
  <property name="mute_on_pause">0</property>
  <property name="set.test_audio">0</property>
  <property name="set.test_image">1</property>
 </chain>
 <chain id="chain11" out="00:00:08.050">
  <property name="length">484</property>
  <property name="eof">pause</property>
  <property name="resource">other_assets/VoTma1kF.m4a</property>
  <property name="mlt_service">avformat-novalidate</property>
  <property name="seekable">1</property>
  <property name="audio_index">0</property>
  <property name="video_index">-1</property>
  <property name="astream">0</property>
  <property name="kdenlive:folderid">-1</property>
  <property name="kdenlive:id">56</property>
  <property name="kdenlive:clip_type">1</property>
  <property name="kdenlive:file_size">229180</property>
  <property name="kdenlive:file_hash">76163d9150af5ec985693878559ba14e</property>
  <property name="kdenlive:audio_max0">133</property>
  <property name="kdenlive:zone_in">56</property>
  <property name="kdenlive:zone_out">276</property>
  <property name="meta.media.nb_streams">1</property>
  <property name="meta.media.0.stream.type">audio</property>
  <property name="meta.media.0.codec.sample_fmt">fltp</property>
  <property name="meta.media.0.codec.sample_rate">48000</property>
  <property name="meta.media.0.codec.channels">1</property>
  <property name="meta.media.0.codec.layout">mono</property>
  <property name="meta.media.0.codec.name">aac</property>
  <property name="meta.media.0.codec.long_name">AAC (Advanced Audio Coding)</property>
  <property name="meta.media.0.codec.bit_rate">224962</property>
  <property name="meta.attr.0.stream.creation_time.markup">2024-06-04T02:17:59.000000Z</property>
  <property name="meta.attr.0.stream.handler_name.markup">Core Media Audio</property>
  <property name="meta.attr.0.stream.vendor_id.markup">[0][0][0][0]</property>
  <property name="meta.attr.major_brand.markup">M4A </property>
  <property name="meta.attr.minor_version.markup">0</property>
  <property name="meta.attr.compatible_brands.markup">M4A isommp42</property>
  <property name="meta.attr.creation_time.markup">2024-06-04T02:17:59.000000Z</property>
  <property name="meta.attr.iTunSMPB.markup"> 00000000 00000840 00000000 000000000005DFC0 00000000 00000000 00000000 00000000 00000000 00000000 00000000 00000000</property>
  <property name="xml">was here</property>
  <property name="mute_on_pause">0</property>
  <property name="set.test_audio">0</property>
  <property name="set.test_image">1</property>
 </chain>
 <chain id="chain13" out="00:00:10.217">
  <property name="length">614</property>
  <property name="eof">pause</property>
  <property name="resource">other_assets/RS839Ge9.m4a</property>
  <property name="mlt_service">avformat-novalidate</property>
  <property name="seekable">1</property>
  <property name="audio_index">0</property>
  <property name="video_index">-1</property>
  <property name="astream">0</property>
  <property name="kdenlive:folderid">-1</property>
  <property name="kdenlive:id">18</property>
  <property name="kdenlive:clip_type">1</property>
  <property name="kdenlive:file_size">319088</property>
  <property name="kdenlive:file_hash">32282cfec2dad65dac036f934907a085</property>
  <property name="kdenlive:audio_max0">126</property>
  <property name="meta.media.nb_streams">1</property>
  <property name="meta.media.0.stream.type">audio</property>
  <property name="meta.media.0.codec.sample_fmt">fltp</property>
  <property name="meta.media.0.codec.sample_rate">48000</property>
  <property name="meta.media.0.codec.channels">1</property>
  <property name="meta.media.0.codec.layout">mono</property>
  <property name="meta.media.0.codec.name">aac</property>
  <property name="meta.media.0.codec.long_name">AAC (Advanced Audio Coding)</property>
  <property name="meta.media.0.codec.bit_rate">247073</property>
  <property name="meta.attr.0.stream.creation_time.markup">2024-06-03T18:27:06.000000Z</property>
  <property name="meta.attr.0.stream.handler_name.markup">Core Media Audio</property>
  <property name="meta.attr.0.stream.vendor_id.markup">[0][0][0][0]</property>
  <property name="meta.attr.major_brand.markup">M4A </property>
  <property name="meta.attr.minor_version.markup">0</property>
  <property name="meta.attr.compatible_brands.markup">M4A isommp42</property>
  <property name="meta.attr.creation_time.markup">2024-06-03T18:27:06.000000Z</property>
  <property name="meta.attr.iTunSMPB.markup"> 00000000 00000840 00000000 00000000000777C0 00000000 00000000 00000000 00000000 00000000 00000000 00000000 00000000</property>
  <property name="xml">was here</property>
  <property name="mute_on_pause">0</property>
  <property name="set.test_audio">0</property>
  <property name="set.test_image">1</property>
 </chain>
 <chain id="chain14" out="00:00:32.183">
  <property name="length">1932</property>
  <property name="eof">pause</property>
  <property name="resource">other_assets/1fx79syU.m4a</property>
  <property name="mlt_service">avformat-novalidate</property>
  <property name="seekable">1</property>
  <property name="audio_index">0</property>
  <property name="video_index">-1</property>
  <property name="astream">0</property>
  <property name="kdenlive:folderid">-1</property>
  <property name="kdenlive:id">19</property>
  <property name="kdenlive:clip_type">1</property>
  <property name="kdenlive:file_size">981167</property>
  <property name="kdenlive:file_hash">a866c7ecdd1fe379e62c2b1f4fb177a3</property>
  <property name="kdenlive:audio_max0">116</property>
  <property name="meta.media.nb_streams">1</property>
  <property name="meta.media.0.stream.type">audio</property>
  <property name="meta.media.0.codec.sample_fmt">fltp</property>
  <property name="meta.media.0.codec.sample_rate">48000</property>
  <property name="meta.media.0.codec.channels">1</property>
  <property name="meta.media.0.codec.layout">mono</property>
  <property name="meta.media.0.codec.name">aac</property>
  <property name="meta.media.0.codec.long_name">AAC (Advanced Audio Coding)</property>
  <property name="meta.media.0.codec.bit_rate">242079</property>
  <property name="meta.attr.0.stream.creation_time.markup">2024-06-03T18:30:16.000000Z</property>
  <property name="meta.attr.0.stream.handler_name.markup">Core Media Audio</property>
  <property name="meta.attr.0.stream.vendor_id.markup">[0][0][0][0]</property>
  <property name="meta.attr.major_brand.markup">M4A </property>
  <property name="meta.attr.minor_version.markup">0</property>
  <property name="meta.attr.compatible_brands.markup">M4A isommp42</property>
  <property name="meta.attr.creation_time.markup">2024-06-03T18:30:16.000000Z</property>
  <property name="meta.attr.iTunSMPB.markup"> 00000000 00000840 00000000 0000000000178BC0 00000000 00000000 00000000 00000000 00000000 00000000 00000000 00000000</property>
  <property name="xml">was here</property>
  <property name="mute_on_pause">0</property>
  <property name="set.test_audio">0</property>
  <property name="set.test_image">1</property>
 </chain>
 <chain id="chain12" out="00:00:02.850">
  <property name="length">172</property>
  <property name="eof">pause</property>
  <property name="resource">other_assets/iVoFUIVQ.m4a</property>
  <property name="mlt_service">avformat-novalidate</property>
  <property name="seekable">1</property>
  <property name="audio_index">0</property>
  <property name="video_index">-1</property>
  <property name="astream">0</property>
  <property name="kdenlive:folderid">-1</property>
  <property name="kdenlive:id">60</property>
  <property name="kdenlive:clip_type">1</property>
  <property name="kdenlive:file_size">88978</property>
  <property name="kdenlive:file_hash">4a09873bac22e3fb9ba27e2398287adf</property>
  <property name="kdenlive:audio_max0">96</property>
  <property name="meta.media.nb_streams">1</property>
  <property name="meta.media.0.stream.type">audio</property>
  <property name="meta.media.0.codec.sample_fmt">fltp</property>
  <property name="meta.media.0.codec.sample_rate">48000</property>
  <property name="meta.media.0.codec.channels">1</property>
  <property name="meta.media.0.codec.layout">mono</property>
  <property name="meta.media.0.codec.name">aac</property>
  <property name="meta.media.0.codec.long_name">AAC (Advanced Audio Coding)</property>
  <property name="meta.media.0.codec.bit_rate">245037</property>
  <property name="meta.attr.0.stream.creation_time.markup">2024-06-04T02:45:59.000000Z</property>
  <property name="meta.attr.0.stream.handler_name.markup">Core Media Audio</property>
  <property name="meta.attr.0.stream.vendor_id.markup">[0][0][0][0]</property>
  <property name="meta.attr.major_brand.markup">M4A </property>
  <property name="meta.attr.minor_version.markup">0</property>
  <property name="meta.attr.compatible_brands.markup">M4A isommp42</property>
  <property name="meta.attr.creation_time.markup">2024-06-04T02:45:59.000000Z</property>
  <property name="meta.attr.iTunSMPB.markup"> 00000000 00000840 00000000 0000000000020FC0 00000000 00000000 00000000 00000000 00000000 00000000 00000000 00000000</property>
  <property name="xml">was here</property>
  <property name="mute_on_pause">0</property>
  <property name="set.test_audio">0</property>
  <property name="set.test_image">1</property>
 </chain>
 <chain id="chain15" out="00:00:17.683">
  <property name="length">1062</property>
  <property name="eof">pause</property>
  <property name="resource">other_assets/tj0qITRf.m4a</property>
  <property name="mlt_service">avformat-novalidate</property>
  <property name="seekable">1</property>
  <property name="audio_index">0</property>
  <property name="video_index">-1</property>
  <property name="astream">0</property>
  <property name="kdenlive:folderid">-1</property>
  <property name="kdenlive:id">20</property>
  <property name="kdenlive:clip_type">1</property>
  <property name="kdenlive:file_size">536977</property>
  <property name="kdenlive:file_hash">7ad76bb27683e7a82f682caa5e0aa64a</property>
  <property name="kdenlive:audio_max0">144</property>
  <property name="meta.media.nb_streams">1</property>
  <property name="meta.media.0.stream.type">audio</property>
  <property name="meta.media.0.codec.sample_fmt">fltp</property>
  <property name="meta.media.0.codec.sample_rate">48000</property>
  <property name="meta.media.0.codec.channels">1</property>
  <property name="meta.media.0.codec.layout">mono</property>
  <property name="meta.media.0.codec.name">aac</property>
  <property name="meta.media.0.codec.long_name">AAC (Advanced Audio Coding)</property>
  <property name="meta.media.0.codec.bit_rate">240682</property>
  <property name="meta.attr.0.stream.creation_time.markup">2024-06-03T18:42:14.000000Z</property>
  <property name="meta.attr.0.stream.handler_name.markup">Core Media Audio</property>
  <property name="meta.attr.0.stream.vendor_id.markup">[0][0][0][0]</property>
  <property name="meta.attr.major_brand.markup">M4A </property>
  <property name="meta.attr.minor_version.markup">0</property>
  <property name="meta.attr.compatible_brands.markup">M4A isommp42</property>
  <property name="meta.attr.creation_time.markup">2024-06-03T18:42:14.000000Z</property>
  <property name="meta.attr.iTunSMPB.markup"> 00000000 00000840 00000000 00000000000CEFC0 00000000 00000000 00000000 00000000 00000000 00000000 00000000 00000000</property>
  <property name="xml">was here</property>
  <property name="mute_on_pause">0</property>
  <property name="set.test_audio">0</property>
  <property name="set.test_image">1</property>
 </chain>
 <chain id="chain16" out="00:00:11.167">
  <property name="length">671</property>
  <property name="eof">pause</property>
  <property name="resource">other_assets/0byv72cG.m4a</property>
  <property name="mlt_service">avformat-novalidate</property>
  <property name="seekable">1</property>
  <property name="audio_index">0</property>
  <property name="video_index">-1</property>
  <property name="astream">0</property>
  <property name="kdenlive:folderid">-1</property>
  <property name="kdenlive:id">21</property>
  <property name="kdenlive:clip_type">1</property>
  <property name="kdenlive:file_size">335566</property>
  <property name="kdenlive:file_hash">59fb4bf979391e272761e56774cc7536</property>
  <property name="kdenlive:audio_max0">118</property>
  <property name="meta.media.nb_streams">1</property>
  <property name="meta.media.0.stream.type">audio</property>
  <property name="meta.media.0.codec.sample_fmt">fltp</property>
  <property name="meta.media.0.codec.sample_rate">48000</property>
  <property name="meta.media.0.codec.channels">1</property>
  <property name="meta.media.0.codec.layout">mono</property>
  <property name="meta.media.0.codec.name">aac</property>
  <property name="meta.media.0.codec.long_name">AAC (Advanced Audio Coding)</property>
  <property name="meta.media.0.codec.bit_rate">237990</property>
  <property name="meta.attr.0.stream.creation_time.markup">2024-06-03T18:45:22.000000Z</property>
  <property name="meta.attr.0.stream.handler_name.markup">Core Media Audio</property>
  <property name="meta.attr.0.stream.vendor_id.markup">[0][0][0][0]</property>
  <property name="meta.attr.major_brand.markup">M4A </property>
  <property name="meta.attr.minor_version.markup">0</property>
  <property name="meta.attr.compatible_brands.markup">M4A isommp42</property>
  <property name="meta.attr.creation_time.markup">2024-06-03T18:45:22.000000Z</property>
  <property name="meta.attr.iTunSMPB.markup"> 00000000 00000840 00000000 00000000000827C0 00000000 00000000 00000000 00000000 00000000 00000000 00000000 00000000</property>
  <property name="xml">was here</property>
  <property name="mute_on_pause">0</property>
  <property name="set.test_audio">0</property>
  <property name="set.test_image">1</property>
 </chain>
 <chain id="chain17" out="00:00:07.300">
  <property name="length">439</property>
  <property name="eof">pause</property>
  <property name="resource">other_assets/wJVZHHRz.m4a</property>
  <property name="mlt_service">avformat-novalidate</property>
  <property name="seekable">1</property>
  <property name="audio_index">0</property>
  <property name="video_index">-1</property>
  <property name="astream">0</property>
  <property name="kdenlive:folderid">-1</property>
  <property name="kdenlive:id">50</property>
  <property name="kdenlive:clip_type">1</property>
  <property name="kdenlive:file_size">215119</property>
  <property name="kdenlive:file_hash">e8f8d00e307e62aec4f4f7614b2da91d</property>
  <property name="kdenlive:audio_max0">121</property>
  <property name="meta.media.nb_streams">1</property>
  <property name="meta.media.0.stream.type">audio</property>
  <property name="meta.media.0.codec.sample_fmt">fltp</property>
  <property name="meta.media.0.codec.sample_rate">48000</property>
  <property name="meta.media.0.codec.channels">1</property>
  <property name="meta.media.0.codec.layout">mono</property>
  <property name="meta.media.0.codec.name">aac</property>
  <property name="meta.media.0.codec.long_name">AAC (Advanced Audio Coding)</property>
  <property name="meta.media.0.codec.bit_rate">232702</property>
  <property name="meta.attr.0.stream.creation_time.markup">2024-06-04T01:53:01.000000Z</property>
  <property name="meta.attr.0.stream.handler_name.markup">Core Media Audio</property>
  <property name="meta.attr.0.stream.vendor_id.markup">[0][0][0][0]</property>
  <property name="meta.attr.major_brand.markup">M4A </property>
  <property name="meta.attr.minor_version.markup">0</property>
  <property name="meta.attr.compatible_brands.markup">M4A isommp42</property>
  <property name="meta.attr.creation_time.markup">2024-06-04T01:53:01.000000Z</property>
  <property name="meta.attr.iTunSMPB.markup"> 00000000 00000840 00000000 00000000000553C0 00000000 00000000 00000000 00000000 00000000 00000000 00000000 00000000</property>
  <property name="xml">was here</property>
  <property name="mute_on_pause">0</property>
  <property name="set.test_audio">0</property>
  <property name="set.test_image">1</property>
 </chain>
 <chain id="chain19" out="00:00:13.400">
  <property name="length">805</property>
  <property name="eof">pause</property>
  <property name="resource">other_assets/GkB1r2oS.m4a</property>
  <property name="mlt_service">avformat-novalidate</property>
  <property name="seekable">1</property>
  <property name="audio_index">0</property>
  <property name="video_index">-1</property>
  <property name="astream">0</property>
  <property name="kdenlive:folderid">-1</property>
  <property name="kdenlive:id">29</property>
  <property name="kdenlive:clip_type">1</property>
  <property name="kdenlive:file_size">409547</property>
  <property name="kdenlive:file_hash">10207cc7cc2f837a546b7033780f9da8</property>
  <property name="kdenlive:audio_max0">124</property>
  <property name="meta.media.nb_streams">1</property>
  <property name="meta.media.0.stream.type">audio</property>
  <property name="meta.media.0.codec.sample_fmt">fltp</property>
  <property name="meta.media.0.codec.sample_rate">48000</property>
  <property name="meta.media.0.codec.channels">1</property>
  <property name="meta.media.0.codec.layout">mono</property>
  <property name="meta.media.0.codec.name">aac</property>
  <property name="meta.media.0.codec.long_name">AAC (Advanced Audio Coding)</property>
  <property name="meta.media.0.codec.bit_rate">242113</property>
  <property name="meta.attr.0.stream.creation_time.markup">2024-06-03T19:07:28.000000Z</property>
  <property name="meta.attr.0.stream.handler_name.markup">Core Media Audio</property>
  <property name="meta.attr.0.stream.vendor_id.markup">[0][0][0][0]</property>
  <property name="meta.attr.major_brand.markup">M4A </property>
  <property name="meta.attr.minor_version.markup">0</property>
  <property name="meta.attr.compatible_brands.markup">M4A isommp42</property>
  <property name="meta.attr.creation_time.markup">2024-06-03T19:07:28.000000Z</property>
  <property name="meta.attr.iTunSMPB.markup"> 00000000 00000840 00000000 000000000009CBC0 00000000 00000000 00000000 00000000 00000000 00000000 00000000 00000000</property>
  <property name="xml">was here</property>
  <property name="mute_on_pause">0</property>
  <property name="set.test_audio">0</property>
  <property name="set.test_image">1</property>
 </chain>
 <chain id="chain20" out="00:00:10.950">
  <property name="length">658</property>
  <property name="eof">pause</property>
  <property name="resource">other_assets/4fBwa5AV.m4a</property>
  <property name="mlt_service">avformat-novalidate</property>
  <property name="seekable">1</property>
  <property name="audio_index">0</property>
  <property name="video_index">-1</property>
  <property name="astream">0</property>
  <property name="kdenlive:folderid">-1</property>
  <property name="kdenlive:id">30</property>
  <property name="kdenlive:clip_type">1</property>
  <property name="kdenlive:file_size">330814</property>
  <property name="kdenlive:file_hash">442486d7fe9f9505e8dfe31022227919</property>
  <property name="kdenlive:audio_max0">136</property>
  <property name="meta.media.nb_streams">1</property>
  <property name="meta.media.0.stream.type">audio</property>
  <property name="meta.media.0.codec.sample_fmt">fltp</property>
  <property name="meta.media.0.codec.sample_rate">48000</property>
  <property name="meta.media.0.codec.channels">1</property>
  <property name="meta.media.0.codec.layout">mono</property>
  <property name="meta.media.0.codec.name">aac</property>
  <property name="meta.media.0.codec.long_name">AAC (Advanced Audio Coding)</property>
  <property name="meta.media.0.codec.bit_rate">239182</property>
  <property name="meta.attr.0.stream.creation_time.markup">2024-06-03T19:09:02.000000Z</property>
  <property name="meta.attr.0.stream.handler_name.markup">Core Media Audio</property>
  <property name="meta.attr.0.stream.vendor_id.markup">[0][0][0][0]</property>
  <property name="meta.attr.major_brand.markup">M4A </property>
  <property name="meta.attr.minor_version.markup">0</property>
  <property name="meta.attr.compatible_brands.markup">M4A isommp42</property>
  <property name="meta.attr.creation_time.markup">2024-06-03T19:09:02.000000Z</property>
  <property name="meta.attr.iTunSMPB.markup"> 00000000 00000840 00000000 000000000007FFC0 00000000 00000000 00000000 00000000 00000000 00000000 00000000 00000000</property>
  <property name="xml">was here</property>
  <property name="mute_on_pause">0</property>
  <property name="set.test_audio">0</property>
  <property name="set.test_image">1</property>
 </chain>
 <chain id="chain21" out="00:00:12.950">
  <property name="length">778</property>
  <property name="eof">pause</property>
  <property name="resource">other_assets/xiUPier1.m4a</property>
  <property name="mlt_service">avformat-novalidate</property>
  <property name="seekable">1</property>
  <property name="audio_index">0</property>
  <property name="video_index">-1</property>
  <property name="astream">0</property>
  <property name="kdenlive:folderid">-1</property>
  <property name="kdenlive:id">31</property>
  <property name="kdenlive:clip_type">1</property>
  <property name="kdenlive:file_size">400277</property>
  <property name="kdenlive:file_hash">9b202f2da8c6ab4286b3e38eda26e28e</property>
  <property name="kdenlive:audio_max0">129</property>
  <property name="meta.media.nb_streams">1</property>
  <property name="meta.media.0.stream.type">audio</property>
  <property name="meta.media.0.codec.sample_fmt">fltp</property>
  <property name="meta.media.0.codec.sample_rate">48000</property>
  <property name="meta.media.0.codec.channels">1</property>
  <property name="meta.media.0.codec.layout">mono</property>
  <property name="meta.media.0.codec.name">aac</property>
  <property name="meta.media.0.codec.long_name">AAC (Advanced Audio Coding)</property>
  <property name="meta.media.0.codec.bit_rate">244810</property>
  <property name="meta.attr.0.stream.creation_time.markup">2024-06-03T19:11:09.000000Z</property>
  <property name="meta.attr.0.stream.handler_name.markup">Core Media Audio</property>
  <property name="meta.attr.0.stream.vendor_id.markup">[0][0][0][0]</property>
  <property name="meta.attr.major_brand.markup">M4A </property>
  <property name="meta.attr.minor_version.markup">0</property>
  <property name="meta.attr.compatible_brands.markup">M4A isommp42</property>
  <property name="meta.attr.creation_time.markup">2024-06-03T19:11:09.000000Z</property>
  <property name="meta.attr.iTunSMPB.markup"> 00000000 00000840 00000000 00000000000977C0 00000000 00000000 00000000 00000000 00000000 00000000 00000000 00000000</property>
  <property name="xml">was here</property>
  <property name="mute_on_pause">0</property>
  <property name="set.test_audio">0</property>
  <property name="set.test_image">1</property>
 </chain>
 <chain id="chain22" out="00:00:26.183">
  <property name="length">1572</property>
  <property name="eof">pause</property>
  <property name="resource">other_assets/YWc9HoKF.m4a</property>
  <property name="mlt_service">avformat-novalidate</property>
  <property name="seekable">1</property>
  <property name="audio_index">0</property>
  <property name="video_index">-1</property>
  <property name="astream">0</property>
  <property name="kdenlive:folderid">-1</property>
  <property name="kdenlive:id">32</property>
  <property name="kdenlive:clip_type">1</property>
  <property name="kdenlive:file_size">804982</property>
  <property name="kdenlive:file_hash">3829f6f5916b3c8ad755f2b2c195532f</property>
  <property name="kdenlive:audio_max0">117</property>
  <property name="meta.media.nb_streams">1</property>
  <property name="meta.media.0.stream.type">audio</property>
  <property name="meta.media.0.codec.sample_fmt">fltp</property>
  <property name="meta.media.0.codec.sample_rate">48000</property>
  <property name="meta.media.0.codec.channels">1</property>
  <property name="meta.media.0.codec.layout">mono</property>
  <property name="meta.media.0.codec.name">aac</property>
  <property name="meta.media.0.codec.long_name">AAC (Advanced Audio Coding)</property>
  <property name="meta.media.0.codec.bit_rate">244022</property>
  <property name="meta.attr.0.stream.creation_time.markup">2024-06-03T19:16:35.000000Z</property>
  <property name="meta.attr.0.stream.handler_name.markup">Core Media Audio</property>
  <property name="meta.attr.0.stream.vendor_id.markup">[0][0][0][0]</property>
  <property name="meta.attr.major_brand.markup">M4A </property>
  <property name="meta.attr.minor_version.markup">0</property>
  <property name="meta.attr.compatible_brands.markup">M4A isommp42</property>
  <property name="meta.attr.creation_time.markup">2024-06-03T19:16:35.000000Z</property>
  <property name="meta.attr.iTunSMPB.markup"> 00000000 00000840 00000000 00000000001327C0 00000000 00000000 00000000 00000000 00000000 00000000 00000000 00000000</property>
  <property name="xml">was here</property>
  <property name="mute_on_pause">0</property>
  <property name="set.test_audio">0</property>
  <property name="set.test_image">1</property>
 </chain>
 <chain id="chain23" out="00:00:11.567">
  <property name="length">695</property>
  <property name="eof">pause</property>
  <property name="resource">other_assets/ixi4mPPT.m4a</property>
  <property name="mlt_service">avformat-novalidate</property>
  <property name="seekable">1</property>
  <property name="audio_index">0</property>
  <property name="video_index">-1</property>
  <property name="astream">0</property>
  <property name="kdenlive:folderid">-1</property>
  <property name="kdenlive:id">33</property>
  <property name="kdenlive:clip_type">1</property>
  <property name="kdenlive:file_size">354620</property>
  <property name="kdenlive:file_hash">0142cfa5339e3053dbe3ef42d124c0ac</property>
  <property name="kdenlive:audio_max0">129</property>
  <property name="meta.media.nb_streams">1</property>
  <property name="meta.media.0.stream.type">audio</property>
  <property name="meta.media.0.codec.sample_fmt">fltp</property>
  <property name="meta.media.0.codec.sample_rate">48000</property>
  <property name="meta.media.0.codec.channels">1</property>
  <property name="meta.media.0.codec.layout">mono</property>
  <property name="meta.media.0.codec.name">aac</property>
  <property name="meta.media.0.codec.long_name">AAC (Advanced Audio Coding)</property>
  <property name="meta.media.0.codec.bit_rate">242769</property>
  <property name="meta.attr.0.stream.creation_time.markup">2024-06-03T19:18:55.000000Z</property>
  <property name="meta.attr.0.stream.handler_name.markup">Core Media Audio</property>
  <property name="meta.attr.0.stream.vendor_id.markup">[0][0][0][0]</property>
  <property name="meta.attr.major_brand.markup">M4A </property>
  <property name="meta.attr.minor_version.markup">0</property>
  <property name="meta.attr.compatible_brands.markup">M4A isommp42</property>
  <property name="meta.attr.creation_time.markup">2024-06-03T19:18:55.000000Z</property>
  <property name="meta.attr.iTunSMPB.markup"> 00000000 00000840 00000000 00000000000873C0 00000000 00000000 00000000 00000000 00000000 00000000 00000000 00000000</property>
  <property name="xml">was here</property>
  <property name="mute_on_pause">0</property>
  <property name="set.test_audio">0</property>
  <property name="set.test_image">1</property>
 </chain>
 <chain id="chain24" out="00:00:19.517">
  <property name="length">1172</property>
  <property name="eof">pause</property>
  <property name="resource">other_assets/UxthtROW.m4a</property>
  <property name="mlt_service">avformat-novalidate</property>
  <property name="seekable">1</property>
  <property name="audio_index">0</property>
  <property name="video_index">-1</property>
  <property name="astream">0</property>
  <property name="kdenlive:folderid">-1</property>
  <property name="kdenlive:id">34</property>
  <property name="kdenlive:clip_type">1</property>
  <property name="kdenlive:file_size">590133</property>
  <property name="kdenlive:file_hash">7d90975b0a1dcaae0aaaf065aabf6d35</property>
  <property name="kdenlive:audio_max0">137</property>
  <property name="meta.media.nb_streams">1</property>
  <property name="meta.media.0.stream.type">audio</property>
  <property name="meta.media.0.codec.sample_fmt">fltp</property>
  <property name="meta.media.0.codec.sample_rate">48000</property>
  <property name="meta.media.0.codec.channels">1</property>
  <property name="meta.media.0.codec.layout">mono</property>
  <property name="meta.media.0.codec.name">aac</property>
  <property name="meta.media.0.codec.long_name">AAC (Advanced Audio Coding)</property>
  <property name="meta.media.0.codec.bit_rate">239704</property>
  <property name="meta.attr.0.stream.creation_time.markup">2024-06-03T19:20:59.000000Z</property>
  <property name="meta.attr.0.stream.handler_name.markup">Core Media Audio</property>
  <property name="meta.attr.0.stream.vendor_id.markup">[0][0][0][0]</property>
  <property name="meta.attr.major_brand.markup">M4A </property>
  <property name="meta.attr.minor_version.markup">0</property>
  <property name="meta.attr.compatible_brands.markup">M4A isommp42</property>
  <property name="meta.attr.creation_time.markup">2024-06-03T19:20:59.000000Z</property>
  <property name="meta.attr.iTunSMPB.markup"> 00000000 00000840 00000000 00000000000E47C0 00000000 00000000 00000000 00000000 00000000 00000000 00000000 00000000</property>
  <property name="xml">was here</property>
  <property name="mute_on_pause">0</property>
  <property name="set.test_audio">0</property>
  <property name="set.test_image">1</property>
 </chain>
 <chain id="chain25" out="00:00:09.833">
  <property name="length">591</property>
  <property name="eof">pause</property>
  <property name="resource">other_assets/ORsSDbGt.m4a</property>
  <property name="mlt_service">avformat-novalidate</property>
  <property name="seekable">1</property>
  <property name="audio_index">0</property>
  <property name="video_index">-1</property>
  <property name="astream">0</property>
  <property name="kdenlive:folderid">-1</property>
  <property name="kdenlive:id">35</property>
  <property name="kdenlive:clip_type">1</property>
  <property name="kdenlive:file_size">306605</property>
  <property name="kdenlive:file_hash">934ef30ea847212c8eab786d02468fe5</property>
  <property name="kdenlive:audio_max0">144</property>
  <property name="meta.media.nb_streams">1</property>
  <property name="meta.media.0.stream.type">audio</property>
  <property name="meta.media.0.codec.sample_fmt">fltp</property>
  <property name="meta.media.0.codec.sample_rate">48000</property>
  <property name="meta.media.0.codec.channels">1</property>
  <property name="meta.media.0.codec.layout">mono</property>
  <property name="meta.media.0.codec.name">aac</property>
  <property name="meta.media.0.codec.long_name">AAC (Advanced Audio Coding)</property>
  <property name="meta.media.0.codec.bit_rate">246625</property>
  <property name="meta.attr.0.stream.creation_time.markup">2024-06-03T19:23:10.000000Z</property>
  <property name="meta.attr.0.stream.handler_name.markup">Core Media Audio</property>
  <property name="meta.attr.0.stream.vendor_id.markup">[0][0][0][0]</property>
  <property name="meta.attr.major_brand.markup">M4A </property>
  <property name="meta.attr.minor_version.markup">0</property>
  <property name="meta.attr.compatible_brands.markup">M4A isommp42</property>
  <property name="meta.attr.creation_time.markup">2024-06-03T19:23:10.000000Z</property>
  <property name="meta.attr.iTunSMPB.markup"> 00000000 00000840 00000000 0000000000072FC0 00000000 00000000 00000000 00000000 00000000 00000000 00000000 00000000</property>
  <property name="xml">was here</property>
  <property name="mute_on_pause">0</property>
  <property name="set.test_audio">0</property>
  <property name="set.test_image">1</property>
 </chain>
 <chain id="chain18" out="00:00:04.767">
  <property name="length">287</property>
  <property name="eof">pause</property>
  <property name="resource">other_assets/z2ye2zeT.m4a</property>
  <property name="mlt_service">avformat-novalidate</property>
  <property name="seekable">1</property>
  <property name="audio_index">0</property>
  <property name="video_index">-1</property>
  <property name="astream">0</property>
  <property name="kdenlive:folderid">-1</property>
  <property name="kdenlive:id">53</property>
  <property name="kdenlive:clip_type">1</property>
  <property name="kdenlive:file_size">144642</property>
  <property name="kdenlive:file_hash">e1945e28681c3b6f3a467a0b730e9ce4</property>
  <property name="meta.media.nb_streams">1</property>
  <property name="meta.media.0.stream.type">audio</property>
  <property name="meta.media.0.codec.sample_fmt">fltp</property>
  <property name="meta.media.0.codec.sample_rate">48000</property>
  <property name="meta.media.0.codec.channels">1</property>
  <property name="meta.media.0.codec.layout">mono</property>
  <property name="meta.media.0.codec.name">aac</property>
  <property name="meta.media.0.codec.long_name">AAC (Advanced Audio Coding)</property>
  <property name="meta.media.0.codec.bit_rate">239156</property>
  <property name="meta.attr.0.stream.creation_time.markup">2024-06-04T02:03:12.000000Z</property>
  <property name="meta.attr.0.stream.handler_name.markup">Core Media Audio</property>
  <property name="meta.attr.0.stream.vendor_id.markup">[0][0][0][0]</property>
  <property name="meta.attr.major_brand.markup">M4A </property>
  <property name="meta.attr.minor_version.markup">0</property>
  <property name="meta.attr.compatible_brands.markup">M4A isommp42</property>
  <property name="meta.attr.creation_time.markup">2024-06-04T02:03:12.000000Z</property>
  <property name="meta.attr.iTunSMPB.markup"> 00000000 00000840 00000000 00000000000377C0 00000000 00000000 00000000 00000000 00000000 00000000 00000000 00000000</property>
  <property name="xml">was here</property>
  <property name="mute_on_pause">0</property>
  <property name="set.test_audio">0</property>
  <property name="set.test_image">1</property>
 </chain>
 <chain id="chain26" out="00:00:12.200">
  <property name="length">733</property>
  <property name="eof">pause</property>
  <property name="resource">other_assets/5bOMd1WG.m4a</property>
  <property name="mlt_service">avformat-novalidate</property>
  <property name="seekable">1</property>
  <property name="audio_index">0</property>
  <property name="video_index">-1</property>
  <property name="astream">0</property>
  <property name="kdenlive:folderid">-1</property>
  <property name="kdenlive:id">36</property>
  <property name="kdenlive:clip_type">1</property>
  <property name="kdenlive:file_size">361013</property>
  <property name="kdenlive:file_hash">5e99b950c618a1d321b81f130653fd56</property>
  <property name="kdenlive:audio_max0">157</property>
  <property name="meta.media.nb_streams">1</property>
  <property name="meta.media.0.stream.type">audio</property>
  <property name="meta.media.0.codec.sample_fmt">fltp</property>
  <property name="meta.media.0.codec.sample_rate">48000</property>
  <property name="meta.media.0.codec.channels">1</property>
  <property name="meta.media.0.codec.layout">mono</property>
  <property name="meta.media.0.codec.name">aac</property>
  <property name="meta.media.0.codec.long_name">AAC (Advanced Audio Coding)</property>
  <property name="meta.media.0.codec.bit_rate">234161</property>
  <property name="meta.attr.0.stream.creation_time.markup">2024-06-03T19:24:47.000000Z</property>
  <property name="meta.attr.0.stream.handler_name.markup">Core Media Audio</property>
  <property name="meta.attr.0.stream.vendor_id.markup">[0][0][0][0]</property>
  <property name="meta.attr.major_brand.markup">M4A </property>
  <property name="meta.attr.minor_version.markup">0</property>
  <property name="meta.attr.compatible_brands.markup">M4A isommp42</property>
  <property name="meta.attr.creation_time.markup">2024-06-03T19:24:47.000000Z</property>
  <property name="meta.attr.iTunSMPB.markup"> 00000000 00000840 00000000 000000000008EBC0 00000000 00000000 00000000 00000000 00000000 00000000 00000000 00000000</property>
  <property name="xml">was here</property>
  <property name="mute_on_pause">0</property>
  <property name="set.test_audio">0</property>
  <property name="set.test_image">1</property>
 </chain>
 <chain id="chain27" out="00:00:04.583">
  <property name="length">276</property>
  <property name="eof">pause</property>
  <property name="resource">other_assets/zYAhM6v8.m4a</property>
  <property name="mlt_service">avformat-novalidate</property>
  <property name="seekable">1</property>
  <property name="audio_index">0</property>
  <property name="video_index">-1</property>
  <property name="astream">0</property>
  <property name="kdenlive:folderid">-1</property>
  <property name="kdenlive:id">37</property>
  <property name="kdenlive:clip_type">1</property>
  <property name="kdenlive:file_size">141023</property>
  <property name="kdenlive:file_hash">6fa8e3b1cc942ee819d74402bbfe79e0</property>
  <property name="kdenlive:audio_max0">125</property>
  <property name="meta.media.nb_streams">1</property>
  <property name="meta.media.0.stream.type">audio</property>
  <property name="meta.media.0.codec.sample_fmt">fltp</property>
  <property name="meta.media.0.codec.sample_rate">48000</property>
  <property name="meta.media.0.codec.channels">1</property>
  <property name="meta.media.0.codec.layout">mono</property>
  <property name="meta.media.0.codec.name">aac</property>
  <property name="meta.media.0.codec.long_name">AAC (Advanced Audio Coding)</property>
  <property name="meta.media.0.codec.bit_rate">241786</property>
  <property name="meta.attr.0.stream.creation_time.markup">2024-06-03T19:26:10.000000Z</property>
  <property name="meta.attr.0.stream.handler_name.markup">Core Media Audio</property>
  <property name="meta.attr.0.stream.vendor_id.markup">[0][0][0][0]</property>
  <property name="meta.attr.major_brand.markup">M4A </property>
  <property name="meta.attr.minor_version.markup">0</property>
  <property name="meta.attr.compatible_brands.markup">M4A isommp42</property>
  <property name="meta.attr.creation_time.markup">2024-06-03T19:26:10.000000Z</property>
  <property name="meta.attr.iTunSMPB.markup"> 00000000 00000840 00000000 00000000000357C0 00000000 00000000 00000000 00000000 00000000 00000000 00000000 00000000</property>
  <property name="xml">was here</property>
  <property name="mute_on_pause">0</property>
  <property name="set.test_audio">0</property>
  <property name="set.test_image">1</property>
 </chain>
 <chain id="chain28" out="00:00:10.600">
  <property name="length">637</property>
  <property name="eof">pause</property>
  <property name="resource">other_assets/qfWZrG7j.m4a</property>
  <property name="mlt_service">avformat-novalidate</property>
  <property name="seekable">1</property>
  <property name="audio_index">0</property>
  <property name="video_index">-1</property>
  <property name="astream">0</property>
  <property name="kdenlive:folderid">-1</property>
  <property name="kdenlive:id">38</property>
  <property name="kdenlive:clip_type">1</property>
  <property name="kdenlive:file_size">318844</property>
  <property name="kdenlive:file_hash">63070135a0de376557f76def5eaaad52</property>
  <property name="kdenlive:audio_max0">114</property>
  <property name="meta.media.nb_streams">1</property>
  <property name="meta.media.0.stream.type">audio</property>
  <property name="meta.media.0.codec.sample_fmt">fltp</property>
  <property name="meta.media.0.codec.sample_rate">48000</property>
  <property name="meta.media.0.codec.channels">1</property>
  <property name="meta.media.0.codec.layout">mono</property>
  <property name="meta.media.0.codec.name">aac</property>
  <property name="meta.media.0.codec.long_name">AAC (Advanced Audio Coding)</property>
  <property name="meta.media.0.codec.bit_rate">237905</property>
  <property name="meta.attr.0.stream.creation_time.markup">2024-06-03T19:27:11.000000Z</property>
  <property name="meta.attr.0.stream.handler_name.markup">Core Media Audio</property>
  <property name="meta.attr.0.stream.vendor_id.markup">[0][0][0][0]</property>
  <property name="meta.attr.major_brand.markup">M4A </property>
  <property name="meta.attr.minor_version.markup">0</property>
  <property name="meta.attr.compatible_brands.markup">M4A isommp42</property>
  <property name="meta.attr.creation_time.markup">2024-06-03T19:27:11.000000Z</property>
  <property name="meta.attr.iTunSMPB.markup"> 00000000 00000840 00000000 000000000007BFC0 00000000 00000000 00000000 00000000 00000000 00000000 00000000 00000000</property>
  <property name="xml">was here</property>
  <property name="mute_on_pause">0</property>
  <property name="set.test_audio">0</property>
  <property name="set.test_image">1</property>
 </chain>
 <chain id="chain29" out="00:00:17.433">
  <property name="length">1047</property>
  <property name="eof">pause</property>
  <property name="resource">other_assets/tf8mgaSw.m4a</property>
  <property name="mlt_service">avformat-novalidate</property>
  <property name="seekable">1</property>
  <property name="audio_index">0</property>
  <property name="video_index">-1</property>
  <property name="astream">0</property>
  <property name="kdenlive:folderid">-1</property>
  <property name="kdenlive:id">39</property>
  <property name="kdenlive:clip_type">1</property>
  <property name="kdenlive:file_size">524702</property>
  <property name="kdenlive:file_hash">81807fd52b3aff66e8af1b9690e82e50</property>
  <property name="kdenlive:audio_max0">142</property>
  <property name="meta.media.nb_streams">1</property>
  <property name="meta.media.0.stream.type">audio</property>
  <property name="meta.media.0.codec.sample_fmt">fltp</property>
  <property name="meta.media.0.codec.sample_rate">48000</property>
  <property name="meta.media.0.codec.channels">1</property>
  <property name="meta.media.0.codec.layout">mono</property>
  <property name="meta.media.0.codec.name">aac</property>
  <property name="meta.media.0.codec.long_name">AAC (Advanced Audio Coding)</property>
  <property name="meta.media.0.codec.bit_rate">238610</property>
  <property name="meta.attr.0.stream.creation_time.markup">2024-06-03T19:28:12.000000Z</property>
  <property name="meta.attr.0.stream.handler_name.markup">Core Media Audio</property>
  <property name="meta.attr.0.stream.vendor_id.markup">[0][0][0][0]</property>
  <property name="meta.attr.major_brand.markup">M4A </property>
  <property name="meta.attr.minor_version.markup">0</property>
  <property name="meta.attr.compatible_brands.markup">M4A isommp42</property>
  <property name="meta.attr.creation_time.markup">2024-06-03T19:28:12.000000Z</property>
  <property name="meta.attr.iTunSMPB.markup"> 00000000 00000840 00000000 00000000000CBFC0 00000000 00000000 00000000 00000000 00000000 00000000 00000000 00000000</property>
  <property name="xml">was here</property>
  <property name="mute_on_pause">0</property>
  <property name="set.test_audio">0</property>
  <property name="set.test_image">1</property>
 </chain>
 <chain id="chain30" out="00:00:08.767">
  <property name="length">527</property>
  <property name="eof">pause</property>
  <property name="resource">other_assets/xKLMy4PN.m4a</property>
  <property name="mlt_service">avformat-novalidate</property>
  <property name="seekable">1</property>
  <property name="audio_index">0</property>
  <property name="video_index">-1</property>
  <property name="astream">0</property>
  <property name="kdenlive:folderid">-1</property>
  <property name="kdenlive:id">40</property>
  <property name="kdenlive:clip_type">1</property>
  <property name="kdenlive:file_size">271516</property>
  <property name="kdenlive:file_hash">56bc43af759267e303f854ed679ce6c8</property>
  <property name="kdenlive:audio_max0">115</property>
  <property name="meta.media.nb_streams">1</property>
  <property name="meta.media.0.stream.type">audio</property>
  <property name="meta.media.0.codec.sample_fmt">fltp</property>
  <property name="meta.media.0.codec.sample_rate">48000</property>
  <property name="meta.media.0.codec.channels">1</property>
  <property name="meta.media.0.codec.layout">mono</property>
  <property name="meta.media.0.codec.name">aac</property>
  <property name="meta.media.0.codec.long_name">AAC (Advanced Audio Coding)</property>
  <property name="meta.media.0.codec.bit_rate">244807</property>
  <property name="meta.attr.0.stream.creation_time.markup">2024-06-03T19:32:18.000000Z</property>
  <property name="meta.attr.0.stream.handler_name.markup">Core Media Audio</property>
  <property name="meta.attr.0.stream.vendor_id.markup">[0][0][0][0]</property>
  <property name="meta.attr.major_brand.markup">M4A </property>
  <property name="meta.attr.minor_version.markup">0</property>
  <property name="meta.attr.compatible_brands.markup">M4A isommp42</property>
  <property name="meta.attr.creation_time.markup">2024-06-03T19:32:18.000000Z</property>
  <property name="meta.attr.iTunSMPB.markup"> 00000000 00000840 00000000 00000000000667C0 00000000 00000000 00000000 00000000 00000000 00000000 00000000 00000000</property>
  <property name="xml">was here</property>
  <property name="mute_on_pause">0</property>
  <property name="set.test_audio">0</property>
  <property name="set.test_image">1</property>
 </chain>
 <chain id="chain31" out="00:00:02.700">
  <property name="length">163</property>
  <property name="eof">pause</property>
  <property name="resource">other_assets/LblLk1I0.m4a</property>
  <property name="mlt_service">avformat-novalidate</property>
  <property name="seekable">1</property>
  <property name="audio_index">0</property>
  <property name="video_index">-1</property>
  <property name="astream">0</property>
  <property name="kdenlive:folderid">-1</property>
  <property name="kdenlive:id">61</property>
  <property name="kdenlive:clip_type">1</property>
  <property name="kdenlive:file_size">56012</property>
  <property name="kdenlive:file_hash">b15ecb3253f6a7fc10f35f698a579e4e</property>
  <property name="kdenlive:audio_max0">114</property>
  <property name="kdenlive:monitorPosition">0</property>
  <property name="kdenlive:zone_in">50</property>
  <property name="kdenlive:zone_out">124</property>
  <property name="meta.media.nb_streams">1</property>
  <property name="meta.media.0.stream.type">audio</property>
  <property name="meta.media.0.codec.sample_fmt">fltp</property>
  <property name="meta.media.0.codec.sample_rate">48000</property>
  <property name="meta.media.0.codec.channels">1</property>
  <property name="meta.media.0.codec.layout">mono</property>
  <property name="meta.media.0.codec.name">aac</property>
  <property name="meta.media.0.codec.long_name">AAC (Advanced Audio Coding)</property>
  <property name="meta.media.0.codec.bit_rate">161285</property>
  <property name="meta.attr.0.stream.creation_time.markup">2024-06-04T02:49:47.000000Z</property>
  <property name="meta.attr.0.stream.handler_name.markup">Core Media Audio</property>
  <property name="meta.attr.0.stream.vendor_id.markup">[0][0][0][0]</property>
  <property name="meta.attr.major_brand.markup">M4A </property>
  <property name="meta.attr.minor_version.markup">0</property>
  <property name="meta.attr.compatible_brands.markup">M4A isommp42</property>
  <property name="meta.attr.creation_time.markup">2024-06-04T02:49:47.000000Z</property>
  <property name="meta.attr.iTunSMPB.markup"> 00000000 00000840 00000000 000000000001F3C0 00000000 00000000 00000000 00000000 00000000 00000000 00000000 00000000</property>
  <property name="xml">was here</property>
  <property name="mute_on_pause">0</property>
  <property name="set.test_audio">0</property>
  <property name="set.test_image">1</property>
 </chain>
 <chain id="chain32" out="00:00:15.250">
  <property name="length">916</property>
  <property name="eof">pause</property>
  <property name="resource">other_assets/Clt0LlOn.m4a</property>
  <property name="mlt_service">avformat-novalidate</property>
  <property name="seekable">1</property>
  <property name="audio_index">0</property>
  <property name="video_index">-1</property>
  <property name="astream">0</property>
  <property name="kdenlive:folderid">-1</property>
  <property name="kdenlive:id">41</property>
  <property name="kdenlive:clip_type">1</property>
  <property name="kdenlive:file_size">457789</property>
  <property name="kdenlive:file_hash">ed8ba379993823cf936f7552bff075ea</property>
  <property name="kdenlive:audio_max0">134</property>
  <property name="meta.media.nb_streams">1</property>
  <property name="meta.media.0.stream.type">audio</property>
  <property name="meta.media.0.codec.sample_fmt">fltp</property>
  <property name="meta.media.0.codec.sample_rate">48000</property>
  <property name="meta.media.0.codec.channels">1</property>
  <property name="meta.media.0.codec.layout">mono</property>
  <property name="meta.media.0.codec.name">aac</property>
  <property name="meta.media.0.codec.long_name">AAC (Advanced Audio Coding)</property>
  <property name="meta.media.0.codec.bit_rate">237774</property>
  <property name="meta.attr.0.stream.creation_time.markup">2024-06-03T19:33:37.000000Z</property>
  <property name="meta.attr.0.stream.handler_name.markup">Core Media Audio</property>
  <property name="meta.attr.0.stream.vendor_id.markup">[0][0][0][0]</property>
  <property name="meta.attr.major_brand.markup">M4A </property>
  <property name="meta.attr.minor_version.markup">0</property>
  <property name="meta.attr.compatible_brands.markup">M4A isommp42</property>
  <property name="meta.attr.creation_time.markup">2024-06-03T19:33:37.000000Z</property>
  <property name="meta.attr.iTunSMPB.markup"> 00000000 00000840 00000000 00000000000B27C0 00000000 00000000 00000000 00000000 00000000 00000000 00000000 00000000</property>
  <property name="xml">was here</property>
  <property name="mute_on_pause">0</property>
  <property name="set.test_audio">0</property>
  <property name="set.test_image">1</property>
 </chain>
 <chain id="chain33" out="00:00:20.450">
  <property name="length">1228</property>
  <property name="eof">pause</property>
  <property name="resource">other_assets/lLBWws8C.m4a</property>
  <property name="mlt_service">avformat-novalidate</property>
  <property name="seekable">1</property>
  <property name="audio_index">0</property>
  <property name="video_index">-1</property>
  <property name="astream">0</property>
  <property name="kdenlive:folderid">-1</property>
  <property name="kdenlive:id">63</property>
  <property name="kdenlive:clip_type">1</property>
  <property name="kdenlive:file_size">630518</property>
  <property name="kdenlive:file_hash">601e07f36457b9194b4e35dc20898d58</property>
  <property name="kdenlive:audio_max0">125</property>
  <property name="meta.media.nb_streams">1</property>
  <property name="meta.media.0.stream.type">audio</property>
  <property name="meta.media.0.codec.sample_fmt">fltp</property>
  <property name="meta.media.0.codec.sample_rate">48000</property>
  <property name="meta.media.0.codec.channels">1</property>
  <property name="meta.media.0.codec.layout">mono</property>
  <property name="meta.media.0.codec.name">aac</property>
  <property name="meta.media.0.codec.long_name">AAC (Advanced Audio Coding)</property>
  <property name="meta.media.0.codec.bit_rate">244679</property>
  <property name="meta.attr.0.stream.creation_time.markup">2024-06-04T02:56:10.000000Z</property>
  <property name="meta.attr.0.stream.handler_name.markup">Core Media Audio</property>
  <property name="meta.attr.0.stream.vendor_id.markup">[0][0][0][0]</property>
  <property name="meta.attr.major_brand.markup">M4A </property>
  <property name="meta.attr.minor_version.markup">0</property>
  <property name="meta.attr.compatible_brands.markup">M4A isommp42</property>
  <property name="meta.attr.creation_time.markup">2024-06-04T02:56:10.000000Z</property>
  <property name="meta.attr.iTunSMPB.markup"> 00000000 00000840 00000000 00000000000EF3C0 00000000 00000000 00000000 00000000 00000000 00000000 00000000 00000000</property>
  <property name="xml">was here</property>
  <property name="mute_on_pause">0</property>
  <property name="set.test_audio">0</property>
  <property name="set.test_image">1</property>
 </chain>
 <playlist id="playlist0">
  <property name="kdenlive:audio_track">1</property>
  <blank length="00:00:10.083"/>
  <entry in="00:00:00.733" out="00:00:02.500" producer="chain0">
   <property name="kdenlive:id">10</property>
  </entry>
  <entry in="00:00:02.883" out="00:00:06.050" producer="chain0">
   <property name="kdenlive:id">10</property>
  </entry>
  <blank length="00:00:01.167"/>
  <entry in="00:00:01.200" out="00:00:08.633" producer="chain1">
   <property name="kdenlive:id">45</property>
  </entry>
  <blank length="00:00:00.367"/>
  <entry in="00:00:09.250" out="00:00:12.133" producer="chain1">
   <property name="kdenlive:id">45</property>
  </entry>
  <entry in="00:00:00.533" out="00:00:08.233" producer="chain7">
   <property name="kdenlive:id">46</property>
  </entry>
  <entry in="00:00:01.050" out="00:00:08.283" producer="chain8">
   <property name="kdenlive:id">47</property>
  </entry>
  <entry in="00:00:00.417" out="00:00:02.500" producer="chain9">
   <property name="kdenlive:id">48</property>
  </entry>
  <entry in="00:00:00.550" out="00:00:04.567" producer="chain10">
   <property name="kdenlive:id">49</property>
  </entry>
  <entry in="00:00:00.733" out="00:00:04.917" producer="chain3">
   <property name="kdenlive:id">57</property>
  </entry>
  <blank length="00:00:00.617"/>
  <entry in="00:00:00.650" out="00:00:06.500" producer="chain6">
   <property name="kdenlive:id">55</property>
  </entry>
  <blank length="00:00:01.250"/>
  <entry in="00:00:00.933" out="00:00:04.583" producer="chain11">
   <property name="kdenlive:id">56</property>
  </entry>
  <blank length="00:00:00.217"/>
  <entry in="00:00:05.450" out="00:00:07.767" producer="chain11">
   <property name="kdenlive:id">56</property>
  </entry>
  <blank length="00:00:00.183"/>
  <entry in="00:00:08.433" out="00:00:10.217" producer="chain13">
   <property name="kdenlive:id">18</property>
  </entry>
  <blank length="00:00:00.267"/>
  <entry in="00:00:00.650" out="00:00:30.717" producer="chain14">
   <property name="kdenlive:id">19</property>
  </entry>
  <entry in="00:00:00.367" out="00:00:02.850" producer="chain12">
   <property name="kdenlive:id">60</property>
  </entry>
  <blank length="00:00:02.550"/>
  <entry in="00:00:01.500" out="00:00:03.983" producer="chain15">
   <property name="kdenlive:id">20</property>
  </entry>
  <entry in="00:00:04.567" out="00:00:17.333" producer="chain15">
   <property name="kdenlive:id">20</property>
  </entry>
  <blank length="00:00:00.433"/>
  <entry in="00:00:00.833" out="00:00:04.450" producer="chain16">
   <property name="kdenlive:id">21</property>
  </entry>
  <entry in="00:00:04.900" out="00:00:10.767" producer="chain16">
   <property name="kdenlive:id">21</property>
  </entry>
  <entry in="00:00:00.517" out="00:00:06.583" producer="chain17">
   <property name="kdenlive:id">50</property>
  </entry>
  <blank length="00:00:00.400"/>
  <entry in="00:00:01.217" out="00:00:13.400" producer="chain19">
   <property name="kdenlive:id">29</property>
  </entry>
  <entry in="00:00:00.467" out="00:00:06.350" producer="chain20">
   <property name="kdenlive:id">30</property>
  </entry>
  <entry in="00:00:00.783" out="00:00:09.533" producer="chain21">
   <property name="kdenlive:id">31</property>
  </entry>
  <entry in="00:00:09.917" out="00:00:11.433" producer="chain21">
   <property name="kdenlive:id">31</property>
  </entry>
  <entry in="00:00:11.800" out="00:00:12.433" producer="chain21">
   <property name="kdenlive:id">31</property>
  </entry>
  <entry in="00:00:00.583" out="00:00:07.300" producer="chain22">
   <property name="kdenlive:id">32</property>
  </entry>
  <entry in="00:00:07.850" out="00:00:12.383" producer="chain22">
   <property name="kdenlive:id">32</property>
  </entry>
  <entry in="00:00:00.717" out="00:00:05.683" producer="chain23">
   <property name="kdenlive:id">33</property>
  </entry>
  <entry in="00:00:00.833" out="00:00:03.417" producer="chain24">
   <property name="kdenlive:id">34</property>
  </entry>
  <entry in="00:00:03.900" out="00:00:04.800" producer="chain24">
   <property name="kdenlive:id">34</property>
  </entry>
  <entry in="00:00:00.550" out="00:00:03.017" producer="chain25">
   <property name="kdenlive:id">35</property>
  </entry>
  <entry in="00:00:00.717" out="00:00:04.767" producer="chain18">
   <property name="kdenlive:id">53</property>
  </entry>
  <entry in="00:00:00.767" out="00:00:03.633" producer="chain26">
   <property name="kdenlive:id">36</property>
  </entry>
  <entry in="00:00:04.100" out="00:00:08.550" producer="chain26">
   <property name="kdenlive:id">36</property>
  </entry>
  <entry in="00:00:00.450" out="00:00:03.650" producer="chain27">
   <property name="kdenlive:id">37</property>
  </entry>
  <entry in="00:00:00.800" out="00:00:02.900" producer="chain28">
   <property name="kdenlive:id">38</property>
  </entry>
  <blank length="00:00:00.250"/>
  <entry in="00:00:01.183" out="00:00:04.383" producer="chain29">
   <property name="kdenlive:id">39</property>
  </entry>
  <entry in="00:00:05.017" out="00:00:08.067" producer="chain29">
   <property name="kdenlive:id">39</property>
  </entry>
  <entry in="00:00:08.683" out="00:00:09.467" producer="chain29">
   <property name="kdenlive:id">39</property>
  </entry>
  <entry in="00:00:15.517" out="00:00:17.133" producer="chain29">
   <property name="kdenlive:id">39</property>
  </entry>
  <entry in="00:00:00.467" out="00:00:03.167" producer="chain30">
   <property name="kdenlive:id">40</property>
  </entry>
  <entry in="00:00:03.717" out="00:00:05.283" producer="chain30">
   <property name="kdenlive:id">40</property>
  </entry>
  <entry in="00:00:05.583" out="00:00:08.150" producer="chain30">
   <property name="kdenlive:id">40</property>
  </entry>
  <blank length="00:00:00.183"/>
  <entry in="00:00:00.833" out="00:00:02.050" producer="chain31">
   <property name="kdenlive:id">61</property>
  </entry>
  <entry in="00:00:01.150" out="00:00:04.767" producer="chain32">
   <property name="kdenlive:id">41</property>
  </entry>
  <entry in="00:00:05.300" out="00:00:07.433" producer="chain32">
   <property name="kdenlive:id">41</property>
  </entry>
  <entry in="00:00:07.617" out="00:00:09.600" producer="chain32">
   <property name="kdenlive:id">41</property>
  </entry>
  <entry in="00:00:09.900" out="00:00:13.850" producer="chain32">
   <property name="kdenlive:id">41</property>
  </entry>
  <entry in="00:00:00.700" out="00:00:20.083" producer="chain33">
   <property name="kdenlive:id">63</property>
  </entry>
 </playlist>
 <playlist id="playlist1">
  <property name="kdenlive:audio_track">1</property>
 </playlist>
 <tractor id="tractor0" in="00:00:00.000" out="00:04:11.750">
  <property name="kdenlive:audio_track">1</property>
  <property name="kdenlive:trackheight">67</property>
  <property name="kdenlive:timeline_active">1</property>
  <property name="kdenlive:collapsed">0</property>
  <property name="kdenlive:thumbs_format"/>
  <property name="kdenlive:audio_rec"/>
  <track hide="video" producer="playlist0"/>
  <track hide="video" producer="playlist1"/>
  <filter id="filter0">
   <property name="window">75</property>
   <property name="max_gain">20dB</property>
   <property name="mlt_service">volume</property>
   <property name="internal_added">237</property>
   <property name="disable">1</property>
  </filter>
  <filter id="filter1">
   <property name="channel">-1</property>
   <property name="mlt_service">panner</property>
   <property name="internal_added">237</property>
   <property name="start">0.5</property>
   <property name="disable">1</property>
  </filter>
  <filter id="filter2">
   <property name="iec_scale">0</property>
   <property name="mlt_service">audiolevel</property>
   <property name="dbpeak">1</property>
   <property name="disable">1</property>
  </filter>
 </tractor>
 <chain id="chain34" out="00:04:24.950">
  <property name="length">15898</property>
  <property name="eof">pause</property>
  <property name="resource">other_assets/Piano Music - Falling - Royalty Free.mp3</property>
  <property name="mlt_service">avformat-novalidate</property>
  <property name="seekable">1</property>
  <property name="audio_index">0</property>
  <property name="video_index">-1</property>
  <property name="astream">0</property>
  <property name="kdenlive:folderid">-1</property>
  <property name="kdenlive:id">9</property>
  <property name="kdenlive:clip_type">1</property>
  <property name="kdenlive:file_size">10599405</property>
  <property name="kdenlive:file_hash">9bc5d12ce4fb5cdf3813f4a65f5b8a5a</property>
  <property name="kdenlive:audio_max0">222</property>
  <property name="meta.media.nb_streams">1</property>
  <property name="meta.media.0.stream.type">audio</property>
  <property name="meta.media.0.codec.sample_fmt">fltp</property>
  <property name="meta.media.0.codec.sample_rate">48000</property>
  <property name="meta.media.0.codec.channels">2</property>
  <property name="meta.media.0.codec.layout">stereo</property>
  <property name="meta.media.0.codec.name">mp3float</property>
  <property name="meta.media.0.codec.long_name">MP3 (MPEG audio layer 3)</property>
  <property name="meta.media.0.codec.bit_rate">320000</property>
  <property name="meta.attr.0.stream.encoder.markup">Lavc58.13</property>
  <property name="meta.attr.encoder.markup">Lavf58.76.100</property>
  <property name="xml">was here</property>
  <property name="mute_on_pause">0</property>
  <property name="set.test_audio">0</property>
  <property name="set.test_image">1</property>
 </chain>
 <playlist id="playlist2">
  <property name="kdenlive:audio_track">1</property>
  <blank length="00:00:01.667"/>
  <entry in="00:00:00.000" out="00:04:10.083" producer="chain34">
   <property name="kdenlive:id">9</property>
   <filter id="filter3">
    <property name="window">75</property>
    <property name="max_gain">20dB</property>
    <property name="level">00:00:00.000=-35</property>
    <property name="mlt_service">volume</property>
    <property name="kdenlive_id">volume</property>
    <property name="kdenlive:collapsed">0</property>
   </filter>
   <filter id="filter4" in="00:04:05.633" out="00:04:10.100">
    <property name="window">75</property>
    <property name="max_gain">20dB</property>
    <property name="mlt_service">volume</property>
    <property name="kdenlive_id">fadeout</property>
    <property name="gain">1</property>
    <property name="end">0</property>
    <property name="kdenlive:collapsed">0</property>
   </filter>
  </entry>
 </playlist>
 <playlist id="playlist3">
  <property name="kdenlive:audio_track">1</property>
 </playlist>
 <tractor id="tractor1" in="00:00:00.000" out="00:04:11.750">
  <property name="kdenlive:audio_track">1</property>
  <property name="kdenlive:trackheight">67</property>
  <property name="kdenlive:timeline_active">1</property>
  <property name="kdenlive:collapsed">0</property>
  <property name="kdenlive:thumbs_format"/>
  <property name="kdenlive:audio_rec"/>
  <track hide="video" producer="playlist2"/>
  <track hide="video" producer="playlist3"/>
  <filter id="filter5">
   <property name="window">75</property>
   <property name="max_gain">20dB</property>
   <property name="mlt_service">volume</property>
   <property name="internal_added">237</property>
   <property name="disable">1</property>
  </filter>
  <filter id="filter6">
   <property name="channel">-1</property>
   <property name="mlt_service">panner</property>
   <property name="internal_added">237</property>
   <property name="start">0.5</property>
   <property name="disable">1</property>
  </filter>
  <filter id="filter7">
   <property name="iec_scale">0</property>
   <property name="mlt_service">audiolevel</property>
   <property name="dbpeak">1</property>
   <property name="disable">1</property>
  </filter>
 </tractor>
 <chain id="chain35" out="00:00:15.383">
  <property name="length">924</property>
  <property name="eof">pause</property>
  <property name="resource">/Users/thomasnield/git/3mds/p_values/media/videos/p_values/2160p60/LogoScene.mp4</property>
  <property name="mlt_service">avformat-novalidate</property>
  <property name="seekable">1</property>
  <property name="audio_index">-1</property>
  <property name="video_index">0</property>
  <property name="vstream">0</property>
  <property name="kdenlive:id">6</property>
  <property name="kdenlive:clip_type">2</property>
  <property name="kdenlive:file_size">1302807</property>
  <property name="kdenlive:file_hash">3e05cc55c3c5e7d5b867c742bcd0c32f</property>
  <property name="kdenlive:folderid">-1</property>
  <property name="meta.media.nb_streams">1</property>
  <property name="meta.media.0.stream.type">video</property>
  <property name="meta.media.0.stream.frame_rate">60</property>
  <property name="meta.media.0.stream.sample_aspect_ratio">0</property>
  <property name="meta.media.0.codec.width">3840</property>
  <property name="meta.media.0.codec.height">2160</property>
  <property name="meta.media.0.codec.rotate">0</property>
  <property name="meta.media.0.codec.pix_fmt">yuv420p</property>
  <property name="meta.media.0.codec.sample_aspect_ratio">0</property>
  <property name="meta.media.0.codec.colorspace">709</property>
  <property name="meta.media.0.codec.name">h264</property>
  <property name="meta.media.0.codec.long_name">H.264 / AVC / MPEG-4 AVC / MPEG-4 part 10</property>
  <property name="meta.media.0.codec.bit_rate">670823</property>
  <property name="meta.attr.0.stream.handler_name.markup">VideoHandler</property>
  <property name="meta.attr.0.stream.vendor_id.markup">[0][0][0][0]</property>
  <property name="meta.attr.0.stream.encoder.markup">Lavc61.4.100 libx264</property>
  <property name="meta.attr.major_brand.markup">isom</property>
  <property name="meta.attr.minor_version.markup">512</property>
  <property name="meta.attr.compatible_brands.markup">isomiso2avc1mp41</property>
  <property name="meta.attr.encoder.markup">Lavf61.2.100</property>
  <property name="meta.attr.comment.markup">Rendered with Manim Community v0.18.1</property>
  <property name="meta.media.sample_aspect_num">1</property>
  <property name="meta.media.sample_aspect_den">1</property>
  <property name="meta.media.frame_rate_num">60</property>
  <property name="meta.media.frame_rate_den">1</property>
  <property name="meta.media.colorspace">709</property>
  <property name="meta.media.color_trc">2</property>
  <property name="meta.media.has_b_frames">2</property>
  <property name="meta.media.width">3840</property>
  <property name="meta.media.height">2160</property>
  <property name="meta.media.aspect_ratio">1</property>
  <property name="meta.media.color_range">mpeg</property>
  <property name="xml">was here</property>
  <property name="mute_on_pause">0</property>
  <property name="meta.media.top_field_first">0</property>
  <property name="meta.media.progressive">1</property>
  <property name="set.test_audio">1</property>
  <property name="set.test_image">0</property>
 </chain>
 <chain id="chain36" out="00:00:04.983">
  <property name="length">300</property>
  <property name="eof">pause</property>
  <property name="resource">/Users/thomasnield/git/3mds/p_values/media/videos/p_values/2160p60/TitleScene.mp4</property>
  <property name="mlt_service">avformat-novalidate</property>
  <property name="seekable">1</property>
  <property name="audio_index">-1</property>
  <property name="video_index">0</property>
  <property name="vstream">0</property>
  <property name="kdenlive:id">8</property>
  <property name="kdenlive:clip_type">2</property>
  <property name="kdenlive:file_size">141906</property>
  <property name="kdenlive:file_hash">833ff01dd1946154b2ffc9cfb8b8355d</property>
  <property name="kdenlive:folderid">-1</property>
  <property name="meta.media.nb_streams">1</property>
  <property name="meta.media.0.stream.type">video</property>
  <property name="meta.media.0.stream.frame_rate">60</property>
  <property name="meta.media.0.stream.sample_aspect_ratio">0</property>
  <property name="meta.media.0.codec.width">3840</property>
  <property name="meta.media.0.codec.height">2160</property>
  <property name="meta.media.0.codec.rotate">0</property>
  <property name="meta.media.0.codec.pix_fmt">yuv420p</property>
  <property name="meta.media.0.codec.sample_aspect_ratio">0</property>
  <property name="meta.media.0.codec.colorspace">709</property>
  <property name="meta.media.0.codec.name">h264</property>
  <property name="meta.media.0.codec.long_name">H.264 / AVC / MPEG-4 AVC / MPEG-4 part 10</property>
  <property name="meta.media.0.codec.bit_rate">219972</property>
  <property name="meta.attr.0.stream.handler_name.markup">VideoHandler</property>
  <property name="meta.attr.0.stream.vendor_id.markup">[0][0][0][0]</property>
  <property name="meta.attr.0.stream.encoder.markup">Lavc61.4.100 libx264</property>
  <property name="meta.attr.major_brand.markup">isom</property>
  <property name="meta.attr.minor_version.markup">512</property>
  <property name="meta.attr.compatible_brands.markup">isomiso2avc1mp41</property>
  <property name="meta.attr.encoder.markup">Lavf61.2.100</property>
  <property name="meta.attr.comment.markup">Rendered with Manim Community v0.18.1</property>
  <property name="meta.media.sample_aspect_num">1</property>
  <property name="meta.media.sample_aspect_den">1</property>
  <property name="meta.media.frame_rate_num">60</property>
  <property name="meta.media.frame_rate_den">1</property>
  <property name="meta.media.colorspace">709</property>
  <property name="meta.media.color_trc">2</property>
  <property name="meta.media.has_b_frames">2</property>
  <property name="meta.media.width">3840</property>
  <property name="meta.media.height">2160</property>
  <property name="meta.media.aspect_ratio">1</property>
  <property name="meta.media.color_range">mpeg</property>
  <property name="xml">was here</property>
  <property name="mute_on_pause">0</property>
  <property name="meta.media.top_field_first">0</property>
  <property name="meta.media.progressive">1</property>
  <property name="set.test_audio">1</property>
  <property name="set.test_image">0</property>
 </chain>
 <chain id="chain39" out="00:00:40.983">
  <property name="length">2460</property>
  <property name="eof">pause</property>
  <property name="resource">/Users/thomasnield/git/3mds/p_values/media/videos/p_values/2160p60/TeacupScene.mp4</property>
  <property name="mlt_service">avformat-novalidate</property>
  <property name="seekable">1</property>
  <property name="audio_index">-1</property>
  <property name="video_index">0</property>
  <property name="vstream">0</property>
  <property name="kdenlive:id">7</property>
  <property name="kdenlive:clip_type">2</property>
  <property name="kdenlive:file_size">4154834</property>
  <property name="kdenlive:file_hash">85411200a58c78420e7e8435b649f58c</property>
  <property name="kdenlive:folderid">-1</property>
  <property name="meta.media.nb_streams">1</property>
  <property name="meta.media.0.stream.type">video</property>
  <property name="meta.media.0.stream.frame_rate">60</property>
  <property name="meta.media.0.stream.sample_aspect_ratio">0</property>
  <property name="meta.media.0.codec.width">3840</property>
  <property name="meta.media.0.codec.height">2160</property>
  <property name="meta.media.0.codec.rotate">0</property>
  <property name="meta.media.0.codec.pix_fmt">yuv420p</property>
  <property name="meta.media.0.codec.sample_aspect_ratio">0</property>
  <property name="meta.media.0.codec.colorspace">709</property>
  <property name="meta.media.0.codec.name">h264</property>
  <property name="meta.media.0.codec.long_name">H.264 / AVC / MPEG-4 AVC / MPEG-4 part 10</property>
  <property name="meta.media.0.codec.bit_rate">804836</property>
  <property name="meta.attr.0.stream.handler_name.markup">VideoHandler</property>
  <property name="meta.attr.0.stream.vendor_id.markup">[0][0][0][0]</property>
  <property name="meta.attr.0.stream.encoder.markup">Lavc61.4.100 libx264</property>
  <property name="meta.attr.major_brand.markup">isom</property>
  <property name="meta.attr.minor_version.markup">512</property>
  <property name="meta.attr.compatible_brands.markup">isomiso2avc1mp41</property>
  <property name="meta.attr.encoder.markup">Lavf61.2.100</property>
  <property name="meta.attr.comment.markup">Rendered with Manim Community v0.18.1</property>
  <property name="meta.media.sample_aspect_num">1</property>
  <property name="meta.media.sample_aspect_den">1</property>
  <property name="meta.media.frame_rate_num">60</property>
  <property name="meta.media.frame_rate_den">1</property>
  <property name="meta.media.colorspace">709</property>
  <property name="meta.media.color_trc">2</property>
  <property name="meta.media.has_b_frames">2</property>
  <property name="meta.media.width">3840</property>
  <property name="meta.media.height">2160</property>
  <property name="meta.media.aspect_ratio">1</property>
  <property name="meta.media.color_range">mpeg</property>
  <property name="xml">was here</property>
  <property name="mute_on_pause">0</property>
  <property name="meta.media.top_field_first">0</property>
  <property name="meta.media.progressive">1</property>
  <property name="set.test_audio">1</property>
  <property name="set.test_image">0</property>
 </chain>
 <chain id="chain40" out="00:00:59.983">
  <property name="length">3600</property>
  <property name="eof">pause</property>
  <property name="resource">/Users/thomasnield/git/3mds/p_values/media/videos/p_values/2160p60/ColdTestScene.mp4</property>
  <property name="mlt_service">avformat-novalidate</property>
  <property name="seekable">1</property>
  <property name="audio_index">-1</property>
  <property name="video_index">0</property>
  <property name="vstream">0</property>
  <property name="kdenlive:id">5</property>
  <property name="kdenlive:clip_type">2</property>
  <property name="kdenlive:file_size">5716154</property>
  <property name="kdenlive:file_hash">0479c1dedbc87dc8ce5113f89995029d</property>
  <property name="kdenlive:folderid">-1</property>
  <property name="kdenlive:monitorPosition">0</property>
  <property name="mute_on_pause">0</property>
  <property name="kdenlive:zone_in">0</property>
  <property name="kdenlive:zone_out">241</property>
  <property name="meta.media.nb_streams">1</property>
  <property name="meta.media.0.stream.type">video</property>
  <property name="meta.media.0.stream.frame_rate">60</property>
  <property name="meta.media.0.stream.sample_aspect_ratio">0</property>
  <property name="meta.media.0.codec.width">3840</property>
  <property name="meta.media.0.codec.height">2160</property>
  <property name="meta.media.0.codec.rotate">0</property>
  <property name="meta.media.0.codec.pix_fmt">yuv420p</property>
  <property name="meta.media.0.codec.sample_aspect_ratio">0</property>
  <property name="meta.media.0.codec.colorspace">709</property>
  <property name="meta.media.0.codec.name">h264</property>
  <property name="meta.media.0.codec.long_name">H.264 / AVC / MPEG-4 AVC / MPEG-4 part 10</property>
  <property name="meta.media.0.codec.bit_rate">756412</property>
  <property name="meta.attr.0.stream.handler_name.markup">VideoHandler</property>
  <property name="meta.attr.0.stream.vendor_id.markup">[0][0][0][0]</property>
  <property name="meta.attr.0.stream.encoder.markup">Lavc61.4.100 libx264</property>
  <property name="meta.attr.major_brand.markup">isom</property>
  <property name="meta.attr.minor_version.markup">512</property>
  <property name="meta.attr.compatible_brands.markup">isomiso2avc1mp41</property>
  <property name="meta.attr.encoder.markup">Lavf61.2.100</property>
  <property name="meta.attr.comment.markup">Rendered with Manim Community v0.18.1</property>
  <property name="meta.media.sample_aspect_num">1</property>
  <property name="meta.media.sample_aspect_den">1</property>
  <property name="meta.media.frame_rate_num">60</property>
  <property name="meta.media.frame_rate_den">1</property>
  <property name="meta.media.colorspace">709</property>
  <property name="meta.media.color_trc">2</property>
  <property name="meta.media.has_b_frames">2</property>
  <property name="meta.media.width">3840</property>
  <property name="meta.media.height">2160</property>
  <property name="meta.media.aspect_ratio">1</property>
  <property name="meta.media.color_range">mpeg</property>
  <property name="xml">was here</property>
  <property name="meta.media.top_field_first">0</property>
  <property name="meta.media.progressive">1</property>
  <property name="set.test_audio">1</property>
  <property name="set.test_image">0</property>
 </chain>
 <chain id="chain41" out="00:00:02.250">
  <property name="length">136</property>
  <property name="eof">pause</property>
  <property name="resource">/Users/thomasnield/git/3mds/p_values/media/videos/p_values/2160p60/ClosingCard.mp4</property>
  <property name="mlt_service">avformat-novalidate</property>
  <property name="seekable">1</property>
  <property name="audio_index">-1</property>
  <property name="video_index">0</property>
  <property name="vstream">0</property>
  <property name="kdenlive:folderid">-1</property>
  <property name="kdenlive:id">58</property>
  <property name="mute_on_pause">0</property>
  <property name="kdenlive:clip_type">2</property>
  <property name="kdenlive:file_size">433469</property>
  <property name="kdenlive:file_hash">95e64f2bf6d8615c2994cf3fa01143eb</property>
  <property name="meta.media.nb_streams">1</property>
  <property name="meta.media.0.stream.type">video</property>
  <property name="meta.media.0.stream.frame_rate">60</property>
  <property name="meta.media.0.stream.sample_aspect_ratio">0</property>
  <property name="meta.media.0.codec.width">3840</property>
  <property name="meta.media.0.codec.height">2160</property>
  <property name="meta.media.0.codec.rotate">0</property>
  <property name="meta.media.0.codec.pix_fmt">yuv420p</property>
  <property name="meta.media.0.codec.sample_aspect_ratio">0</property>
  <property name="meta.media.0.codec.colorspace">709</property>
  <property name="meta.media.0.codec.name">h264</property>
  <property name="meta.media.0.codec.long_name">H.264 / AVC / MPEG-4 AVC / MPEG-4 part 10</property>
  <property name="meta.media.0.codec.bit_rate">1520957</property>
  <property name="meta.attr.0.stream.handler_name.markup">VideoHandler</property>
  <property name="meta.attr.0.stream.vendor_id.markup">[0][0][0][0]</property>
  <property name="meta.attr.0.stream.encoder.markup">Lavc61.4.100 libx264</property>
  <property name="meta.attr.major_brand.markup">isom</property>
  <property name="meta.attr.minor_version.markup">512</property>
  <property name="meta.attr.compatible_brands.markup">isomiso2avc1mp41</property>
  <property name="meta.attr.encoder.markup">Lavf61.2.100</property>
  <property name="meta.attr.comment.markup">Rendered with Manim Community v0.18.1</property>
  <property name="meta.media.sample_aspect_num">1</property>
  <property name="meta.media.sample_aspect_den">1</property>
  <property name="meta.media.frame_rate_num">60</property>
  <property name="meta.media.frame_rate_den">1</property>
  <property name="meta.media.colorspace">709</property>
  <property name="meta.media.color_trc">2</property>
  <property name="meta.media.has_b_frames">2</property>
  <property name="meta.media.width">3840</property>
  <property name="meta.media.height">2160</property>
  <property name="meta.media.aspect_ratio">1</property>
  <property name="meta.media.color_range">mpeg</property>
  <property name="xml">was here</property>
  <property name="meta.media.top_field_first">0</property>
  <property name="meta.media.progressive">1</property>
  <property name="set.test_audio">1</property>
  <property name="set.test_image">0</property>
 </chain>
 <playlist id="playlist4">
  <entry in="00:00:00.000" out="00:00:10.583" producer="chain35">
   <property name="kdenlive:id">6</property>
   <filter id="filter8" in="00:00:08.183" out="00:00:10.583">
    <property name="start">1</property>
    <property name="level">1</property>
    <property name="mlt_service">brightness</property>
    <property name="kdenlive_id">fade_to_black</property>
    <property name="alpha">00:00:00.000=1;00:00:02.400=0</property>
    <property name="kdenlive:collapsed">0</property>
   </filter>
  </entry>
  <entry in="00:00:00.000" out="00:00:04.983" producer="chain36">
   <property name="kdenlive:id">8</property>
  </entry>
  <entry in="00:00:00.000" out="00:00:08.950" producer="chain39">
   <property name="kdenlive:id">7</property>
   <filter id="filter9">
    <property name="frame">4</property>
    <property name="freeze_after">0</property>
    <property name="freeze_before">0</property>
    <property name="mlt_service">freeze</property>
    <property name="kdenlive_id">freeze</property>
    <property name="kdenlive:collapsed">0</property>
   </filter>
   <filter id="filter10" out="00:00:01.367">
    <property name="start">1</property>
    <property name="level">1</property>
    <property name="mlt_service">brightness</property>
    <property name="kdenlive_id">fade_from_black</property>
    <property name="alpha">00:00:00.000=0;00:00:01.367=1</property>
    <property name="kdenlive:collapsed">0</property>
   </filter>
  </entry>
  <entry in="00:00:00.100" out="00:00:00.967" producer="chain39">
   <property name="kdenlive:id">7</property>
  </entry>
  <entry in="00:00:00.983" out="00:00:10.167" producer="chain39">
   <property name="kdenlive:id">7</property>
   <filter id="filter11">
    <property name="frame">61</property>
    <property name="freeze_after">0</property>
    <property name="freeze_before">0</property>
    <property name="mlt_service">freeze</property>
    <property name="kdenlive_id">freeze</property>
    <property name="kdenlive:collapsed">0</property>
   </filter>
  </entry>
  <entry in="00:00:01.917" out="00:00:09.417" producer="chain39">
   <property name="kdenlive:id">7</property>
  </entry>
  <entry in="00:00:09.417" out="00:00:12.067" producer="chain39">
   <property name="kdenlive:id">7</property>
  </entry>
  <entry in="00:00:12.083" out="00:00:15.650" producer="chain39">
   <property name="kdenlive:id">7</property>
   <filter id="filter12">
    <property name="frame">725</property>
    <property name="freeze_after">0</property>
    <property name="freeze_before">0</property>
    <property name="mlt_service">freeze</property>
    <property name="kdenlive_id">freeze</property>
    <property name="kdenlive:collapsed">0</property>
   </filter>
  </entry>
  <entry in="00:00:12.250" out="00:00:14.517" producer="chain39">
   <property name="kdenlive:id">7</property>
  </entry>
  <entry in="00:00:14.517" out="00:00:18.633" producer="chain39">
   <property name="kdenlive:id">7</property>
  </entry>
  <entry in="00:00:18.650" out="00:00:23.267" producer="chain39">
   <property name="kdenlive:id">7</property>
   <filter id="filter13">
    <property name="frame">1130</property>
    <property name="freeze_after">0</property>
    <property name="freeze_before">0</property>
    <property name="mlt_service">freeze</property>
    <property name="kdenlive_id">freeze</property>
    <property name="kdenlive:collapsed">0</property>
   </filter>
  </entry>
  <entry in="00:00:18.850" out="00:00:20.467" producer="chain39">
   <property name="kdenlive:id">7</property>
  </entry>
  <entry in="00:00:20.467" out="00:00:22.883" producer="chain39">
   <property name="kdenlive:id">7</property>
   <filter id="filter14">
    <property name="frame">1235</property>
    <property name="freeze_after">0</property>
    <property name="freeze_before">0</property>
    <property name="mlt_service">freeze</property>
    <property name="kdenlive_id">freeze</property>
    <property name="kdenlive:collapsed">0</property>
   </filter>
  </entry>
  <entry in="00:00:21.183" out="00:00:21.283" producer="chain39">
   <property name="kdenlive:id">7</property>
  </entry>
  <entry in="00:00:21.300" out="00:00:24.283" producer="chain39">
   <property name="kdenlive:id">7</property>
  </entry>
  <entry in="00:00:24.300" out="00:00:26.200" producer="chain39">
   <property name="kdenlive:id">7</property>
   <filter id="filter15">
    <property name="frame">1458</property>
    <property name="freeze_after">0</property>
    <property name="freeze_before">0</property>
    <property name="mlt_service">freeze</property>
    <property name="kdenlive_id">freeze</property>
    <property name="kdenlive:collapsed">0</property>
   </filter>
  </entry>
  <entry in="00:00:24.667" out="00:00:27.233" producer="chain39">
   <property name="kdenlive:id">7</property>
  </entry>
  <entry in="00:00:27.250" out="00:00:31.767" producer="chain39">
   <property name="kdenlive:id">7</property>
   <filter id="filter16">
    <property name="frame">1644</property>
    <property name="freeze_after">0</property>
    <property name="freeze_before">0</property>
    <property name="mlt_service">freeze</property>
    <property name="kdenlive_id">freeze</property>
    <property name="kdenlive:collapsed">0</property>
   </filter>
  </entry>
  <entry in="00:00:27.417" out="00:00:29.483" producer="chain39">
   <property name="kdenlive:id">7</property>
  </entry>
  <entry in="00:00:29.500" out="00:00:37.000" producer="chain39">
   <property name="kdenlive:id">7</property>
   <filter id="filter17">
    <property name="frame">1783</property>
    <property name="freeze_after">0</property>
    <property name="freeze_before">0</property>
    <property name="mlt_service">freeze</property>
    <property name="kdenlive_id">freeze</property>
    <property name="kdenlive:collapsed">0</property>
   </filter>
  </entry>
  <entry in="00:00:29.733" out="00:00:35.300" producer="chain39">
   <property name="kdenlive:id">7</property>
  </entry>
  <entry in="00:00:35.317" out="00:00:38.767" producer="chain39">
   <property name="kdenlive:id">7</property>
   <filter id="filter18">
    <property name="frame">2133</property>
    <property name="freeze_after">0</property>
    <property name="freeze_before">0</property>
    <property name="mlt_service">freeze</property>
    <property name="kdenlive_id">freeze</property>
    <property name="kdenlive:collapsed">0</property>
   </filter>
  </entry>
  <entry in="00:00:35.567" out="00:00:38.400" producer="chain39">
   <property name="kdenlive:id">7</property>
  </entry>
  <entry in="00:00:38.417" out="00:00:40.717" producer="chain39">
   <property name="kdenlive:id">7</property>
  </entry>
  <entry in="00:00:36.217" out="00:00:40.983" producer="chain39">
   <property name="kdenlive:id">7</property>
   <filter id="filter19">
    <property name="frame">2444</property>
    <property name="freeze_after">0</property>
    <property name="freeze_before">0</property>
    <property name="mlt_service">freeze</property>
    <property name="kdenlive_id">freeze</property>
    <property name="kdenlive:collapsed">0</property>
   </filter>
   <filter id="filter20" in="00:00:39.883" out="00:00:40.983">
    <property name="start">1</property>
    <property name="level">1</property>
    <property name="mlt_service">brightness</property>
    <property name="kdenlive_id">fade_to_black</property>
    <property name="alpha">00:00:00.000=1;00:00:01.100=0</property>
    <property name="kdenlive:collapsed">0</property>
   </filter>
  </entry>
  <entry in="00:00:00.000" out="00:00:02.700" producer="chain40">
   <property name="kdenlive:id">5</property>
  </entry>
  <entry in="00:00:02.717" out="00:00:10.233" producer="chain40">
   <property name="kdenlive:id">5</property>
   <filter id="filter21">
    <property name="frame">171</property>
    <property name="freeze_after">0</property>
    <property name="freeze_before">0</property>
    <property name="mlt_service">freeze</property>
    <property name="kdenlive_id">freeze</property>
    <property name="kdenlive:collapsed">0</property>
   </filter>
  </entry>
  <entry in="00:00:02.867" out="00:00:04.283" producer="chain40">
   <property name="kdenlive:id">5</property>
  </entry>
  <entry in="00:00:04.300" out="00:00:07.133" producer="chain40">
   <property name="kdenlive:id">5</property>
   <filter id="filter22">
    <property name="frame">258</property>
    <property name="freeze_after">0</property>
    <property name="freeze_before">0</property>
    <property name="mlt_service">freeze</property>
    <property name="kdenlive_id">freeze</property>
    <property name="kdenlive:collapsed">0</property>
   </filter>
  </entry>
  <entry in="00:00:04.517" out="00:00:14.317" producer="chain40">
   <property name="kdenlive:id">5</property>
  </entry>
  <entry in="00:00:12.600" out="00:00:18.833" producer="chain40">
   <property name="kdenlive:id">5</property>
   <filter id="filter23">
    <property name="frame">871</property>
    <property name="freeze_after">0</property>
    <property name="freeze_before">0</property>
    <property name="mlt_service">freeze</property>
    <property name="kdenlive_id">freeze</property>
    <property name="kdenlive:collapsed">0</property>
   </filter>
  </entry>
  <entry in="00:00:14.533" out="00:00:19.700" producer="chain40">
   <property name="kdenlive:id">5</property>
  </entry>
  <entry in="00:00:19.717" out="00:00:26.717" producer="chain40">
   <property name="kdenlive:id">5</property>
   <filter id="filter24">
    <property name="frame">1184</property>
    <property name="freeze_after">0</property>
    <property name="freeze_before">0</property>
    <property name="mlt_service">freeze</property>
    <property name="kdenlive_id">freeze</property>
    <property name="kdenlive:collapsed">0</property>
   </filter>
  </entry>
  <entry in="00:00:19.750" out="00:00:21.150" producer="chain40">
   <property name="kdenlive:id">5</property>
  </entry>
  <entry in="00:00:21.167" out="00:00:25.633" producer="chain40">
   <property name="kdenlive:id">5</property>
   <filter id="filter25">
    <property name="frame">1270</property>
    <property name="freeze_after">0</property>
    <property name="freeze_before">0</property>
    <property name="mlt_service">freeze</property>
    <property name="kdenlive_id">freeze</property>
    <property name="kdenlive:collapsed">0</property>
   </filter>
  </entry>
  <entry in="00:00:21.400" out="00:00:25.333" producer="chain40">
   <property name="kdenlive:id">5</property>
  </entry>
  <entry in="00:00:25.350" out="00:00:46.200" producer="chain40">
   <property name="kdenlive:id">5</property>
   <filter id="filter26">
    <property name="frame">1534</property>
    <property name="freeze_after">0</property>
    <property name="freeze_before">0</property>
    <property name="mlt_service">freeze</property>
    <property name="kdenlive_id">freeze</property>
    <property name="kdenlive:collapsed">0</property>
   </filter>
  </entry>
  <entry in="00:00:25.583" out="00:00:36.867" producer="chain40">
   <property name="kdenlive:id">5</property>
  </entry>
  <entry in="00:00:36.883" out="00:00:40.500" producer="chain40">
   <property name="kdenlive:id">5</property>
   <filter id="filter27">
    <property name="frame">2213</property>
    <property name="freeze_after">0</property>
    <property name="freeze_before">0</property>
    <property name="mlt_service">freeze</property>
    <property name="kdenlive_id">freeze</property>
    <property name="kdenlive:collapsed">0</property>
   </filter>
  </entry>
  <entry in="00:00:36.333" out="00:00:46.550" producer="chain40">
   <property name="kdenlive:id">5</property>
  </entry>
  <entry in="00:00:46.567" out="00:00:51.867" producer="chain40">
   <property name="kdenlive:id">5</property>
   <filter id="filter28">
    <property name="frame">2807</property>
    <property name="freeze_after">0</property>
    <property name="freeze_before">0</property>
    <property name="mlt_service">freeze</property>
    <property name="kdenlive_id">freeze</property>
    <property name="kdenlive:collapsed">0</property>
   </filter>
  </entry>
  <entry in="00:00:46.800" out="00:00:50.100" producer="chain40">
   <property name="kdenlive:id">5</property>
  </entry>
  <entry in="00:00:50.117" out="00:00:59.117" producer="chain40">
   <property name="kdenlive:id">5</property>
   <filter id="filter29">
    <property name="frame">3023</property>
    <property name="freeze_after">0</property>
    <property name="freeze_before">0</property>
    <property name="mlt_service">freeze</property>
    <property name="kdenlive_id">freeze</property>
    <property name="kdenlive:collapsed">0</property>
   </filter>
  </entry>
  <entry in="00:00:50.400" out="00:00:59.767" producer="chain40">
   <property name="kdenlive:id">5</property>
  </entry>
  <entry in="00:00:57.633" out="00:00:59.983" producer="chain40">
   <property name="kdenlive:id">5</property>
   <filter id="filter30">
    <property name="frame">3587</property>
    <property name="freeze_after">0</property>
    <property name="freeze_before">0</property>
    <property name="mlt_service">freeze</property>
    <property name="kdenlive_id">freeze</property>
    <property name="kdenlive:collapsed">0</property>
   </filter>
  </entry>
  <entry in="00:00:00.000" out="00:00:00.800" producer="chain41">
   <property name="kdenlive:id">58</property>
  </entry>
  <entry in="00:00:00.817" out="00:00:02.250" producer="chain41">
   <property name="kdenlive:id">58</property>
  </entry>
  <entry in="00:00:00.817" out="00:00:02.250" producer="chain41">
   <property name="kdenlive:id">58</property>
  </entry>
  <entry in="00:00:00.817" out="00:00:02.250" producer="chain41">
   <property name="kdenlive:id">58</property>
  </entry>
  <entry in="00:00:00.817" out="00:00:02.250" producer="chain41">
   <property name="kdenlive:id">58</property>
  </entry>
  <entry in="00:00:00.817" out="00:00:02.250" producer="chain41">
   <property name="kdenlive:id">58</property>
  </entry>
  <entry in="00:00:00.817" out="00:00:02.250" producer="chain41">
   <property name="kdenlive:id">58</property>
  </entry>
  <entry in="00:00:00.817" out="00:00:02.250" producer="chain41">
   <property name="kdenlive:id">58</property>
  </entry>
  <entry in="00:00:00.817" out="00:00:02.250" producer="chain41">
   <property name="kdenlive:id">58</property>
  </entry>
  <entry in="00:00:00.817" out="00:00:02.250" producer="chain41">
   <property name="kdenlive:id">58</property>
  </entry>
  <entry in="00:00:00.817" out="00:00:02.250" producer="chain41">
   <property name="kdenlive:id">58</property>
  </entry>
  <entry in="00:00:00.817" out="00:00:02.250" producer="chain41">
   <property name="kdenlive:id">58</property>
  </entry>
  <entry in="00:00:00.817" out="00:00:02.250" producer="chain41">
   <property name="kdenlive:id">58</property>
  </entry>
  <entry in="00:00:00.817" out="00:00:01.983" producer="chain41">
   <property name="kdenlive:id">58</property>
  </entry>
 </playlist>
 <playlist id="playlist5"/>
 <tractor id="tractor2" in="00:00:00.000" out="00:04:11.750">
  <property name="kdenlive:trackheight">67</property>
  <property name="kdenlive:timeline_active">1</property>
  <property name="kdenlive:collapsed">0</property>
  <property name="kdenlive:thumbs_format"/>
  <property name="kdenlive:audio_rec"/>
  <track hide="audio" producer="playlist4"/>
  <track hide="audio" producer="playlist5"/>
 </tractor>
 <playlist id="playlist6"/>
 <playlist id="playlist7"/>
 <tractor id="tractor3" in="00:00:00.000">
  <property name="kdenlive:trackheight">67</property>
  <property name="kdenlive:timeline_active">1</property>
  <property name="kdenlive:collapsed">0</property>
  <property name="kdenlive:thumbs_format"/>
  <property name="kdenlive:audio_rec"/>
  <track hide="audio" producer="playlist6"/>
  <track hide="audio" producer="playlist7"/>
 </tractor>
 <tractor id="tractor4" in="00:00:00.000" out="00:04:11.750">
  <property name="kdenlive:duration">00:04:11.767</property>
  <property name="kdenlive:maxduration">15106</property>
  <property name="kdenlive:clipname">Sequence 1</property>
  <property name="kdenlive:description"/>
  <property name="kdenlive:uuid">{d50415bf-c844-4d4d-95b0-27e70d5c7808}</property>
  <property name="kdenlive:producer_type">17</property>
  <property name="kdenlive:id">3</property>
  <property name="kdenlive:clip_type">0</property>
  <property name="kdenlive:file_hash">250fa71e76e40b5f88a50bfc6194f4b7</property>
  <property name="kdenlive:folderid">2</property>
  <property name="kdenlive:sequenceproperties.activeTrack">2</property>
  <property name="kdenlive:sequenceproperties.audioTarget">1</property>
  <property name="kdenlive:sequenceproperties.disablepreview">0</property>
  <property name="kdenlive:sequenceproperties.documentuuid">{d50415bf-c844-4d4d-95b0-27e70d5c7808}</property>
  <property name="kdenlive:sequenceproperties.hasAudio">1</property>
  <property name="kdenlive:sequenceproperties.hasVideo">1</property>
  <property name="kdenlive:sequenceproperties.position">15105</property>
  <property name="kdenlive:sequenceproperties.scrollPos">0</property>
  <property name="kdenlive:sequenceproperties.tracks">4</property>
  <property name="kdenlive:sequenceproperties.tracksCount">4</property>
  <property name="kdenlive:sequenceproperties.verticalzoom">1</property>
  <property name="kdenlive:sequenceproperties.videoTarget">2</property>
  <property name="kdenlive:sequenceproperties.zonein">0</property>
  <property name="kdenlive:sequenceproperties.zoneout">75</property>
  <property name="kdenlive:sequenceproperties.zoom">4</property>
  <property name="kdenlive:sequenceproperties.groups">[
]
</property>
  <property name="kdenlive:sequenceproperties.guides">[
]
</property>
  <track producer="producer0"/>
  <track producer="tractor0"/>
  <track producer="tractor1"/>
  <track producer="tractor2"/>
  <track producer="tractor3"/>
  <transition id="transition0">
   <property name="a_track">0</property>
   <property name="b_track">1</property>
   <property name="mlt_service">mix</property>
   <property name="kdenlive_id">mix</property>
   <property name="internal_added">237</property>
   <property name="always_active">1</property>
   <property name="accepts_blanks">1</property>
   <property name="sum">1</property>
  </transition>
  <transition id="transition1">
   <property name="a_track">0</property>
   <property name="b_track">2</property>
   <property name="mlt_service">mix</property>
   <property name="kdenlive_id">mix</property>
   <property name="internal_added">237</property>
   <property name="always_active">1</property>
   <property name="accepts_blanks">1</property>
   <property name="sum">1</property>
  </transition>
  <transition id="transition2">
   <property name="a_track">0</property>
   <property name="b_track">3</property>
   <property name="version">0.1</property>
   <property name="mlt_service">frei0r.cairoblend</property>
   <property name="always_active">1</property>
   <property name="internal_added">237</property>
  </transition>
  <transition id="transition3">
   <property name="a_track">0</property>
   <property name="b_track">4</property>
   <property name="version">0.1</property>
   <property name="mlt_service">frei0r.cairoblend</property>
   <property name="always_active">1</property>
   <property name="internal_added">237</property>
  </transition>
  <filter id="filter31">
   <property name="window">75</property>
   <property name="max_gain">20dB</property>
   <property name="mlt_service">volume</property>
   <property name="internal_added">237</property>
   <property name="disable">1</property>
  </filter>
  <filter id="filter32">
   <property name="channel">-1</property>
   <property name="mlt_service">panner</property>
   <property name="internal_added">237</property>
   <property name="start">0.5</property>
   <property name="disable">1</property>
  </filter>
 </tractor>
 <chain id="chain42" out="00:00:04.767">
  <property name="length">287</property>
  <property name="eof">pause</property>
  <property name="resource">other_assets/z2ye2zeT.m4a</property>
  <property name="mlt_service">avformat</property>
  <property name="meta.media.nb_streams">1</property>
  <property name="meta.media.0.stream.type">audio</property>
  <property name="meta.media.0.codec.sample_fmt">fltp</property>
  <property name="meta.media.0.codec.sample_rate">48000</property>
  <property name="meta.media.0.codec.channels">1</property>
  <property name="meta.media.0.codec.layout">mono</property>
  <property name="meta.media.0.codec.name">aac</property>
  <property name="meta.media.0.codec.long_name">AAC (Advanced Audio Coding)</property>
  <property name="meta.media.0.codec.bit_rate">239156</property>
  <property name="meta.attr.0.stream.creation_time.markup">2024-06-04T02:03:12.000000Z</property>
  <property name="meta.attr.0.stream.handler_name.markup">Core Media Audio</property>
  <property name="meta.attr.0.stream.vendor_id.markup">[0][0][0][0]</property>
  <property name="meta.attr.major_brand.markup">M4A </property>
  <property name="meta.attr.minor_version.markup">0</property>
  <property name="meta.attr.compatible_brands.markup">M4A isommp42</property>
  <property name="meta.attr.creation_time.markup">2024-06-04T02:03:12.000000Z</property>
  <property name="meta.attr.iTunSMPB.markup"> 00000000 00000840 00000000 00000000000377C0 00000000 00000000 00000000 00000000 00000000 00000000 00000000 00000000</property>
  <property name="seekable">1</property>
  <property name="audio_index">0</property>
  <property name="video_index">-1</property>
  <property name="astream">0</property>
  <property name="kdenlive:folderid">-1</property>
  <property name="kdenlive:id">53</property>
  <property name="kdenlive:clip_type">1</property>
  <property name="kdenlive:file_size">144642</property>
  <property name="kdenlive:file_hash">e1945e28681c3b6f3a467a0b730e9ce4</property>
  <property name="kdenlive:audio_max0">116</property>
  <property name="kdenlive:monitorPosition">0</property>
 </chain>
 <chain id="chain43" out="00:00:04.983">
  <property name="length">300</property>
  <property name="eof">pause</property>
  <property name="resource">/Users/thomasnield/git/3mds/p_values/media/videos/p_values/2160p60/TitleScene.mp4</property>
  <property name="mlt_service">avformat</property>
  <property name="meta.media.nb_streams">1</property>
  <property name="meta.media.0.stream.type">video</property>
  <property name="meta.media.0.stream.frame_rate">60</property>
  <property name="meta.media.0.stream.sample_aspect_ratio">0</property>
  <property name="meta.media.0.codec.width">3840</property>
  <property name="meta.media.0.codec.height">2160</property>
  <property name="meta.media.0.codec.rotate">0</property>
  <property name="meta.media.0.codec.pix_fmt">yuv420p</property>
  <property name="meta.media.0.codec.sample_aspect_ratio">0</property>
  <property name="meta.media.0.codec.colorspace">709</property>
  <property name="meta.media.0.codec.name">h264</property>
  <property name="meta.media.0.codec.long_name">H.264 / AVC / MPEG-4 AVC / MPEG-4 part 10</property>
  <property name="meta.media.0.codec.bit_rate">219972</property>
  <property name="meta.attr.0.stream.handler_name.markup">VideoHandler</property>
  <property name="meta.attr.0.stream.vendor_id.markup">[0][0][0][0]</property>
  <property name="meta.attr.0.stream.encoder.markup">Lavc61.4.100 libx264</property>
  <property name="meta.attr.major_brand.markup">isom</property>
  <property name="meta.attr.minor_version.markup">512</property>
  <property name="meta.attr.compatible_brands.markup">isomiso2avc1mp41</property>
  <property name="meta.attr.encoder.markup">Lavf61.2.100</property>
  <property name="meta.attr.comment.markup">Rendered with Manim Community v0.18.1</property>
  <property name="seekable">1</property>
  <property name="meta.media.sample_aspect_num">1</property>
  <property name="meta.media.sample_aspect_den">1</property>
  <property name="audio_index">-1</property>
  <property name="video_index">0</property>
  <property name="vstream">0</property>
  <property name="meta.media.frame_rate_num">60</property>
  <property name="meta.media.frame_rate_den">1</property>
  <property name="meta.media.colorspace">709</property>
  <property name="meta.media.color_trc">2</property>
  <property name="meta.media.has_b_frames">2</property>
  <property name="meta.media.width">3840</property>
  <property name="meta.media.height">2160</property>
  <property name="meta.media.aspect_ratio">1</property>
  <property name="meta.media.color_range">mpeg</property>
  <property name="meta.media.top_field_first">0</property>
  <property name="meta.media.progressive">1</property>
  <property name="kdenlive:id">8</property>
  <property name="kdenlive:clip_type">2</property>
  <property name="kdenlive:file_size">141906</property>
  <property name="kdenlive:file_hash">833ff01dd1946154b2ffc9cfb8b8355d</property>
  <property name="kdenlive:folderid">-1</property>
 </chain>
 <chain id="chain44" out="00:00:07.600">
  <property name="length">457</property>
  <property name="eof">pause</property>
  <property name="resource">other_assets/kcR57Ma6.m4a</property>
  <property name="mlt_service">avformat</property>
  <property name="meta.media.nb_streams">1</property>
  <property name="meta.media.0.stream.type">audio</property>
  <property name="meta.media.0.codec.sample_fmt">fltp</property>
  <property name="meta.media.0.codec.sample_rate">48000</property>
  <property name="meta.media.0.codec.channels">1</property>
  <property name="meta.media.0.codec.layout">mono</property>
  <property name="meta.media.0.codec.name">aac</property>
  <property name="meta.media.0.codec.long_name">AAC (Advanced Audio Coding)</property>
  <property name="meta.media.0.codec.bit_rate">240878</property>
  <property name="meta.attr.0.stream.creation_time.markup">2024-06-04T02:15:05.000000Z</property>
  <property name="meta.attr.0.stream.handler_name.markup">Core Media Audio</property>
  <property name="meta.attr.0.stream.vendor_id.markup">[0][0][0][0]</property>
  <property name="meta.attr.major_brand.markup">M4A </property>
  <property name="meta.attr.minor_version.markup">0</property>
  <property name="meta.attr.compatible_brands.markup">M4A isommp42</property>
  <property name="meta.attr.creation_time.markup">2024-06-04T02:15:05.000000Z</property>
  <property name="meta.attr.iTunSMPB.markup"> 00000000 00000840 00000000 0000000000058BC0 00000000 00000000 00000000 00000000 00000000 00000000 00000000 00000000</property>
  <property name="seekable">1</property>
  <property name="audio_index">0</property>
  <property name="video_index">-1</property>
  <property name="astream">0</property>
  <property name="kdenlive:folderid">-1</property>
  <property name="kdenlive:id">55</property>
  <property name="kdenlive:clip_type">1</property>
  <property name="kdenlive:file_size">231646</property>
  <property name="kdenlive:file_hash">c4fbde0566e7f83dac995e76e027f9f0</property>
  <property name="kdenlive:audio_max0">130</property>
  <property name="kdenlive:zone_in">39</property>
  <property name="kdenlive:zone_out">391</property>
  <property name="kdenlive:monitorPosition">390</property>
 </chain>
 <chain id="chain49" out="00:00:08.050">
  <property name="length">484</property>
  <property name="eof">pause</property>
  <property name="resource">other_assets/VoTma1kF.m4a</property>
  <property name="mlt_service">avformat</property>
  <property name="meta.media.nb_streams">1</property>
  <property name="meta.media.0.stream.type">audio</property>
  <property name="meta.media.0.codec.sample_fmt">fltp</property>
  <property name="meta.media.0.codec.sample_rate">48000</property>
  <property name="meta.media.0.codec.channels">1</property>
  <property name="meta.media.0.codec.layout">mono</property>
  <property name="meta.media.0.codec.name">aac</property>
  <property name="meta.media.0.codec.long_name">AAC (Advanced Audio Coding)</property>
  <property name="meta.media.0.codec.bit_rate">224962</property>
  <property name="meta.attr.0.stream.creation_time.markup">2024-06-04T02:17:59.000000Z</property>
  <property name="meta.attr.0.stream.handler_name.markup">Core Media Audio</property>
  <property name="meta.attr.0.stream.vendor_id.markup">[0][0][0][0]</property>
  <property name="meta.attr.major_brand.markup">M4A </property>
  <property name="meta.attr.minor_version.markup">0</property>
  <property name="meta.attr.compatible_brands.markup">M4A isommp42</property>
  <property name="meta.attr.creation_time.markup">2024-06-04T02:17:59.000000Z</property>
  <property name="meta.attr.iTunSMPB.markup"> 00000000 00000840 00000000 000000000005DFC0 00000000 00000000 00000000 00000000 00000000 00000000 00000000 00000000</property>
  <property name="seekable">1</property>
  <property name="audio_index">0</property>
  <property name="video_index">-1</property>
  <property name="astream">0</property>
  <property name="kdenlive:folderid">-1</property>
  <property name="kdenlive:id">56</property>
  <property name="kdenlive:clip_type">1</property>
  <property name="kdenlive:file_size">229180</property>
  <property name="kdenlive:file_hash">76163d9150af5ec985693878559ba14e</property>
  <property name="kdenlive:audio_max0">133</property>
  <property name="kdenlive:zone_in">327</property>
  <property name="kdenlive:zone_out">467</property>
  <property name="kdenlive:monitorPosition">466</property>
 </chain>
 <chain id="chain50" out="00:00:04.917">
  <property name="length">296</property>
  <property name="eof">pause</property>
  <property name="resource">other_assets/CXGemnSN.m4a</property>
  <property name="mlt_service">avformat</property>
  <property name="meta.media.nb_streams">1</property>
  <property name="meta.media.0.stream.type">audio</property>
  <property name="meta.media.0.codec.sample_fmt">fltp</property>
  <property name="meta.media.0.codec.sample_rate">48000</property>
  <property name="meta.media.0.codec.channels">1</property>
  <property name="meta.media.0.codec.layout">mono</property>
  <property name="meta.media.0.codec.name">aac</property>
  <property name="meta.media.0.codec.long_name">AAC (Advanced Audio Coding)</property>
  <property name="meta.media.0.codec.bit_rate">210922</property>
  <property name="meta.attr.0.stream.creation_time.markup">2024-06-04T02:21:00.000000Z</property>
  <property name="meta.attr.0.stream.handler_name.markup">Core Media Audio</property>
  <property name="meta.attr.0.stream.vendor_id.markup">[0][0][0][0]</property>
  <property name="meta.attr.major_brand.markup">M4A </property>
  <property name="meta.attr.minor_version.markup">0</property>
  <property name="meta.attr.compatible_brands.markup">M4A isommp42</property>
  <property name="meta.attr.creation_time.markup">2024-06-04T02:21:00.000000Z</property>
  <property name="meta.attr.iTunSMPB.markup"> 00000000 00000840 00000000 00000000000393C0 00000000 00000000 00000000 00000000 00000000 00000000 00000000 00000000</property>
  <property name="seekable">1</property>
  <property name="audio_index">0</property>
  <property name="video_index">-1</property>
  <property name="astream">0</property>
  <property name="kdenlive:folderid">-1</property>
  <property name="kdenlive:id">57</property>
  <property name="kdenlive:clip_type">1</property>
  <property name="kdenlive:file_size">131746</property>
  <property name="kdenlive:file_hash">1c3255a69aa28ac723acbc7489a2769a</property>
  <property name="kdenlive:audio_max0">98</property>
  <property name="kdenlive:monitorPosition">83</property>
 </chain>
 <chain id="chain51" out="00:00:02.250">
  <property name="length">136</property>
  <property name="eof">pause</property>
  <property name="resource">/Users/thomasnield/git/3mds/p_values/media/videos/p_values/2160p60/ClosingCard.mp4</property>
  <property name="mlt_service">avformat-novalidate</property>
  <property name="meta.media.nb_streams">1</property>
  <property name="meta.media.0.stream.type">video</property>
  <property name="meta.media.0.stream.frame_rate">60</property>
  <property name="meta.media.0.stream.sample_aspect_ratio">0</property>
  <property name="meta.media.0.codec.width">3840</property>
  <property name="meta.media.0.codec.height">2160</property>
  <property name="meta.media.0.codec.rotate">0</property>
  <property name="meta.media.0.codec.pix_fmt">yuv420p</property>
  <property name="meta.media.0.codec.sample_aspect_ratio">0</property>
  <property name="meta.media.0.codec.colorspace">709</property>
  <property name="meta.media.0.codec.name">h264</property>
  <property name="meta.media.0.codec.long_name">H.264 / AVC / MPEG-4 AVC / MPEG-4 part 10</property>
  <property name="meta.media.0.codec.bit_rate">1520957</property>
  <property name="meta.attr.0.stream.handler_name.markup">VideoHandler</property>
  <property name="meta.attr.0.stream.vendor_id.markup">[0][0][0][0]</property>
  <property name="meta.attr.0.stream.encoder.markup">Lavc61.4.100 libx264</property>
  <property name="meta.attr.major_brand.markup">isom</property>
  <property name="meta.attr.minor_version.markup">512</property>
  <property name="meta.attr.compatible_brands.markup">isomiso2avc1mp41</property>
  <property name="meta.attr.encoder.markup">Lavf61.2.100</property>
  <property name="meta.attr.comment.markup">Rendered with Manim Community v0.18.1</property>
  <property name="seekable">1</property>
  <property name="meta.media.sample_aspect_num">1</property>
  <property name="meta.media.sample_aspect_den">1</property>
  <property name="audio_index">-1</property>
  <property name="video_index">0</property>
  <property name="vstream">0</property>
  <property name="meta.media.frame_rate_num">60</property>
  <property name="meta.media.frame_rate_den">1</property>
  <property name="meta.media.colorspace">709</property>
  <property name="meta.media.color_trc">2</property>
  <property name="meta.media.has_b_frames">2</property>
  <property name="meta.media.width">3840</property>
  <property name="meta.media.height">2160</property>
  <property name="meta.media.aspect_ratio">1</property>
  <property name="meta.media.color_range">mpeg</property>
  <property name="meta.media.top_field_first">0</property>
  <property name="meta.media.progressive">1</property>
  <property name="kdenlive:folderid">-1</property>
  <property name="kdenlive:id">58</property>
  <property name="mute_on_pause">0</property>
  <property name="kdenlive:clip_type">2</property>
  <property name="kdenlive:file_size">433469</property>
  <property name="kdenlive:file_hash">95e64f2bf6d8615c2994cf3fa01143eb</property>
  <property name="kdenlive:monitorPosition">0</property>
 </chain>
 <chain id="chain52" out="00:00:02.850">
  <property name="length">172</property>
  <property name="eof">pause</property>
  <property name="resource">other_assets/iVoFUIVQ.m4a</property>
  <property name="mlt_service">avformat</property>
  <property name="meta.media.nb_streams">1</property>
  <property name="meta.media.0.stream.type">audio</property>
  <property name="meta.media.0.codec.sample_fmt">fltp</property>
  <property name="meta.media.0.codec.sample_rate">48000</property>
  <property name="meta.media.0.codec.channels">1</property>
  <property name="meta.media.0.codec.layout">mono</property>
  <property name="meta.media.0.codec.name">aac</property>
  <property name="meta.media.0.codec.long_name">AAC (Advanced Audio Coding)</property>
  <property name="meta.media.0.codec.bit_rate">245037</property>
  <property name="meta.attr.0.stream.creation_time.markup">2024-06-04T02:45:59.000000Z</property>
  <property name="meta.attr.0.stream.handler_name.markup">Core Media Audio</property>
  <property name="meta.attr.0.stream.vendor_id.markup">[0][0][0][0]</property>
  <property name="meta.attr.major_brand.markup">M4A </property>
  <property name="meta.attr.minor_version.markup">0</property>
  <property name="meta.attr.compatible_brands.markup">M4A isommp42</property>
  <property name="meta.attr.creation_time.markup">2024-06-04T02:45:59.000000Z</property>
  <property name="meta.attr.iTunSMPB.markup"> 00000000 00000840 00000000 0000000000020FC0 00000000 00000000 00000000 00000000 00000000 00000000 00000000 00000000</property>
  <property name="seekable">1</property>
  <property name="audio_index">0</property>
  <property name="video_index">-1</property>
  <property name="astream">0</property>
  <property name="kdenlive:folderid">-1</property>
  <property name="kdenlive:id">60</property>
  <property name="kdenlive:clip_type">1</property>
  <property name="kdenlive:file_size">88978</property>
  <property name="kdenlive:file_hash">4a09873bac22e3fb9ba27e2398287adf</property>
  <property name="kdenlive:audio_max0">96</property>
  <property name="kdenlive:monitorPosition">0</property>
 </chain>
 <chain id="chain53" out="00:00:02.700">
  <property name="length">163</property>
  <property name="eof">pause</property>
  <property name="resource">other_assets/LblLk1I0.m4a</property>
  <property name="mlt_service">avformat</property>
  <property name="meta.media.nb_streams">1</property>
  <property name="meta.media.0.stream.type">audio</property>
  <property name="meta.media.0.codec.sample_fmt">fltp</property>
  <property name="meta.media.0.codec.sample_rate">48000</property>
  <property name="meta.media.0.codec.channels">1</property>
  <property name="meta.media.0.codec.layout">mono</property>
  <property name="meta.media.0.codec.name">aac</property>
  <property name="meta.media.0.codec.long_name">AAC (Advanced Audio Coding)</property>
  <property name="meta.media.0.codec.bit_rate">161285</property>
  <property name="meta.attr.0.stream.creation_time.markup">2024-06-04T02:49:47.000000Z</property>
  <property name="meta.attr.0.stream.handler_name.markup">Core Media Audio</property>
  <property name="meta.attr.0.stream.vendor_id.markup">[0][0][0][0]</property>
  <property name="meta.attr.major_brand.markup">M4A </property>
  <property name="meta.attr.minor_version.markup">0</property>
  <property name="meta.attr.compatible_brands.markup">M4A isommp42</property>
  <property name="meta.attr.creation_time.markup">2024-06-04T02:49:47.000000Z</property>
  <property name="meta.attr.iTunSMPB.markup"> 00000000 00000840 00000000 000000000001F3C0 00000000 00000000 00000000 00000000 00000000 00000000 00000000 00000000</property>
  <property name="seekable">1</property>
  <property name="audio_index">0</property>
  <property name="video_index">-1</property>
  <property name="astream">0</property>
  <property name="kdenlive:folderid">-1</property>
  <property name="kdenlive:id">61</property>
  <property name="kdenlive:clip_type">1</property>
  <property name="kdenlive:file_size">56012</property>
  <property name="kdenlive:file_hash">b15ecb3253f6a7fc10f35f698a579e4e</property>
  <property name="kdenlive:audio_max0">114</property>
  <property name="kdenlive:monitorPosition">123</property>
  <property name="kdenlive:zone_in">50</property>
  <property name="kdenlive:zone_out">124</property>
 </chain>
 <chain id="chain54" out="00:00:20.450">
  <property name="length">1228</property>
  <property name="eof">pause</property>
  <property name="resource">other_assets/lLBWws8C.m4a</property>
  <property name="mlt_service">avformat</property>
  <property name="meta.media.nb_streams">1</property>
  <property name="meta.media.0.stream.type">audio</property>
  <property name="meta.media.0.codec.sample_fmt">fltp</property>
  <property name="meta.media.0.codec.sample_rate">48000</property>
  <property name="meta.media.0.codec.channels">1</property>
  <property name="meta.media.0.codec.layout">mono</property>
  <property name="meta.media.0.codec.name">aac</property>
  <property name="meta.media.0.codec.long_name">AAC (Advanced Audio Coding)</property>
  <property name="meta.media.0.codec.bit_rate">244679</property>
  <property name="meta.attr.0.stream.creation_time.markup">2024-06-04T02:56:10.000000Z</property>
  <property name="meta.attr.0.stream.handler_name.markup">Core Media Audio</property>
  <property name="meta.attr.0.stream.vendor_id.markup">[0][0][0][0]</property>
  <property name="meta.attr.major_brand.markup">M4A </property>
  <property name="meta.attr.minor_version.markup">0</property>
  <property name="meta.attr.compatible_brands.markup">M4A isommp42</property>
  <property name="meta.attr.creation_time.markup">2024-06-04T02:56:10.000000Z</property>
  <property name="meta.attr.iTunSMPB.markup"> 00000000 00000840 00000000 00000000000EF3C0 00000000 00000000 00000000 00000000 00000000 00000000 00000000 00000000</property>
  <property name="seekable">1</property>
  <property name="audio_index">0</property>
  <property name="video_index">-1</property>
  <property name="astream">0</property>
  <property name="kdenlive:folderid">-1</property>
  <property name="kdenlive:id">63</property>
  <property name="kdenlive:clip_type">1</property>
  <property name="kdenlive:file_size">630518</property>
  <property name="kdenlive:file_hash">601e07f36457b9194b4e35dc20898d58</property>
  <property name="kdenlive:audio_max0">125</property>
 </chain>
 <playlist id="main_bin">
  <property name="kdenlive:folder.-1.2">Sequences</property>
  <property name="kdenlive:folder.-1.12">other_assets</property>
  <property name="kdenlive:sequenceFolder">2</property>
  <property name="kdenlive:docproperties.activetimeline">{d50415bf-c844-4d4d-95b0-27e70d5c7808}</property>
  <property name="kdenlive:docproperties.audioChannels">2</property>
  <property name="kdenlive:docproperties.binsort">0</property>
  <property name="kdenlive:docproperties.browserurl">/Users/thomasnield/Movies/</property>
  <property name="kdenlive:docproperties.compositing">1</property>
  <property name="kdenlive:docproperties.documentid">1717417409576</property>
  <property name="kdenlive:docproperties.enableTimelineZone">0</property>
  <property name="kdenlive:docproperties.enableexternalproxy">0</property>
  <property name="kdenlive:docproperties.enableproxy">0</property>
  <property name="kdenlive:docproperties.externalproxyparams">./;;.LRV;./;;.MP4</property>
  <property name="kdenlive:docproperties.generateimageproxy">0</property>
  <property name="kdenlive:docproperties.generateproxy">0</property>
  <property name="kdenlive:docproperties.guidesCategories">[
    {
        "color": "#9b59b6",
        "comment": "Category 1",
        "index": 0
    },
    {
        "color": "#3daee9",
        "comment": "Category 2",
        "index": 1
    },
    {
        "color": "#1abc9c",
        "comment": "Category 3",
        "index": 2
    },
    {
        "color": "#1cdc9a",
        "comment": "Category 4",
        "index": 3
    },
    {
        "color": "#c9ce3b",
        "comment": "Category 5",
        "index": 4
    },
    {
        "color": "#fdbc4b",
        "comment": "Category 6",
        "index": 5
    },
    {
        "color": "#f39c1f",
        "comment": "Category 7",
        "index": 6
    },
    {
        "color": "#f47750",
        "comment": "Category 8",
        "index": 7
    },
    {
        "color": "#da4453",
        "comment": "Category 9",
        "index": 8
    }
]
</property>
  <property name="kdenlive:docproperties.kdenliveversion">24.02.2</property>
  <property name="kdenlive:docproperties.opensequences">{d50415bf-c844-4d4d-95b0-27e70d5c7808}</property>
  <property name="kdenlive:docproperties.previewextension"/>
  <property name="kdenlive:docproperties.previewparameters"/>
  <property name="kdenlive:docproperties.profile">uhd_2160p_60</property>
  <property name="kdenlive:docproperties.proxyextension"/>
  <property name="kdenlive:docproperties.proxyimageminsize">2000</property>
  <property name="kdenlive:docproperties.proxyimagesize">800</property>
  <property name="kdenlive:docproperties.proxyminsize">1000</property>
  <property name="kdenlive:docproperties.proxyparams"/>
  <property name="kdenlive:docproperties.proxyresize">640</property>
  <property name="kdenlive:docproperties.rendercategory">Generic (HD for web, mobile devices...)</property>
  <property name="kdenlive:docproperties.rendercustomquality">-1</property>
  <property name="kdenlive:docproperties.renderendguide">-1</property>
  <property name="kdenlive:docproperties.renderexportaudio">0</property>
  <property name="kdenlive:docproperties.renderfullcolorrange">0</property>
  <property name="kdenlive:docproperties.rendermode">0</property>
  <property name="kdenlive:docproperties.renderplay">0</property>
  <property name="kdenlive:docproperties.renderpreview">0</property>
  <property name="kdenlive:docproperties.renderprofile">MP4-H264/AAC</property>
  <property name="kdenlive:docproperties.renderrescale">0</property>
  <property name="kdenlive:docproperties.renderrescaleheight">1080</property>
  <property name="kdenlive:docproperties.renderrescalewidth">1920</property>
  <property name="kdenlive:docproperties.renderspeed">6</property>
  <property name="kdenlive:docproperties.renderstartguide">-1</property>
  <property name="kdenlive:docproperties.rendertcoverlay">0</property>
  <property name="kdenlive:docproperties.rendertctype">-1</property>
  <property name="kdenlive:docproperties.rendertwopass">0</property>
  <property name="kdenlive:docproperties.renderurl">p_values_final.mp4</property>
  <property name="kdenlive:docproperties.seekOffset">30000</property>
  <property name="kdenlive:docproperties.uuid">{d50415bf-c844-4d4d-95b0-27e70d5c7808}</property>
  <property name="kdenlive:docproperties.version">1.1</property>
  <property name="kdenlive:expandedFolders"/>
  <property name="kdenlive:binZoom">4</property>
  <property name="kdenlive:documentnotes"/>
  <property name="xml_retain">1</property>
  <entry in="00:00:00.000" out="00:00:59.983" producer="chain2"/>
  <entry in="00:00:00.000" out="00:00:15.383" producer="chain4"/>
  <entry in="00:00:00.000" out="00:00:40.983" producer="chain5"/>
  <entry in="00:00:00.000" out="00:04:24.950" producer="chain37"/>
  <entry in="00:00:00.000" out="00:00:06.250" producer="chain38"/>
  <entry in="00:00:00.000" out="00:00:10.217" producer="chain45"/>
  <entry in="00:00:00.000" out="00:00:32.183" producer="chain46"/>
  <entry in="00:00:00.000" out="00:00:17.683" producer="chain47"/>
  <entry in="00:00:00.000" out="00:00:11.167" producer="chain48"/>
  <entry in="00:00:00.000" out="00:00:13.400" producer="chain56"/>
  <entry in="00:00:00.000" out="00:00:10.950" producer="chain57"/>
  <entry in="00:00:00.000" out="00:00:12.950" producer="chain58"/>
  <entry in="00:00:00.000" out="00:00:26.183" producer="chain59"/>
  <entry in="00:00:00.000" out="00:00:11.567" producer="chain60"/>
  <entry in="00:00:00.000" out="00:00:19.517" producer="chain61"/>
  <entry in="00:00:00.000" out="00:00:09.833" producer="chain62"/>
  <entry in="00:00:00.000" out="00:00:12.200" producer="chain63"/>
  <entry in="00:00:00.000" out="00:00:04.583" producer="chain64"/>
  <entry in="00:00:00.000" out="00:00:10.600" producer="chain65"/>
  <entry in="00:00:00.000" out="00:00:17.433" producer="chain66"/>
  <entry in="00:00:00.000" out="00:00:08.767" producer="chain67"/>
  <entry in="00:00:00.000" out="00:00:15.250" producer="chain68"/>
  <entry in="00:00:00.000" out="00:00:12.700" producer="chain71"/>
  <entry in="00:00:00.000" out="00:00:08.233" producer="chain72"/>
  <entry in="00:00:00.000" out="00:00:08.617" producer="chain73"/>
  <entry in="00:00:00.000" out="00:00:02.500" producer="chain74"/>
  <entry in="00:00:00.000" out="00:00:04.867" producer="chain75"/>
  <entry in="00:00:00.000" out="00:00:07.300" producer="chain76"/>
  <entry in="00:00:00.000" out="00:04:26.467" producer="tractor4"/>
  <entry in="00:00:00.000" out="00:00:04.767" producer="chain42"/>
  <entry in="00:00:00.000" out="00:00:04.983" producer="chain43"/>
  <entry in="00:00:00.000" out="00:00:07.600" producer="chain44"/>
  <entry in="00:00:00.000" out="00:00:08.050" producer="chain49"/>
  <entry in="00:00:00.000" out="00:00:04.917" producer="chain50"/>
  <entry in="00:00:00.000" out="00:00:02.250" producer="chain51"/>
  <entry in="00:00:00.000" out="00:00:02.850" producer="chain52"/>
  <entry in="00:00:00.000" out="00:00:02.700" producer="chain53"/>
  <entry in="00:00:00.000" out="00:00:20.450" producer="chain54"/>
 </playlist>
 <tractor id="tractor5" in="00:00:00.000" out="00:04:11.750">
  <property name="kdenlive:projectTractor">1</property>
  <track in="00:00:00.000" out="00:04:11.750" producer="tractor4"/>
 </tractor>
</mlt>
